<svg xmlns="http://www.w3.org/2000/svg" xmlns:xlink="http://www.w3.org/1999/xlink" width="500" zoomAndPan="magnify" viewBox="0 0 375 374.999991" height="500" preserveAspectRatio="xMidYMid meet" version="1.0"><defs><g/><clipPath id="fa1a2bd6fb"><path d="M 244 27.582031 L 329 27.582031 L 329 83 L 244 83 Z M 244 27.582031 " clip-rule="nonzero"/></clipPath><clipPath id="119b8818f0"><path d="M 336 84 L 357.386719 84 L 357.386719 120 L 336 120 Z M 336 84 " clip-rule="nonzero"/></clipPath><clipPath id="7cb96b021f"><path d="M 17.636719 124 L 38 124 L 38 160 L 17.636719 160 Z M 17.636719 124 " clip-rule="nonzero"/></clipPath><clipPath id="e3f3a42c5e"><path d="M 49 249 L 323 249 L 323 277.332031 L 49 277.332031 Z M 49 249 " clip-rule="nonzero"/></clipPath></defs><g clip-path="url(#fa1a2bd6fb)"><path fill="#008037" d="M 320.011719 41.707031 C 319.128906 47.855469 318.785156 53.941406 318.9375 59.910156 C 321.707031 58.636719 324.460938 57.339844 327.199219 56.011719 C 326.472656 47.027344 326.753906 37.578125 328.195312 27.59375 C 302.117188 50.160156 274.988281 69.703125 244.953125 80.90625 C 245.378906 81.527344 245.746094 82.195312 246.074219 82.898438 C 268.765625 74.4375 300.308594 58.757812 320.011719 41.707031 Z M 320.011719 41.707031 " fill-opacity="1" fill-rule="evenodd"/></g><g clip-path="url(#119b8818f0)"><path fill="#008037" d="M 342.179688 93.722656 C 340.144531 96.480469 338.253906 99.292969 336.5 102.148438 C 336.664062 108.09375 337.269531 114.007812 338.289062 119.894531 C 342.5 107.917969 348.738281 96.058594 357.386719 84.339844 C 350.53125 85.878906 343.695312 87.304688 336.878906 88.570312 C 336.703125 90.675781 336.578125 92.773438 336.511719 94.871094 C 338.441406 94.519531 340.335938 94.136719 342.179688 93.726562 Z M 342.179688 93.722656 " fill-opacity="1" fill-rule="evenodd"/></g><path fill="#008037" d="M 242.535156 88.222656 C 242.367188 87.386719 242.140625 86.582031 241.839844 85.8125 C 276.675781 81.429688 310.503906 67.425781 343.984375 49.941406 C 327.128906 92.75 333.867188 130.722656 352.292969 166.304688 L 254.085938 144.636719 C 254.816406 142.929688 255.386719 141.132812 255.84375 139.285156 L 335.609375 156.257812 C 321.691406 129.378906 318.976562 95.265625 331.703125 62.921875 C 306.414062 76.132812 268.851562 84.914062 242.535156 88.222656 Z M 242.535156 88.222656 " fill-opacity="1" fill-rule="evenodd"/><path fill="#008037" d="M 321.820312 144.925781 C 321.714844 144.628906 321.617188 144.332031 321.511719 144.03125 C 321.617188 144.332031 321.714844 144.628906 321.820312 144.925781 Z M 321.820312 144.925781 " fill-opacity="1" fill-rule="evenodd"/><path fill="#008037" d="M 317.03125 85.203125 L 317.199219 84.207031 C 317.140625 84.535156 317.085938 84.871094 317.03125 85.203125 Z M 317.03125 85.203125 " fill-opacity="1" fill-rule="evenodd"/><path fill="#008037" d="M 317.609375 82.023438 C 317.667969 81.695312 317.738281 81.363281 317.800781 81.039062 C 317.738281 81.367188 317.667969 81.695312 317.609375 82.023438 Z M 317.609375 82.023438 " fill-opacity="1" fill-rule="evenodd"/><path fill="#008037" d="M 317.808594 81.011719 C 317.875 80.683594 317.945312 80.355469 318.011719 80.027344 Z M 317.808594 81.011719 " fill-opacity="1" fill-rule="evenodd"/><path fill="#008037" d="M 318.039062 79.902344 C 318.105469 79.605469 318.164062 79.308594 318.234375 79.015625 C 318.164062 79.3125 318.101562 79.605469 318.039062 79.902344 Z M 318.039062 79.902344 " fill-opacity="1" fill-rule="evenodd"/><path fill="#008037" d="M 318.261719 78.890625 C 318.335938 78.554688 318.410156 78.214844 318.484375 77.886719 C 318.410156 78.21875 318.335938 78.554688 318.261719 78.890625 Z M 318.261719 78.890625 " fill-opacity="1" fill-rule="evenodd"/><path fill="#008037" d="M 313.355469 57.765625 C 313.363281 59.304688 313.40625 60.839844 313.476562 62.367188 C 311.417969 63.28125 309.351562 64.171875 307.273438 65.046875 C 307.027344 64.9375 306.785156 64.808594 306.558594 64.667969 C 305.636719 64.097656 304.90625 63.320312 304.402344 62.433594 C 298.433594 66.234375 292.144531 69.863281 285.75 73.246094 C 281.996094 74.519531 278.226562 75.703125 274.429688 76.804688 C 278.648438 74.761719 282.8125 72.632812 286.90625 70.421875 C 294.933594 66.089844 302.808594 61.378906 310.300781 56.183594 L 313.335938 54.074219 L 313.359375 57.765625 Z M 313.355469 57.765625 " fill-opacity="1" fill-rule="evenodd"/><path fill="#008037" d="M 55.558594 75.703125 C 55.957031 79 56.203125 82.300781 56.304688 85.601562 L 58.351562 85.953125 C 58.316406 84.585938 58.253906 83.214844 58.167969 81.851562 C 59.335938 81.804688 60.507812 81.457031 61.566406 80.773438 C 62.570312 80.128906 63.347656 79.265625 63.867188 78.289062 L 94.832031 92.222656 L 102.859375 93.597656 L 55.121094 72.121094 L 55.554688 75.703125 Z M 55.558594 75.703125 " fill-opacity="1" fill-rule="evenodd"/><path fill="#008037" d="M 39.066406 82.640625 C 38.4375 71.554688 36.460938 60.449219 33.453125 49.339844 L 119.765625 88.957031 L 120.789062 89.425781 C 119.757812 90.871094 118.867188 92.433594 118.066406 94.070312 L 115.796875 93.050781 L 47 62.09375 C 48.960938 69.347656 50.121094 76.902344 50.433594 84.597656 L 39.066406 82.644531 Z M 39.066406 82.640625 " fill-opacity="1" fill-rule="evenodd"/><g clip-path="url(#7cb96b021f)"><path fill="#008037" d="M 31.734375 150.0625 C 33.550781 147.339844 35.230469 144.570312 36.777344 141.765625 C 36.351562 136.09375 35.507812 130.476562 34.269531 124.90625 C 30.785156 136.527344 25.363281 148.125 17.636719 159.703125 C 24.113281 157.925781 30.578125 156.261719 37.023438 154.75 C 37.097656 152.726562 37.121094 150.71875 37.089844 148.714844 C 35.261719 149.132812 33.476562 149.585938 31.734375 150.0625 Z M 31.734375 150.0625 " fill-opacity="1" fill-rule="evenodd"/></g><path fill="#008037" d="M 113.027344 153.660156 L 113.101562 156.289062 C 85.339844 163.390625 58.480469 176.472656 31.984375 191.941406 C 46.144531 150.3125 38.003906 114.367188 18.808594 81.230469 L 113.539062 97.503906 C 112.917969 99.160156 112.457031 100.902344 112.105469 102.691406 L 35.1875 90.074219 C 49.691406 115.113281 53.820312 147.554688 43.121094 179 C 62.511719 167.675781 89.984375 158.851562 113.027344 153.664062 Z M 113.027344 153.660156 " fill-opacity="1" fill-rule="evenodd"/><path fill="#008037" d="M 53.0625 163.757812 C 56.867188 142.726562 54.9375 120.886719 46.96875 101.023438 L 45.625 97.671875 L 113.269531 108.769531 L 113.089844 110.660156 C 112.921875 112.417969 112.773438 114.175781 112.59375 115.929688 C 112.25 119.207031 112.089844 122.597656 112.191406 125.886719 C 112.203125 126.324219 112.234375 127.011719 112.296875 127.824219 L 112.550781 136.820312 C 109.40625 132.40625 110.023438 120.90625 110.566406 115.71875 C 110.746094 114 110.894531 112.238281 111.058594 110.464844 L 48.863281 100.265625 L 55.664062 101.378906 C 55.410156 102.457031 54.882812 103.492188 54.078125 104.375 C 53.234375 105.300781 52.191406 105.941406 51.074219 106.285156 C 56.542969 122.582031 58.179688 139.96875 56.132812 157.042969 L 56.21875 156.308594 C 58.039062 156.105469 59.933594 156.648438 61.386719 157.964844 C 62.226562 158.734375 62.820312 159.667969 63.167969 160.679688 L 62.523438 160.941406 C 78.628906 154.40625 96.433594 149.222656 112.800781 145.65625 L 112.859375 147.71875 C 102.679688 149.941406 92.566406 152.667969 82.703125 155.824219 C 73.617188 158.738281 64.609375 162.074219 55.898438 165.976562 L 52.375 167.558594 Z M 53.0625 163.757812 " fill-opacity="1" fill-rule="evenodd"/><path fill="#008037" d="M 48.863281 100.265625 C 48.972656 100.546875 49.085938 100.824219 49.195312 101.105469 C 49.082031 100.824219 48.972656 100.546875 48.863281 100.265625 Z M 48.863281 100.265625 " fill-opacity="1" fill-rule="evenodd"/><path fill="#008037" d="M 56.125 157.0625 L 56.011719 158.023438 C 56.050781 157.703125 56.089844 157.382812 56.125 157.0625 Z M 56.125 157.0625 " fill-opacity="1" fill-rule="evenodd"/><path fill="#008037" d="M 55.71875 160.128906 C 55.671875 160.441406 55.625 160.761719 55.574219 161.074219 C 55.625 160.757812 55.671875 160.441406 55.71875 160.128906 Z M 55.71875 160.128906 " fill-opacity="1" fill-rule="evenodd"/><path fill="#008037" d="M 55.570312 161.101562 C 55.523438 161.417969 55.46875 161.734375 55.421875 162.046875 Z M 55.570312 161.101562 " fill-opacity="1" fill-rule="evenodd"/><path fill="#008037" d="M 55.402344 162.171875 C 55.355469 162.453125 55.304688 162.738281 55.257812 163.023438 C 55.304688 162.738281 55.355469 162.453125 55.402344 162.171875 Z M 55.402344 162.171875 " fill-opacity="1" fill-rule="evenodd"/><path fill="#008037" d="M 55.238281 163.148438 C 55.183594 163.472656 55.125 163.796875 55.066406 164.121094 C 55.125 163.796875 55.183594 163.472656 55.238281 163.148438 Z M 55.238281 163.148438 " fill-opacity="1" fill-rule="evenodd"/><path fill="#008037" d="M 181.382812 75.445312 L 181.382812 74.875 C 181.382812 72.898438 182.0625 71.066406 183.203125 69.609375 C 184.777344 67.597656 187.230469 66.296875 189.972656 66.296875 L 201.960938 66.296875 C 206.679688 66.296875 210.546875 70.15625 210.546875 74.875 L 210.546875 154.378906 C 210.546875 155.09375 210.460938 155.789062 210.292969 156.457031 L 181.636719 156.457031 C 181.46875 155.789062 181.382812 155.09375 181.382812 154.378906 L 181.382812 153.808594 C 181.382812 134.671875 181.382812 94.648438 181.382812 75.445312 Z M 244.058594 103.058594 L 241.339844 144.234375 C 240.96875 144.789062 240 145.714844 239.65625 146.042969 C 237.96875 147.648438 236.257812 149.171875 234.636719 150.847656 C 231.65625 153.929688 228.457031 156.457031 223.972656 156.457031 L 217.15625 156.457031 C 216.996094 156.292969 216.847656 156.113281 216.710938 155.9375 C 215.570312 154.480469 214.886719 152.648438 214.886719 150.667969 L 214.886719 80.019531 C 214.886719 78.039062 215.570312 76.210938 216.710938 74.757812 C 218.285156 72.746094 220.734375 71.445312 223.480469 71.445312 L 235.464844 71.445312 C 240.191406 71.445312 244.058594 75.304688 244.058594 80.023438 L 244.058594 103.066406 Z M 176.917969 152.410156 L 176.917969 152.484375 C 176.917969 153.917969 176.5625 155.265625 175.933594 156.457031 L 171.964844 156.457031 C 168.996094 156.457031 166.136719 157.484375 164.082031 159.675781 C 163.675781 160.117188 163.3125 160.578125 163 161.0625 L 156.34375 161.0625 C 153.597656 161.0625 151.148438 159.765625 149.570312 157.75 C 148.433594 156.296875 147.753906 154.464844 147.753906 152.484375 L 147.753906 81.835938 C 147.753906 79.855469 148.433594 78.027344 149.570312 76.570312 C 151.148438 74.554688 153.597656 73.257812 156.34375 73.257812 L 168.328125 73.257812 C 173.054688 73.257812 176.914062 77.117188 176.914062 81.835938 L 176.914062 152.410156 Z M 246.371094 138.855469 L 248.511719 139.941406 C 248.652344 139.503906 248.785156 139.0625 248.910156 138.617188 L 247.207031 138.253906 L 248.394531 129.929688 C 248.660156 128.082031 248.902344 126.234375 249.1875 124.390625 C 249.660156 121.265625 249.96875 118.082031 250.019531 114.921875 C 250.042969 113.765625 249.988281 111.195312 249.699219 109.464844 L 248.117188 108.890625 L 246.113281 139.335938 L 246.375 138.855469 Z M 215.898438 190.015625 C 245.714844 190.015625 249.890625 185.480469 263.777344 169.59375 L 242.949219 158.816406 L 236.332031 155.394531 C 234.3125 157.28125 232.148438 158.851562 229.671875 159.824219 L 229.628906 159.835938 L 229.207031 159.992188 L 229.007812 160.0625 L 228.980469 160.074219 L 228.78125 160.140625 L 228.746094 160.148438 L 228.546875 160.210938 L 228.515625 160.21875 L 228.3125 160.28125 L 228.28125 160.289062 L 228.074219 160.347656 L 228.046875 160.355469 L 227.960938 160.375 L 227.804688 160.417969 L 227.589844 160.472656 L 227.566406 160.476562 L 227.34375 160.523438 L 227.320312 160.527344 L 227.214844 160.550781 L 226.828125 160.625 L 226.601562 160.664062 L 226.578125 160.667969 L 226.351562 160.703125 L 226.328125 160.707031 L 226.09375 160.738281 L 226.078125 160.742188 L 225.835938 160.769531 L 225.824219 160.773438 L 225.578125 160.800781 L 225.566406 160.800781 L 225.316406 160.824219 L 225.308594 160.824219 L 225.042969 160.84375 L 224.78125 160.859375 L 224.519531 160.867188 L 224.25 160.875 L 223.980469 160.878906 C 223.980469 160.886719 207.265625 160.878906 205.824219 160.878906 L 184.707031 160.878906 C 178.054688 160.878906 164.539062 157.953125 166.085938 168.652344 C 166.742188 173.171875 169.488281 178.511719 170.496094 181.429688 C 172.128906 186.144531 177.328125 190.007812 182.050781 190.007812 L 215.90625 190.007812 Z M 224.246094 160.878906 Z M 224.515625 160.875 Z M 225.050781 160.851562 Z M 229.207031 159.992188 Z M 115.457031 144.351562 L 115.457031 99.425781 L 115.496094 99.332031 L 115.457031 99.324219 L 115.457031 92.503906 C 115.457031 90.523438 116.140625 88.695312 117.273438 87.238281 C 118.851562 85.226562 121.300781 83.925781 124.042969 83.925781 L 136.03125 83.925781 C 140.753906 83.925781 144.617188 87.785156 144.617188 92.503906 L 144.617188 151.269531 C 144.617188 155.992188 140.753906 159.847656 136.03125 159.847656 L 124.042969 159.847656 C 121.300781 159.847656 118.851562 158.550781 117.273438 156.535156 C 116.136719 155.082031 115.457031 153.25 115.457031 151.269531 L 115.457031 144.453125 L 115.496094 144.445312 L 115.457031 144.347656 Z M 115.457031 144.351562 " fill-opacity="1" fill-rule="evenodd"/><path fill="#008037" d="M 252.488281 185.039062 C 251.066406 186.257812 249.566406 187.382812 247.964844 188.382812 C 238.382812 194.355469 225.445312 194.5625 214.503906 194.5625 L 182.226562 194.5625 C 178.808594 194.5625 175.394531 193.175781 172.625 190.972656 C 170.15625 189.007812 168.199219 186.390625 167.214844 183.542969 C 166.328125 180.976562 165.089844 178.492188 164.183594 175.878906 C 163.589844 174.167969 163.082031 172.386719 162.824219 170.585938 C 162.644531 169.363281 162.609375 168.140625 162.757812 166.960938 L 157.726562 166.960938 C 153.894531 166.960938 150.296875 165.1875 147.941406 162.175781 L 147.582031 161.695312 C 145.304688 164.21875 142.015625 165.804688 138.363281 165.804688 L 126.933594 165.804688 C 124.671875 165.804688 122.492188 165.1875 120.597656 164.066406 C 120.597656 187.328125 127.152344 205.636719 148.390625 210.953125 C 147.921875 210.835938 152.929688 223.089844 153.585938 225.242188 C 155.320312 230.890625 156.816406 237.539062 157.949219 245.4375 L 216.265625 245.4375 C 217.394531 237.539062 218.890625 230.890625 220.625 225.242188 C 222.507812 219.113281 224.667969 214.15625 226.960938 210.042969 C 226.214844 210.238281 252.488281 202.609375 252.488281 185.035156 Z M 241.40625 248.390625 L 233.78125 233.914062 C 232.800781 237.546875 231.941406 241.394531 231.09375 245.636719 L 230.851562 246.859375 C 234.367188 247.308594 237.886719 247.824219 241.402344 248.390625 Z M 218.917969 242.101562 C 218.730469 243.226562 218.558594 244.355469 218.394531 245.488281 L 220.082031 245.640625 C 222.4375 245.867188 224.796875 246.125 227.152344 246.402344 L 226.980469 245.804688 C 225.21875 239.6875 226.710938 232.691406 229.5625 225.878906 L 228.261719 223.414062 L 225.445312 218.058594 C 224.382812 220.609375 223.457031 223.222656 222.652344 225.859375 C 221.023438 231.164062 219.828125 236.613281 218.921875 242.097656 Z M 218.917969 242.101562 " fill-opacity="1" fill-rule="evenodd"/><path fill="#008037" d="M 229.015625 245.21875 C 231.25 234.042969 233.480469 222.445312 243.949219 205.441406 C 236.144531 216.710938 225.53125 233.121094 229.015625 245.21875 Z M 133.941406 236.148438 C 132.277344 227.8125 130.613281 219.175781 122.804688 206.496094 C 128.621094 214.894531 136.535156 227.128906 133.941406 236.148438 Z M 145.28125 245.21875 C 148.765625 233.121094 138.148438 216.710938 130.347656 205.441406 C 140.820312 222.449219 143.050781 234.042969 145.28125 245.21875 Z M 240.359375 236.148438 C 237.761719 227.128906 245.671875 214.894531 251.488281 206.496094 C 243.683594 219.175781 242.019531 227.8125 240.359375 236.148438 Z M 240.359375 236.148438 " fill-opacity="1" fill-rule="evenodd"/><path fill="#008037" d="M 229.597656 244.9375 L 229.109375 247.394531 L 228.519531 245.359375 C 226.738281 239.175781 228.539062 231.929688 231.78125 224.808594 C 234.984375 217.761719 239.59375 210.828125 243.503906 205.179688 L 243.527344 205.148438 L 244.386719 205.710938 C 234.085938 222.441406 231.796875 233.917969 229.597656 244.9375 Z M 229.011719 242.636719 C 230.5625 234.945312 232.398438 226.890625 237.117188 216.894531 C 235.515625 219.605469 234.003906 222.410156 232.71875 225.230469 C 229.996094 231.222656 228.308594 237.28125 229.011719 242.636719 Z M 133.433594 236.25 L 133.378906 235.96875 C 131.742188 227.765625 130.035156 219.222656 122.367188 206.765625 L 123.230469 206.203125 L 123.25 206.234375 C 126.167969 210.449219 129.605469 215.621094 132 220.878906 C 134.425781 226.214844 135.773438 231.644531 134.4375 236.289062 L 133.847656 238.328125 Z M 129.160156 217.519531 C 131.707031 223.480469 132.910156 228.527344 133.898438 233.339844 C 134.148438 229.59375 132.9375 225.429688 131.058594 221.300781 C 130.480469 220.035156 129.839844 218.769531 129.160156 217.519531 Z M 145.289062 242.636719 C 145.988281 237.28125 144.300781 231.222656 141.578125 225.230469 C 140.296875 222.410156 138.789062 219.613281 137.1875 216.90625 C 141.902344 226.898438 143.738281 234.949219 145.289062 242.636719 Z M 142.515625 224.808594 C 145.753906 231.929688 147.554688 239.175781 145.773438 245.359375 L 145.1875 247.394531 L 144.699219 244.957031 C 142.503906 233.933594 140.214844 222.453125 129.90625 205.707031 L 130.765625 205.148438 L 130.789062 205.175781 C 134.699219 210.824219 139.308594 217.757812 142.511719 224.804688 Z M 239.863281 236.292969 C 238.523438 231.644531 239.875 226.214844 242.300781 220.882812 C 244.691406 215.625 248.128906 210.453125 251.042969 206.238281 L 251.066406 206.207031 L 251.925781 206.765625 C 244.257812 219.226562 242.554688 227.765625 240.917969 235.96875 L 240.449219 238.328125 L 239.859375 236.292969 Z M 243.238281 221.304688 C 241.359375 225.429688 240.148438 229.597656 240.398438 233.34375 C 241.386719 228.527344 242.589844 223.484375 245.132812 217.523438 C 244.453125 218.769531 243.8125 220.035156 243.238281 221.300781 Z M 243.238281 221.304688 " fill-opacity="1" fill-rule="evenodd"/><g clip-path="url(#e3f3a42c5e)"><path fill="#008037" d="M 322.835938 277.320312 C 230.960938 257.277344 140.066406 257.285156 49.066406 277.320312 C 139.015625 241.402344 230.140625 237.867188 322.835938 277.320312 Z M 322.835938 277.320312 " fill-opacity="1" fill-rule="evenodd"/></g><path fill="#008037" d="M 257.316406 131.203125 L 314.761719 143.425781 C 315.082031 142.3125 315.683594 141.257812 316.570312 140.375 C 317.5 139.449219 318.621094 138.832031 319.800781 138.523438 C 314.960938 121.46875 314.0625 103.496094 316.898438 85.988281 C 314.976562 86.113281 313.03125 85.453125 311.578125 84.003906 C 310.738281 83.160156 310.160156 82.152344 309.847656 81.078125 L 310.519531 80.839844 C 288.878906 88.453125 264.523438 93.691406 244.054688 96.300781 L 244.054688 98.96875 C 245.546875 98.84375 246.867188 98.859375 248.84375 99.574219 L 254.96875 101.800781 C 260.570312 103.839844 259.058594 119.378906 258.09375 125.734375 C 257.820312 127.523438 257.578125 129.359375 257.3125 131.203125 Z M 288.621094 119.871094 C 283.632812 120.347656 279.199219 116.691406 278.722656 111.703125 C 278.25 106.71875 281.910156 102.289062 286.902344 101.8125 C 292.972656 101.238281 297.808594 106.691406 296.679688 112.5625 C 295.9375 116.414062 292.730469 119.480469 288.621094 119.871094 Z M 288.621094 119.871094 " fill-opacity="1" fill-rule="evenodd"/><path fill="#008037" d="M 287.546875 111.199219 L 287.808594 115.882812 C 285.460938 115.992188 285.421875 113.664062 285.347656 113.492188 C 285.324219 113.425781 285.070312 113.242188 285.054688 113.824219 C 285.046875 114.273438 284.972656 116.058594 285.21875 116.253906 C 285.683594 116.632812 287.175781 116.664062 287.847656 116.613281 L 287.953125 118.503906 L 288.96875 118.449219 L 288.859375 116.445312 C 291.699219 115.648438 292.335938 112.414062 289.886719 110.257812 L 288.457031 109.195312 L 288.242188 105.214844 C 290.265625 105.140625 290.375 107.007812 290.417969 107.074219 C 290.449219 107.128906 290.722656 107.328125 290.679688 106.667969 L 290.578125 104.703125 L 288.199219 104.507812 L 288.101562 102.617188 L 287.082031 102.675781 L 287.195312 104.691406 C 284.621094 105.480469 284.195312 108.191406 286.253906 110.167969 C 286.574219 110.476562 286.96875 110.792969 287.4375 111.117188 Z M 287.230469 105.46875 L 287.394531 108.433594 C 286.191406 107.441406 286.074219 106.160156 287.230469 105.46875 Z M 288.609375 111.957031 C 290.15625 113.203125 290.234375 114.929688 288.8125 115.644531 Z M 288.609375 111.957031 " fill-opacity="1" fill-rule="evenodd"/><path fill="#008037" d="M 84.785156 131.128906 L 85.097656 136.769531 C 82.269531 136.902344 82.21875 134.097656 82.128906 133.890625 C 82.101562 133.8125 81.796875 133.589844 81.777344 134.289062 C 81.765625 134.832031 81.679688 136.980469 81.976562 137.21875 C 82.539062 137.671875 84.332031 137.710938 85.144531 137.652344 L 85.273438 139.929688 L 86.496094 139.863281 L 86.359375 137.449219 C 89.785156 136.488281 90.550781 132.59375 87.601562 129.992188 L 85.878906 128.714844 L 85.621094 123.917969 C 88.058594 123.832031 88.191406 126.078125 88.238281 126.160156 C 88.277344 126.222656 88.605469 126.464844 88.558594 125.671875 L 88.433594 123.300781 L 85.566406 123.070312 L 85.449219 120.789062 L 84.222656 120.859375 L 84.359375 123.292969 C 81.253906 124.242188 80.742188 127.507812 83.226562 129.890625 C 83.613281 130.257812 84.089844 130.640625 84.652344 131.03125 L 84.789062 131.128906 Z M 84.402344 124.222656 L 84.601562 127.800781 C 83.148438 126.601562 83.011719 125.0625 84.402344 124.222656 Z M 86.0625 132.042969 C 87.929688 133.542969 88.023438 135.628906 86.308594 136.484375 Z M 86.0625 132.042969 " fill-opacity="1" fill-rule="evenodd"/><g fill="#008037" fill-opacity="1"><g transform="translate(7.705194, 338.190355)"><g><path d="M 13.125 0.34375 C 10.90625 0.34375 8.953125 -0.0859375 7.265625 -0.953125 C 5.585938 -1.828125 4.289062 -3.046875 3.375 -4.609375 C 2.46875 -6.179688 2.015625 -7.992188 2.015625 -10.046875 L 2.015625 -19.921875 C 2.015625 -21.984375 2.46875 -23.796875 3.375 -25.359375 C 4.289062 -26.929688 5.585938 -28.144531 7.265625 -29 C 8.953125 -29.851562 10.90625 -30.28125 13.125 -30.28125 C 15.320312 -30.28125 17.253906 -29.875 18.921875 -29.0625 C 20.585938 -28.25 21.882812 -27.09375 22.8125 -25.59375 C 23.738281 -24.09375 24.203125 -22.363281 24.203125 -20.40625 C 24.203125 -20.144531 23.972656 -19.984375 23.515625 -19.921875 L 18.9375 -19.625 L 18.78125 -19.625 C 18.375 -19.625 18.171875 -19.695312 18.171875 -19.84375 L 18.171875 -20.09375 C 18.171875 -21.601562 17.707031 -22.816406 16.78125 -23.734375 C 15.851562 -24.648438 14.632812 -25.109375 13.125 -25.109375 C 11.582031 -25.109375 10.347656 -24.648438 9.421875 -23.734375 C 8.503906 -22.816406 8.046875 -21.601562 8.046875 -20.09375 L 8.046875 -9.796875 C 8.046875 -8.304688 8.503906 -7.101562 9.421875 -6.1875 C 10.347656 -5.28125 11.582031 -4.828125 13.125 -4.828125 C 14.632812 -4.828125 15.851562 -5.28125 16.78125 -6.1875 C 17.707031 -7.101562 18.171875 -8.304688 18.171875 -9.796875 C 18.171875 -9.929688 18.234375 -10.050781 18.359375 -10.15625 C 18.492188 -10.257812 18.675781 -10.296875 18.90625 -10.265625 L 23.484375 -10.046875 C 23.960938 -9.992188 24.203125 -9.925781 24.203125 -9.84375 L 24.203125 -9.625 C 24.203125 -7.65625 23.738281 -5.914062 22.8125 -4.40625 C 21.882812 -2.894531 20.585938 -1.722656 18.921875 -0.890625 C 17.253906 -0.0664062 15.320312 0.34375 13.125 0.34375 Z M 13.125 0.34375 "/></g></g></g><g fill="#008037" fill-opacity="1"><g transform="translate(33.700154, 338.190355)"><g><path d="M 11.96875 0.34375 C 9.550781 0.34375 7.484375 -0.28125 5.765625 -1.53125 C 4.054688 -2.789062 2.890625 -4.503906 2.265625 -6.671875 C 1.867188 -8.015625 1.671875 -9.46875 1.671875 -11.03125 C 1.671875 -12.769531 1.882812 -14.28125 2.3125 -15.5625 C 2.96875 -17.675781 4.140625 -19.332031 5.828125 -20.53125 C 7.523438 -21.726562 9.585938 -22.328125 12.015625 -22.328125 C 14.359375 -22.328125 16.363281 -21.726562 18.03125 -20.53125 C 19.695312 -19.332031 20.859375 -17.691406 21.515625 -15.609375 C 21.941406 -14.296875 22.15625 -12.800781 22.15625 -11.125 C 22.15625 -9.632812 21.96875 -8.191406 21.59375 -6.796875 C 20.9375 -4.578125 19.757812 -2.832031 18.0625 -1.5625 C 16.375 -0.289062 14.34375 0.34375 11.96875 0.34375 Z M 11.96875 -4.828125 C 12.882812 -4.828125 13.671875 -5.113281 14.328125 -5.6875 C 14.984375 -6.257812 15.453125 -7.046875 15.734375 -8.046875 C 15.960938 -8.804688 16.078125 -9.800781 16.078125 -11.03125 C 16.078125 -12.226562 15.960938 -13.238281 15.734375 -14.0625 C 15.453125 -15.039062 14.984375 -15.800781 14.328125 -16.34375 C 13.671875 -16.882812 12.859375 -17.15625 11.890625 -17.15625 C 10.953125 -17.15625 10.15625 -16.882812 9.5 -16.34375 C 8.84375 -15.800781 8.367188 -15.039062 8.078125 -14.0625 C 7.847656 -13.238281 7.734375 -12.226562 7.734375 -11.03125 C 7.734375 -9.863281 7.847656 -8.867188 8.078125 -8.046875 C 8.367188 -7.046875 8.847656 -6.257812 9.515625 -5.6875 C 10.179688 -5.113281 11 -4.828125 11.96875 -4.828125 Z M 11.96875 -4.828125 "/></g></g></g><g fill="#008037" fill-opacity="1"><g transform="translate(57.51462, 338.190355)"><g><path d="M 13.6875 -22.328125 C 15.96875 -22.328125 17.804688 -21.625 19.203125 -20.21875 C 20.597656 -18.820312 21.296875 -16.929688 21.296875 -14.546875 L 21.296875 -0.734375 C 21.296875 -0.242188 21.050781 0 20.5625 0 L 16 0 C 15.507812 0 15.265625 -0.242188 15.265625 -0.734375 L 15.265625 -13.296875 C 15.265625 -14.441406 14.953125 -15.367188 14.328125 -16.078125 C 13.703125 -16.796875 12.859375 -17.15625 11.796875 -17.15625 C 10.742188 -17.15625 9.890625 -16.796875 9.234375 -16.078125 C 8.578125 -15.367188 8.25 -14.441406 8.25 -13.296875 L 8.25 -0.734375 C 8.25 -0.242188 8.007812 0 7.53125 0 L 2.953125 0 C 2.460938 0 2.21875 -0.242188 2.21875 -0.734375 L 2.21875 -21.25 C 2.21875 -21.738281 2.460938 -21.984375 2.953125 -21.984375 L 7.53125 -21.984375 C 8.007812 -21.984375 8.25 -21.738281 8.25 -21.25 L 8.25 -20.0625 C 8.25 -19.945312 8.273438 -19.875 8.328125 -19.84375 C 8.390625 -19.8125 8.453125 -19.835938 8.515625 -19.921875 C 9.679688 -21.523438 11.40625 -22.328125 13.6875 -22.328125 Z M 13.6875 -22.328125 "/></g></g></g><g fill="#008037" fill-opacity="1"><g transform="translate(80.901527, 338.190355)"><g><path d="M 14.84375 -17.875 C 14.84375 -17.394531 14.597656 -17.15625 14.109375 -17.15625 L 10.265625 -17.15625 C 10.085938 -17.15625 10 -17.066406 10 -16.890625 L 10 -8.046875 C 10 -7.097656 10.191406 -6.398438 10.578125 -5.953125 C 10.960938 -5.515625 11.582031 -5.296875 12.4375 -5.296875 L 13.640625 -5.296875 C 14.128906 -5.296875 14.375 -5.054688 14.375 -4.578125 L 14.375 -0.890625 C 14.375 -0.441406 14.128906 -0.1875 13.640625 -0.125 C 12.554688 -0.0703125 11.773438 -0.046875 11.296875 -0.046875 C 8.921875 -0.046875 7.148438 -0.441406 5.984375 -1.234375 C 4.816406 -2.035156 4.21875 -3.519531 4.1875 -5.6875 L 4.1875 -16.890625 C 4.1875 -17.066406 4.101562 -17.15625 3.9375 -17.15625 L 1.75 -17.15625 C 1.269531 -17.15625 1.03125 -17.394531 1.03125 -17.875 L 1.03125 -21.25 C 1.03125 -21.738281 1.269531 -21.984375 1.75 -21.984375 L 3.9375 -21.984375 C 4.101562 -21.984375 4.1875 -22.066406 4.1875 -22.234375 L 4.1875 -27.078125 C 4.1875 -27.554688 4.429688 -27.796875 4.921875 -27.796875 L 9.28125 -27.796875 C 9.757812 -27.796875 10 -27.554688 10 -27.078125 L 10 -22.234375 C 10 -22.066406 10.085938 -21.984375 10.265625 -21.984375 L 14.109375 -21.984375 C 14.597656 -21.984375 14.84375 -21.738281 14.84375 -21.25 Z M 14.84375 -17.875 "/></g></g></g><g fill="#008037" fill-opacity="1"><g transform="translate(97.148379, 338.190355)"><g><path d="M 13.171875 -22.28125 C 14.085938 -22.28125 14.84375 -22.109375 15.4375 -21.765625 C 15.78125 -21.597656 15.910156 -21.300781 15.828125 -20.875 L 15.015625 -16.375 C 14.984375 -16.125 14.898438 -15.96875 14.765625 -15.90625 C 14.640625 -15.851562 14.4375 -15.851562 14.15625 -15.90625 C 13.695312 -16.019531 13.285156 -16.078125 12.921875 -16.078125 C 12.710938 -16.078125 12.382812 -16.050781 11.9375 -16 C 10.90625 -15.90625 10.03125 -15.523438 9.3125 -14.859375 C 8.601562 -14.191406 8.25 -13.300781 8.25 -12.1875 L 8.25 -0.734375 C 8.25 -0.242188 8.007812 0 7.53125 0 L 2.953125 0 C 2.460938 0 2.21875 -0.242188 2.21875 -0.734375 L 2.21875 -21.25 C 2.21875 -21.738281 2.460938 -21.984375 2.953125 -21.984375 L 7.53125 -21.984375 C 8.007812 -21.984375 8.25 -21.738281 8.25 -21.25 L 8.25 -19.921875 C 8.25 -19.804688 8.273438 -19.734375 8.328125 -19.703125 C 8.390625 -19.679688 8.460938 -19.710938 8.546875 -19.796875 C 9.691406 -21.453125 11.234375 -22.28125 13.171875 -22.28125 Z M 13.171875 -22.28125 "/></g></g></g><g fill="#008037" fill-opacity="1"><g transform="translate(113.523491, 338.190355)"><g><path d="M 11.96875 0.34375 C 9.550781 0.34375 7.484375 -0.28125 5.765625 -1.53125 C 4.054688 -2.789062 2.890625 -4.503906 2.265625 -6.671875 C 1.867188 -8.015625 1.671875 -9.46875 1.671875 -11.03125 C 1.671875 -12.769531 1.882812 -14.28125 2.3125 -15.5625 C 2.96875 -17.675781 4.140625 -19.332031 5.828125 -20.53125 C 7.523438 -21.726562 9.585938 -22.328125 12.015625 -22.328125 C 14.359375 -22.328125 16.363281 -21.726562 18.03125 -20.53125 C 19.695312 -19.332031 20.859375 -17.691406 21.515625 -15.609375 C 21.941406 -14.296875 22.15625 -12.800781 22.15625 -11.125 C 22.15625 -9.632812 21.96875 -8.191406 21.59375 -6.796875 C 20.9375 -4.578125 19.757812 -2.832031 18.0625 -1.5625 C 16.375 -0.289062 14.34375 0.34375 11.96875 0.34375 Z M 11.96875 -4.828125 C 12.882812 -4.828125 13.671875 -5.113281 14.328125 -5.6875 C 14.984375 -6.257812 15.453125 -7.046875 15.734375 -8.046875 C 15.960938 -8.804688 16.078125 -9.800781 16.078125 -11.03125 C 16.078125 -12.226562 15.960938 -13.238281 15.734375 -14.0625 C 15.453125 -15.039062 14.984375 -15.800781 14.328125 -16.34375 C 13.671875 -16.882812 12.859375 -17.15625 11.890625 -17.15625 C 10.953125 -17.15625 10.15625 -16.882812 9.5 -16.34375 C 8.84375 -15.800781 8.367188 -15.039062 8.078125 -14.0625 C 7.847656 -13.238281 7.734375 -12.226562 7.734375 -11.03125 C 7.734375 -9.863281 7.847656 -8.867188 8.078125 -8.046875 C 8.367188 -7.046875 8.847656 -6.257812 9.515625 -5.6875 C 10.179688 -5.113281 11 -4.828125 11.96875 -4.828125 Z M 11.96875 -4.828125 "/></g></g></g><g fill="#008037" fill-opacity="1"><g transform="translate(137.337957, 338.190355)"><g><path d="M 3.03125 0 C 2.550781 0 2.3125 -0.242188 2.3125 -0.734375 L 2.3125 -29.203125 C 2.3125 -29.691406 2.550781 -29.9375 3.03125 -29.9375 L 7.609375 -29.9375 C 8.097656 -29.9375 8.34375 -29.691406 8.34375 -29.203125 L 8.34375 -0.734375 C 8.34375 -0.242188 8.097656 0 7.609375 0 Z M 3.03125 0 "/></g></g></g><g fill="#008037" fill-opacity="1"><g transform="translate(147.983915, 338.190355)"><g><path d="M 12.828125 -4.75 C 14.710938 -4.832031 16.15625 -5.488281 17.15625 -6.71875 C 17.320312 -6.914062 17.503906 -7.015625 17.703125 -7.015625 C 17.878906 -7.015625 18.035156 -6.941406 18.171875 -6.796875 L 20.609375 -4.453125 C 20.785156 -4.273438 20.875 -4.101562 20.875 -3.9375 C 20.875 -3.738281 20.816406 -3.566406 20.703125 -3.421875 C 19.753906 -2.253906 18.546875 -1.332031 17.078125 -0.65625 C 15.609375 0.0078125 14.007812 0.34375 12.28125 0.34375 C 9.65625 0.34375 7.476562 -0.320312 5.75 -1.65625 C 4.03125 -3 2.867188 -4.84375 2.265625 -7.1875 C 1.921875 -8.4375 1.75 -9.757812 1.75 -11.15625 C 1.75 -12.8125 1.90625 -14.210938 2.21875 -15.359375 C 2.789062 -17.460938 3.9375 -19.15625 5.65625 -20.4375 C 7.382812 -21.71875 9.429688 -22.359375 11.796875 -22.359375 C 14.597656 -22.359375 16.816406 -21.53125 18.453125 -19.875 C 20.085938 -18.226562 21.148438 -15.910156 21.640625 -12.921875 C 21.753906 -11.972656 21.835938 -10.929688 21.890625 -9.796875 C 21.890625 -9.304688 21.648438 -9.0625 21.171875 -9.0625 L 8.046875 -9.0625 C 7.867188 -9.0625 7.78125 -8.976562 7.78125 -8.8125 C 7.863281 -8.207031 7.960938 -7.765625 8.078125 -7.484375 C 8.367188 -6.597656 8.929688 -5.921875 9.765625 -5.453125 C 10.609375 -4.984375 11.628906 -4.75 12.828125 -4.75 Z M 11.71875 -17.15625 C 10.800781 -17.15625 10.035156 -16.929688 9.421875 -16.484375 C 8.816406 -16.046875 8.398438 -15.425781 8.171875 -14.625 C 8.023438 -14.082031 7.9375 -13.726562 7.90625 -13.5625 C 7.882812 -13.382812 7.957031 -13.296875 8.125 -13.296875 L 15.390625 -13.296875 C 15.535156 -13.296875 15.609375 -13.351562 15.609375 -13.46875 C 15.609375 -13.78125 15.550781 -14.109375 15.4375 -14.453125 C 15.175781 -15.273438 14.734375 -15.929688 14.109375 -16.421875 C 13.484375 -16.910156 12.6875 -17.15625 11.71875 -17.15625 Z M 11.71875 -17.15625 "/></g></g></g><g fill="#008037" fill-opacity="1"><g transform="translate(171.370821, 338.190355)"><g/></g></g><g fill="#008037" fill-opacity="1"><g transform="translate(179.921801, 338.190355)"><g><path d="M 15.484375 -29.203125 C 15.484375 -29.691406 15.722656 -29.9375 16.203125 -29.9375 L 20.78125 -29.9375 C 21.269531 -29.9375 21.515625 -29.691406 21.515625 -29.203125 L 21.515625 -0.734375 C 21.515625 -0.242188 21.269531 0 20.78125 0 L 16.203125 0 C 15.722656 0 15.484375 -0.242188 15.484375 -0.734375 L 15.484375 -1.875 C 15.484375 -1.988281 15.445312 -2.050781 15.375 -2.0625 C 15.300781 -2.082031 15.238281 -2.050781 15.1875 -1.96875 C 14.007812 -0.425781 12.382812 0.34375 10.3125 0.34375 C 8.375 0.34375 6.65625 -0.234375 5.15625 -1.390625 C 3.65625 -2.546875 2.617188 -4.0625 2.046875 -5.9375 C 1.566406 -7.3125 1.328125 -9.023438 1.328125 -11.078125 C 1.328125 -13.179688 1.597656 -14.945312 2.140625 -16.375 C 2.765625 -18.195312 3.796875 -19.648438 5.234375 -20.734375 C 6.679688 -21.816406 8.375 -22.359375 10.3125 -22.359375 C 12.414062 -22.359375 14.039062 -21.660156 15.1875 -20.265625 C 15.238281 -20.179688 15.300781 -20.15625 15.375 -20.1875 C 15.445312 -20.21875 15.484375 -20.289062 15.484375 -20.40625 Z M 14.578125 -6.75 C 15.148438 -7.8125 15.4375 -9.222656 15.4375 -10.984375 C 15.4375 -12.867188 15.140625 -14.335938 14.546875 -15.390625 C 13.828125 -16.503906 12.867188 -17.0625 11.671875 -17.0625 C 10.359375 -17.0625 9.363281 -16.519531 8.6875 -15.4375 C 8 -14.300781 7.65625 -12.804688 7.65625 -10.953125 C 7.65625 -9.265625 7.953125 -7.863281 8.546875 -6.75 C 9.234375 -5.53125 10.273438 -4.921875 11.671875 -4.921875 C 12.929688 -4.921875 13.898438 -5.53125 14.578125 -6.75 Z M 14.578125 -6.75 "/></g></g></g><g fill="#008037" fill-opacity="1"><g transform="translate(203.736267, 338.190355)"><g><path d="M 12.828125 -4.75 C 14.710938 -4.832031 16.15625 -5.488281 17.15625 -6.71875 C 17.320312 -6.914062 17.503906 -7.015625 17.703125 -7.015625 C 17.878906 -7.015625 18.035156 -6.941406 18.171875 -6.796875 L 20.609375 -4.453125 C 20.785156 -4.273438 20.875 -4.101562 20.875 -3.9375 C 20.875 -3.738281 20.816406 -3.566406 20.703125 -3.421875 C 19.753906 -2.253906 18.546875 -1.332031 17.078125 -0.65625 C 15.609375 0.0078125 14.007812 0.34375 12.28125 0.34375 C 9.65625 0.34375 7.476562 -0.320312 5.75 -1.65625 C 4.03125 -3 2.867188 -4.84375 2.265625 -7.1875 C 1.921875 -8.4375 1.75 -9.757812 1.75 -11.15625 C 1.75 -12.8125 1.90625 -14.210938 2.21875 -15.359375 C 2.789062 -17.460938 3.9375 -19.15625 5.65625 -20.4375 C 7.382812 -21.71875 9.429688 -22.359375 11.796875 -22.359375 C 14.597656 -22.359375 16.816406 -21.53125 18.453125 -19.875 C 20.085938 -18.226562 21.148438 -15.910156 21.640625 -12.921875 C 21.753906 -11.972656 21.835938 -10.929688 21.890625 -9.796875 C 21.890625 -9.304688 21.648438 -9.0625 21.171875 -9.0625 L 8.046875 -9.0625 C 7.867188 -9.0625 7.78125 -8.976562 7.78125 -8.8125 C 7.863281 -8.207031 7.960938 -7.765625 8.078125 -7.484375 C 8.367188 -6.597656 8.929688 -5.921875 9.765625 -5.453125 C 10.609375 -4.984375 11.628906 -4.75 12.828125 -4.75 Z M 11.71875 -17.15625 C 10.800781 -17.15625 10.035156 -16.929688 9.421875 -16.484375 C 8.816406 -16.046875 8.398438 -15.425781 8.171875 -14.625 C 8.023438 -14.082031 7.9375 -13.726562 7.90625 -13.5625 C 7.882812 -13.382812 7.957031 -13.296875 8.125 -13.296875 L 15.390625 -13.296875 C 15.535156 -13.296875 15.609375 -13.351562 15.609375 -13.46875 C 15.609375 -13.78125 15.550781 -14.109375 15.4375 -14.453125 C 15.175781 -15.273438 14.734375 -15.929688 14.109375 -16.421875 C 13.484375 -16.910156 12.6875 -17.15625 11.71875 -17.15625 Z M 11.71875 -17.15625 "/></g></g></g><g fill="#008037" fill-opacity="1"><g transform="translate(227.123174, 338.190355)"><g/></g></g><g fill="#008037" fill-opacity="1"><g transform="translate(235.674141, 338.190355)"><g><path d="M 13.125 0.34375 C 10.9375 0.34375 9 -0.0976562 7.3125 -0.984375 C 5.632812 -1.867188 4.332031 -3.101562 3.40625 -4.6875 C 2.476562 -6.269531 2.015625 -8.097656 2.015625 -10.171875 L 2.015625 -19.75 C 2.015625 -21.832031 2.476562 -23.671875 3.40625 -25.265625 C 4.332031 -26.867188 5.632812 -28.101562 7.3125 -28.96875 C 9 -29.84375 10.9375 -30.28125 13.125 -30.28125 C 15.289062 -30.28125 17.207031 -29.851562 18.875 -29 C 20.539062 -28.144531 21.835938 -26.984375 22.765625 -25.515625 C 23.691406 -24.046875 24.15625 -22.410156 24.15625 -20.609375 L 24.15625 -20.53125 C 24.15625 -20.039062 23.914062 -19.796875 23.4375 -19.796875 L 18.859375 -19.796875 C 18.628906 -19.796875 18.445312 -19.832031 18.3125 -19.90625 C 18.1875 -19.976562 18.125 -20.054688 18.125 -20.140625 L 18.125 -20.4375 C 18.125 -21.75 17.664062 -22.851562 16.75 -23.75 C 15.84375 -24.65625 14.632812 -25.109375 13.125 -25.109375 C 11.582031 -25.109375 10.347656 -24.628906 9.421875 -23.671875 C 8.503906 -22.710938 8.046875 -21.460938 8.046875 -19.921875 L 8.046875 -10 C 8.046875 -8.46875 8.539062 -7.222656 9.53125 -6.265625 C 10.53125 -5.304688 11.800781 -4.828125 13.34375 -4.828125 C 14.820312 -4.828125 16.003906 -5.21875 16.890625 -6 C 17.773438 -6.789062 18.21875 -7.882812 18.21875 -9.28125 L 18.21875 -11.15625 C 18.21875 -11.332031 18.132812 -11.421875 17.96875 -11.421875 L 13.421875 -11.421875 C 12.941406 -11.421875 12.703125 -11.660156 12.703125 -12.140625 L 12.703125 -15.65625 C 12.703125 -16.132812 12.941406 -16.375 13.421875 -16.375 L 23.4375 -16.375 C 23.914062 -16.375 24.15625 -16.132812 24.15625 -15.65625 L 24.15625 -10.21875 C 24.15625 -8.050781 23.695312 -6.171875 22.78125 -4.578125 C 21.875 -2.984375 20.585938 -1.765625 18.921875 -0.921875 C 17.253906 -0.078125 15.320312 0.34375 13.125 0.34375 Z M 13.125 0.34375 "/></g></g></g><g fill="#008037" fill-opacity="1"><g transform="translate(261.626343, 338.190355)"><g><path d="M 11.03125 -22.328125 C 12.882812 -22.328125 14.535156 -22.003906 15.984375 -21.359375 C 17.441406 -20.722656 18.578125 -19.847656 19.390625 -18.734375 C 20.203125 -17.617188 20.609375 -16.378906 20.609375 -15.015625 L 20.609375 -0.734375 C 20.609375 -0.242188 20.367188 0 19.890625 0 L 15.3125 0 C 14.820312 0 14.578125 -0.242188 14.578125 -0.734375 L 14.578125 -1.75 C 14.578125 -1.863281 14.546875 -1.925781 14.484375 -1.9375 C 14.429688 -1.957031 14.363281 -1.925781 14.28125 -1.84375 C 12.96875 -0.382812 11.015625 0.34375 8.421875 0.34375 C 6.222656 0.34375 4.453125 -0.195312 3.109375 -1.28125 C 1.773438 -2.363281 1.109375 -3.960938 1.109375 -6.078125 C 1.109375 -8.265625 1.878906 -9.960938 3.421875 -11.171875 C 4.960938 -12.390625 7.15625 -13 10 -13 L 14.328125 -13 C 14.492188 -13 14.578125 -13.082031 14.578125 -13.25 L 14.578125 -14.15625 C 14.578125 -15.09375 14.285156 -15.828125 13.703125 -16.359375 C 13.117188 -16.890625 12.269531 -17.15625 11.15625 -17.15625 C 10.300781 -17.15625 9.597656 -17.007812 9.046875 -16.71875 C 8.492188 -16.4375 8.113281 -16.039062 7.90625 -15.53125 C 7.738281 -15.125 7.457031 -14.9375 7.0625 -14.96875 L 2.3125 -15.5625 C 2.082031 -15.59375 1.898438 -15.65625 1.765625 -15.75 C 1.640625 -15.851562 1.59375 -15.992188 1.625 -16.171875 C 1.769531 -17.335938 2.257812 -18.390625 3.09375 -19.328125 C 3.9375 -20.265625 5.050781 -21 6.4375 -21.53125 C 7.820312 -22.0625 9.351562 -22.328125 11.03125 -22.328125 Z M 10.171875 -4.140625 C 11.398438 -4.140625 12.441406 -4.46875 13.296875 -5.125 C 14.148438 -5.78125 14.578125 -6.625 14.578125 -7.65625 L 14.578125 -9.15625 C 14.578125 -9.320312 14.492188 -9.40625 14.328125 -9.40625 L 11.296875 -9.40625 C 10.003906 -9.40625 8.988281 -9.160156 8.25 -8.671875 C 7.507812 -8.191406 7.140625 -7.507812 7.140625 -6.625 C 7.140625 -5.851562 7.414062 -5.242188 7.96875 -4.796875 C 8.53125 -4.359375 9.265625 -4.140625 10.171875 -4.140625 Z M 10.171875 -4.140625 "/></g></g></g><g fill="#008037" fill-opacity="1"><g transform="translate(284.200926, 338.190355)"><g><path d="M 10.984375 0.296875 C 9.078125 0.296875 7.410156 0.0234375 5.984375 -0.515625 C 4.554688 -1.054688 3.457031 -1.8125 2.6875 -2.78125 C 1.925781 -3.75 1.546875 -4.847656 1.546875 -6.078125 L 1.546875 -6.28125 C 1.546875 -6.769531 1.785156 -7.015625 2.265625 -7.015625 L 6.578125 -7.015625 C 7.066406 -7.015625 7.3125 -6.925781 7.3125 -6.75 L 7.3125 -6.453125 C 7.3125 -5.828125 7.648438 -5.289062 8.328125 -4.84375 C 9.015625 -4.40625 9.890625 -4.1875 10.953125 -4.1875 C 11.921875 -4.1875 12.703125 -4.367188 13.296875 -4.734375 C 13.898438 -5.109375 14.203125 -5.597656 14.203125 -6.203125 C 14.203125 -6.710938 13.941406 -7.09375 13.421875 -7.34375 C 12.910156 -7.601562 12.070312 -7.878906 10.90625 -8.171875 C 9.507812 -8.535156 8.46875 -8.863281 7.78125 -9.15625 C 5.925781 -9.78125 4.457031 -10.546875 3.375 -11.453125 C 2.289062 -12.367188 1.75 -13.679688 1.75 -15.390625 C 1.75 -17.503906 2.578125 -19.179688 4.234375 -20.421875 C 5.890625 -21.660156 8.054688 -22.28125 10.734375 -22.28125 C 12.554688 -22.28125 14.160156 -21.988281 15.546875 -21.40625 C 16.929688 -20.820312 18 -20 18.75 -18.9375 C 19.507812 -17.882812 19.890625 -16.691406 19.890625 -15.359375 C 19.890625 -15.210938 19.820312 -15.085938 19.6875 -14.984375 C 19.5625 -14.890625 19.382812 -14.84375 19.15625 -14.84375 L 14.96875 -14.84375 C 14.476562 -14.84375 14.234375 -14.925781 14.234375 -15.09375 L 14.234375 -15.359375 C 14.234375 -15.984375 13.921875 -16.507812 13.296875 -16.9375 C 12.671875 -17.363281 11.832031 -17.578125 10.78125 -17.578125 C 9.832031 -17.578125 9.050781 -17.40625 8.4375 -17.0625 C 7.832031 -16.71875 7.53125 -16.25 7.53125 -15.65625 C 7.53125 -15.082031 7.820312 -14.648438 8.40625 -14.359375 C 8.988281 -14.078125 9.953125 -13.78125 11.296875 -13.46875 C 12.117188 -13.300781 12.914062 -13.085938 13.6875 -12.828125 C 15.738281 -12.234375 17.347656 -11.460938 18.515625 -10.515625 C 19.679688 -9.578125 20.265625 -8.210938 20.265625 -6.421875 C 20.265625 -4.304688 19.421875 -2.65625 17.734375 -1.46875 C 16.054688 -0.289062 13.804688 0.296875 10.984375 0.296875 Z M 10.984375 0.296875 "/></g></g></g><g fill="#008037" fill-opacity="1"><g transform="translate(305.706628, 338.190355)"><g><path d="M 14.84375 -17.875 C 14.84375 -17.394531 14.597656 -17.15625 14.109375 -17.15625 L 10.265625 -17.15625 C 10.085938 -17.15625 10 -17.066406 10 -16.890625 L 10 -8.046875 C 10 -7.097656 10.191406 -6.398438 10.578125 -5.953125 C 10.960938 -5.515625 11.582031 -5.296875 12.4375 -5.296875 L 13.640625 -5.296875 C 14.128906 -5.296875 14.375 -5.054688 14.375 -4.578125 L 14.375 -0.890625 C 14.375 -0.441406 14.128906 -0.1875 13.640625 -0.125 C 12.554688 -0.0703125 11.773438 -0.046875 11.296875 -0.046875 C 8.921875 -0.046875 7.148438 -0.441406 5.984375 -1.234375 C 4.816406 -2.035156 4.21875 -3.519531 4.1875 -5.6875 L 4.1875 -16.890625 C 4.1875 -17.066406 4.101562 -17.15625 3.9375 -17.15625 L 1.75 -17.15625 C 1.269531 -17.15625 1.03125 -17.394531 1.03125 -17.875 L 1.03125 -21.25 C 1.03125 -21.738281 1.269531 -21.984375 1.75 -21.984375 L 3.9375 -21.984375 C 4.101562 -21.984375 4.1875 -22.066406 4.1875 -22.234375 L 4.1875 -27.078125 C 4.1875 -27.554688 4.429688 -27.796875 4.921875 -27.796875 L 9.28125 -27.796875 C 9.757812 -27.796875 10 -27.554688 10 -27.078125 L 10 -22.234375 C 10 -22.066406 10.085938 -21.984375 10.265625 -21.984375 L 14.109375 -21.984375 C 14.597656 -21.984375 14.84375 -21.738281 14.84375 -21.25 Z M 14.84375 -17.875 "/></g></g></g><g fill="#008037" fill-opacity="1"><g transform="translate(321.953493, 338.190355)"><g><path d="M 11.96875 0.34375 C 9.550781 0.34375 7.484375 -0.28125 5.765625 -1.53125 C 4.054688 -2.789062 2.890625 -4.503906 2.265625 -6.671875 C 1.867188 -8.015625 1.671875 -9.46875 1.671875 -11.03125 C 1.671875 -12.769531 1.882812 -14.28125 2.3125 -15.5625 C 2.96875 -17.675781 4.140625 -19.332031 5.828125 -20.53125 C 7.523438 -21.726562 9.585938 -22.328125 12.015625 -22.328125 C 14.359375 -22.328125 16.363281 -21.726562 18.03125 -20.53125 C 19.695312 -19.332031 20.859375 -17.691406 21.515625 -15.609375 C 21.941406 -14.296875 22.15625 -12.800781 22.15625 -11.125 C 22.15625 -9.632812 21.96875 -8.191406 21.59375 -6.796875 C 20.9375 -4.578125 19.757812 -2.832031 18.0625 -1.5625 C 16.375 -0.289062 14.34375 0.34375 11.96875 0.34375 Z M 11.96875 -4.828125 C 12.882812 -4.828125 13.671875 -5.113281 14.328125 -5.6875 C 14.984375 -6.257812 15.453125 -7.046875 15.734375 -8.046875 C 15.960938 -8.804688 16.078125 -9.800781 16.078125 -11.03125 C 16.078125 -12.226562 15.960938 -13.238281 15.734375 -14.0625 C 15.453125 -15.039062 14.984375 -15.800781 14.328125 -16.34375 C 13.671875 -16.882812 12.859375 -17.15625 11.890625 -17.15625 C 10.953125 -17.15625 10.15625 -16.882812 9.5 -16.34375 C 8.84375 -15.800781 8.367188 -15.039062 8.078125 -14.0625 C 7.847656 -13.238281 7.734375 -12.226562 7.734375 -11.03125 C 7.734375 -9.863281 7.847656 -8.867188 8.078125 -8.046875 C 8.367188 -7.046875 8.847656 -6.257812 9.515625 -5.6875 C 10.179688 -5.113281 11 -4.828125 11.96875 -4.828125 Z M 11.96875 -4.828125 "/></g></g></g><g fill="#008037" fill-opacity="1"><g transform="translate(345.767959, 338.190355)"><g><path d="M 10.984375 0.296875 C 9.078125 0.296875 7.410156 0.0234375 5.984375 -0.515625 C 4.554688 -1.054688 3.457031 -1.8125 2.6875 -2.78125 C 1.925781 -3.75 1.546875 -4.847656 1.546875 -6.078125 L 1.546875 -6.28125 C 1.546875 -6.769531 1.785156 -7.015625 2.265625 -7.015625 L 6.578125 -7.015625 C 7.066406 -7.015625 7.3125 -6.925781 7.3125 -6.75 L 7.3125 -6.453125 C 7.3125 -5.828125 7.648438 -5.289062 8.328125 -4.84375 C 9.015625 -4.40625 9.890625 -4.1875 10.953125 -4.1875 C 11.921875 -4.1875 12.703125 -4.367188 13.296875 -4.734375 C 13.898438 -5.109375 14.203125 -5.597656 14.203125 -6.203125 C 14.203125 -6.710938 13.941406 -7.09375 13.421875 -7.34375 C 12.910156 -7.601562 12.070312 -7.878906 10.90625 -8.171875 C 9.507812 -8.535156 8.46875 -8.863281 7.78125 -9.15625 C 5.925781 -9.78125 4.457031 -10.546875 3.375 -11.453125 C 2.289062 -12.367188 1.75 -13.679688 1.75 -15.390625 C 1.75 -17.503906 2.578125 -19.179688 4.234375 -20.421875 C 5.890625 -21.660156 8.054688 -22.28125 10.734375 -22.28125 C 12.554688 -22.28125 14.160156 -21.988281 15.546875 -21.40625 C 16.929688 -20.820312 18 -20 18.75 -18.9375 C 19.507812 -17.882812 19.890625 -16.691406 19.890625 -15.359375 C 19.890625 -15.210938 19.820312 -15.085938 19.6875 -14.984375 C 19.5625 -14.890625 19.382812 -14.84375 19.15625 -14.84375 L 14.96875 -14.84375 C 14.476562 -14.84375 14.234375 -14.925781 14.234375 -15.09375 L 14.234375 -15.359375 C 14.234375 -15.984375 13.921875 -16.507812 13.296875 -16.9375 C 12.671875 -17.363281 11.832031 -17.578125 10.78125 -17.578125 C 9.832031 -17.578125 9.050781 -17.40625 8.4375 -17.0625 C 7.832031 -16.71875 7.53125 -16.25 7.53125 -15.65625 C 7.53125 -15.082031 7.820312 -14.648438 8.40625 -14.359375 C 8.988281 -14.078125 9.953125 -13.78125 11.296875 -13.46875 C 12.117188 -13.300781 12.914062 -13.085938 13.6875 -12.828125 C 15.738281 -12.234375 17.347656 -11.460938 18.515625 -10.515625 C 19.679688 -9.578125 20.265625 -8.210938 20.265625 -6.421875 C 20.265625 -4.304688 19.421875 -2.65625 17.734375 -1.46875 C 16.054688 -0.289062 13.804688 0.296875 10.984375 0.296875 Z M 10.984375 0.296875 "/></g></g></g></svg>