<svg xmlns="http://www.w3.org/2000/svg" xmlns:xlink="http://www.w3.org/1999/xlink" width="400" zoomAndPan="magnify" viewBox="0 0 300 299.999988" height="400" preserveAspectRatio="xMidYMid meet" version="1.0"><defs><g/><clipPath id="893b775a44"><path d="M 190 36.417969 L 251 36.417969 L 251 76 L 190 76 Z M 190 36.417969 " clip-rule="nonzero"/></clipPath><clipPath id="e56bfa06db"><path d="M 256 76 L 270.855469 76 L 270.855469 103 L 256 103 Z M 256 76 " clip-rule="nonzero"/></clipPath><clipPath id="aba99d6f26"><path d="M 29.355469 105 L 44 105 L 44 131 L 29.355469 131 Z M 29.355469 105 " clip-rule="nonzero"/></clipPath><clipPath id="0e52594921"><path d="M 51 194 L 247 194 L 247 214.167969 L 51 214.167969 Z M 51 194 " clip-rule="nonzero"/></clipPath></defs><g clip-path="url(#893b775a44)"><path fill="#008037" d="M 244.285156 46.46875 C 243.660156 50.84375 243.414062 55.175781 243.523438 59.425781 C 245.492188 58.519531 247.453125 57.597656 249.394531 56.652344 C 248.878906 50.257812 249.082031 43.53125 250.105469 36.425781 C 231.570312 52.488281 212.285156 66.398438 190.933594 74.367188 C 191.238281 74.8125 191.496094 75.289062 191.730469 75.789062 C 207.863281 69.765625 230.28125 58.605469 244.285156 46.46875 Z M 244.285156 46.46875 " fill-opacity="1" fill-rule="evenodd"/></g><g clip-path="url(#e56bfa06db)"><path fill="#008037" d="M 260.042969 83.492188 C 258.597656 85.453125 257.253906 87.457031 256.007812 89.488281 C 256.125 93.71875 256.554688 97.929688 257.277344 102.117188 C 260.273438 93.59375 264.707031 85.152344 270.855469 76.8125 C 265.980469 77.910156 261.121094 78.921875 256.277344 79.824219 C 256.152344 81.324219 256.066406 82.816406 256.015625 84.308594 C 257.390625 84.058594 258.734375 83.785156 260.042969 83.492188 Z M 260.042969 83.492188 " fill-opacity="1" fill-rule="evenodd"/></g><path fill="#008037" d="M 189.214844 79.574219 C 189.097656 78.980469 188.933594 78.410156 188.722656 77.859375 C 213.484375 74.742188 237.53125 64.773438 261.328125 52.332031 C 249.347656 82.796875 254.136719 109.824219 267.234375 135.148438 L 197.425781 119.726562 C 197.945312 118.515625 198.351562 117.234375 198.675781 115.917969 L 255.375 128 C 245.480469 108.867188 243.550781 84.589844 252.597656 61.570312 C 234.625 70.972656 207.921875 77.222656 189.214844 79.578125 Z M 189.214844 79.574219 " fill-opacity="1" fill-rule="evenodd"/><path fill="#008037" d="M 245.570312 119.933594 C 245.5 119.722656 245.429688 119.511719 245.355469 119.296875 C 245.429688 119.507812 245.5 119.722656 245.570312 119.933594 Z M 245.570312 119.933594 " fill-opacity="1" fill-rule="evenodd"/><path fill="#008037" d="M 242.167969 77.429688 L 242.289062 76.71875 C 242.25 76.953125 242.210938 77.191406 242.167969 77.429688 Z M 242.167969 77.429688 " fill-opacity="1" fill-rule="evenodd"/><path fill="#008037" d="M 242.578125 75.164062 C 242.625 74.929688 242.671875 74.695312 242.714844 74.464844 C 242.671875 74.699219 242.625 74.929688 242.578125 75.164062 Z M 242.578125 75.164062 " fill-opacity="1" fill-rule="evenodd"/><path fill="#008037" d="M 242.722656 74.445312 C 242.769531 74.210938 242.816406 73.976562 242.867188 73.746094 Z M 242.722656 74.445312 " fill-opacity="1" fill-rule="evenodd"/><path fill="#008037" d="M 242.886719 73.65625 C 242.933594 73.445312 242.976562 73.234375 243.023438 73.023438 C 242.976562 73.234375 242.929688 73.445312 242.886719 73.65625 Z M 242.886719 73.65625 " fill-opacity="1" fill-rule="evenodd"/><path fill="#008037" d="M 243.042969 72.933594 C 243.097656 72.695312 243.148438 72.457031 243.203125 72.21875 C 243.148438 72.457031 243.097656 72.695312 243.042969 72.933594 Z M 243.042969 72.933594 " fill-opacity="1" fill-rule="evenodd"/><path fill="#008037" d="M 239.558594 57.902344 C 239.5625 58.996094 239.59375 60.085938 239.640625 61.175781 C 238.179688 61.824219 236.710938 62.460938 235.234375 63.082031 C 235.058594 63.003906 234.886719 62.914062 234.726562 62.8125 C 234.070312 62.40625 233.550781 61.851562 233.191406 61.222656 C 228.949219 63.925781 224.480469 66.507812 219.933594 68.917969 C 217.265625 69.824219 214.585938 70.667969 211.886719 71.449219 C 214.886719 69.996094 217.847656 68.480469 220.757812 66.90625 C 226.464844 63.824219 232.058594 60.472656 237.382812 56.773438 L 239.542969 55.273438 L 239.558594 57.898438 Z M 239.558594 57.902344 " fill-opacity="1" fill-rule="evenodd"/><path fill="#008037" d="M 56.308594 70.667969 C 56.59375 73.011719 56.769531 75.363281 56.839844 77.710938 L 58.296875 77.960938 C 58.269531 76.988281 58.226562 76.011719 58.164062 75.042969 C 58.996094 75.007812 59.828125 74.761719 60.582031 74.273438 C 61.292969 73.816406 61.847656 73.203125 62.21875 72.507812 L 84.226562 82.421875 L 89.929688 83.402344 L 56 68.117188 L 56.308594 70.664062 Z M 56.308594 70.667969 " fill-opacity="1" fill-rule="evenodd"/><path fill="#008037" d="M 44.585938 75.605469 C 44.140625 67.714844 42.734375 59.808594 40.597656 51.902344 L 101.949219 80.097656 L 102.675781 80.433594 C 101.945312 81.460938 101.3125 82.574219 100.742188 83.738281 L 99.128906 83.011719 L 50.226562 60.980469 C 51.621094 66.140625 52.445312 71.519531 52.667969 76.996094 Z M 44.585938 75.605469 " fill-opacity="1" fill-rule="evenodd"/><g clip-path="url(#aba99d6f26)"><path fill="#008037" d="M 39.375 123.589844 C 40.667969 121.652344 41.863281 119.679688 42.960938 117.683594 C 42.65625 113.648438 42.058594 109.648438 41.179688 105.683594 C 38.703125 113.957031 34.847656 122.210938 29.355469 130.449219 C 33.957031 129.183594 38.554688 128 43.136719 126.925781 C 43.1875 125.488281 43.203125 124.054688 43.183594 122.628906 C 41.882812 122.929688 40.613281 123.25 39.375 123.589844 Z M 39.375 123.589844 " fill-opacity="1" fill-rule="evenodd"/></g><path fill="#008037" d="M 97.160156 126.148438 L 97.214844 128.019531 C 77.476562 133.074219 58.386719 142.382812 39.554688 153.394531 C 49.617188 123.769531 43.832031 98.183594 30.1875 74.597656 L 97.523438 86.179688 C 97.082031 87.363281 96.753906 88.601562 96.503906 89.875 L 41.832031 80.894531 C 52.136719 98.714844 55.074219 121.804688 47.46875 144.1875 C 61.253906 136.125 80.78125 129.84375 97.160156 126.152344 Z M 97.160156 126.148438 " fill-opacity="1" fill-rule="evenodd"/><path fill="#008037" d="M 54.535156 133.335938 C 57.238281 118.367188 55.871094 102.824219 50.207031 88.6875 L 49.25 86.300781 L 97.332031 94.199219 L 97.203125 95.546875 C 97.085938 96.796875 96.980469 98.046875 96.851562 99.296875 C 96.609375 101.628906 96.492188 104.042969 96.566406 106.382812 C 96.574219 106.695312 96.597656 107.183594 96.640625 107.761719 L 96.820312 114.164062 C 94.585938 111.023438 95.027344 102.839844 95.410156 99.144531 C 95.539062 97.921875 95.644531 96.667969 95.761719 95.40625 L 51.550781 88.148438 L 56.386719 88.941406 C 56.207031 89.707031 55.832031 90.445312 55.257812 91.070312 C 54.660156 91.730469 53.914062 92.1875 53.125 92.429688 C 57.007812 104.03125 58.171875 116.402344 56.71875 128.558594 L 56.777344 128.035156 C 58.074219 127.890625 59.417969 128.277344 60.453125 129.214844 C 61.050781 129.761719 61.472656 130.425781 61.71875 131.144531 L 61.261719 131.332031 C 72.710938 126.679688 85.367188 122.992188 97 120.453125 L 97.039062 121.921875 C 89.804688 123.503906 82.613281 125.441406 75.605469 127.691406 C 69.148438 129.765625 62.742188 132.136719 56.554688 134.914062 L 54.046875 136.042969 Z M 54.535156 133.335938 " fill-opacity="1" fill-rule="evenodd"/><path fill="#008037" d="M 51.550781 88.148438 C 51.628906 88.347656 51.710938 88.542969 51.785156 88.746094 C 51.707031 88.546875 51.628906 88.347656 51.550781 88.148438 Z M 51.550781 88.148438 " fill-opacity="1" fill-rule="evenodd"/><path fill="#008037" d="M 56.714844 128.570312 L 56.632812 129.253906 C 56.660156 129.027344 56.6875 128.800781 56.714844 128.570312 Z M 56.714844 128.570312 " fill-opacity="1" fill-rule="evenodd"/><path fill="#008037" d="M 56.425781 130.753906 C 56.390625 130.976562 56.359375 131.203125 56.324219 131.425781 C 56.355469 131.203125 56.390625 130.976562 56.425781 130.753906 Z M 56.425781 130.753906 " fill-opacity="1" fill-rule="evenodd"/><path fill="#008037" d="M 56.320312 131.445312 C 56.285156 131.671875 56.246094 131.894531 56.210938 132.121094 Z M 56.320312 131.445312 " fill-opacity="1" fill-rule="evenodd"/><path fill="#008037" d="M 56.199219 132.207031 C 56.167969 132.40625 56.128906 132.613281 56.097656 132.8125 C 56.128906 132.613281 56.164062 132.40625 56.199219 132.207031 Z M 56.199219 132.207031 " fill-opacity="1" fill-rule="evenodd"/><path fill="#008037" d="M 56.082031 132.902344 C 56.042969 133.132812 56 133.363281 55.960938 133.59375 C 56 133.363281 56.042969 133.132812 56.082031 132.902344 Z M 56.082031 132.902344 " fill-opacity="1" fill-rule="evenodd"/><path fill="#deef75" d="M 145.746094 70.484375 L 145.746094 70.078125 C 145.746094 68.667969 146.230469 67.367188 147.042969 66.332031 C 148.160156 64.898438 149.902344 63.972656 151.855469 63.972656 L 160.375 63.972656 C 163.730469 63.972656 166.476562 66.71875 166.476562 70.078125 L 166.476562 126.660156 C 166.476562 127.171875 166.417969 127.664062 166.296875 128.140625 L 145.929688 128.140625 C 145.808594 127.664062 145.746094 127.171875 145.746094 126.660156 L 145.746094 126.257812 C 145.746094 112.636719 145.746094 84.148438 145.746094 70.484375 Z M 190.296875 90.136719 L 188.367188 119.441406 C 188.101562 119.835938 187.414062 120.496094 187.167969 120.730469 C 185.96875 121.871094 184.753906 122.953125 183.601562 124.148438 C 181.484375 126.339844 179.210938 128.140625 176.023438 128.140625 L 171.175781 128.140625 C 171.0625 128.023438 170.957031 127.898438 170.859375 127.769531 C 170.050781 126.734375 169.566406 125.429688 169.566406 124.019531 L 169.566406 73.738281 C 169.566406 72.328125 170.046875 71.027344 170.859375 69.996094 C 171.976562 68.5625 173.722656 67.636719 175.671875 67.636719 L 184.191406 67.636719 C 187.550781 67.636719 190.300781 70.382812 190.300781 73.742188 L 190.300781 90.140625 Z M 142.574219 125.257812 L 142.574219 125.3125 C 142.574219 126.332031 142.320312 127.292969 141.875 128.140625 L 139.050781 128.140625 C 136.941406 128.140625 134.910156 128.871094 133.449219 130.433594 C 133.160156 130.746094 132.902344 131.074219 132.683594 131.417969 L 127.949219 131.417969 C 126 131.417969 124.253906 130.496094 123.136719 129.058594 C 122.328125 128.027344 121.84375 126.722656 121.84375 125.3125 L 121.84375 75.03125 C 121.84375 73.621094 122.328125 72.320312 123.136719 71.285156 C 124.253906 69.851562 126 68.925781 127.949219 68.925781 L 136.46875 68.925781 C 139.828125 68.925781 142.574219 71.671875 142.574219 75.03125 Z M 191.945312 115.613281 L 193.464844 116.386719 C 193.566406 116.074219 193.660156 115.757812 193.746094 115.441406 L 192.535156 115.183594 L 193.382812 109.261719 C 193.570312 107.945312 193.742188 106.628906 193.945312 105.316406 C 194.28125 103.09375 194.5 100.828125 194.535156 98.578125 C 194.550781 97.753906 194.511719 95.925781 194.308594 94.695312 L 193.183594 94.285156 L 191.757812 115.953125 Z M 170.28125 152.023438 C 191.476562 152.023438 194.445312 148.796875 204.316406 137.488281 L 189.511719 129.820312 L 184.808594 127.382812 C 183.371094 128.726562 181.832031 129.84375 180.074219 130.535156 L 180.042969 130.546875 L 179.742188 130.65625 L 179.601562 130.707031 L 179.582031 130.714844 L 179.441406 130.761719 L 179.414062 130.769531 L 179.273438 130.8125 L 179.25 130.816406 L 179.105469 130.859375 L 179.082031 130.867188 L 178.9375 130.910156 L 178.917969 130.914062 L 178.746094 130.957031 L 178.59375 130.996094 L 178.574219 131 L 178.417969 131.035156 L 178.402344 131.039062 L 178.324219 131.054688 L 178.050781 131.105469 L 177.890625 131.132812 L 177.871094 131.136719 L 177.710938 131.164062 L 177.695312 131.164062 L 177.527344 131.1875 L 177.519531 131.1875 L 177.34375 131.210938 L 177.335938 131.210938 L 177.164062 131.230469 L 177.152344 131.234375 L 176.976562 131.246094 L 176.96875 131.246094 L 176.78125 131.261719 L 176.597656 131.273438 L 176.410156 131.28125 L 176.21875 131.285156 L 176.027344 131.285156 C 176.027344 131.292969 164.144531 131.285156 163.121094 131.285156 L 148.113281 131.285156 C 143.382812 131.285156 133.773438 129.207031 134.875 136.820312 C 135.339844 140.035156 137.292969 143.839844 138.007812 145.914062 C 139.167969 149.269531 142.863281 152.019531 146.222656 152.019531 L 170.285156 152.019531 Z M 176.214844 131.289062 Z M 176.40625 131.285156 Z M 176.789062 131.265625 Z M 179.742188 130.65625 Z M 98.886719 119.523438 L 98.886719 87.550781 L 98.914062 87.484375 L 98.886719 87.476562 L 98.886719 82.625 C 98.886719 81.214844 99.371094 79.914062 100.179688 78.875 C 101.296875 77.445312 103.042969 76.515625 104.992188 76.515625 L 113.511719 76.515625 C 116.867188 76.515625 119.617188 79.265625 119.617188 82.625 L 119.617188 124.449219 C 119.617188 127.808594 116.867188 130.554688 113.511719 130.554688 L 104.992188 130.554688 C 103.042969 130.554688 101.296875 129.632812 100.179688 128.195312 C 99.371094 127.160156 98.886719 125.859375 98.886719 124.449219 L 98.886719 119.597656 L 98.914062 119.589844 Z M 98.886719 119.523438 " fill-opacity="1" fill-rule="evenodd"/><path fill="#deef75" d="M 196.289062 148.480469 C 195.28125 149.347656 194.214844 150.152344 193.078125 150.863281 C 186.265625 155.113281 177.066406 155.257812 169.292969 155.257812 L 146.347656 155.257812 C 143.917969 155.257812 141.492188 154.273438 139.523438 152.703125 C 137.769531 151.304688 136.378906 149.445312 135.675781 147.417969 C 135.046875 145.589844 134.167969 143.824219 133.523438 141.964844 C 133.101562 140.746094 132.742188 139.476562 132.554688 138.195312 C 132.429688 137.324219 132.40625 136.453125 132.507812 135.617188 L 128.933594 135.617188 C 126.207031 135.617188 123.648438 134.351562 121.976562 132.210938 L 121.722656 131.867188 C 120.105469 133.664062 117.765625 134.792969 115.167969 134.792969 L 107.046875 134.792969 C 105.4375 134.792969 103.886719 134.355469 102.542969 133.554688 C 102.542969 150.113281 107.199219 163.144531 122.296875 166.925781 C 121.964844 166.84375 125.523438 175.5625 125.992188 177.097656 C 127.222656 181.117188 128.285156 185.847656 129.09375 191.46875 L 170.542969 191.46875 C 171.347656 185.847656 172.410156 181.117188 173.640625 177.097656 C 174.980469 172.734375 176.515625 169.207031 178.144531 166.277344 C 177.613281 166.417969 196.292969 160.988281 196.292969 148.480469 Z M 188.414062 193.570312 L 182.996094 183.265625 C 182.296875 185.851562 181.6875 188.589844 181.085938 191.609375 L 180.910156 192.480469 C 183.410156 192.800781 185.914062 193.167969 188.410156 193.570312 Z M 172.429688 189.09375 C 172.296875 189.898438 172.175781 190.699219 172.054688 191.503906 L 173.253906 191.613281 C 174.929688 191.777344 176.609375 191.957031 178.28125 192.15625 L 178.160156 191.730469 C 176.90625 187.375 177.96875 182.398438 179.996094 177.550781 L 179.070312 175.796875 L 177.066406 171.984375 C 176.3125 173.796875 175.65625 175.65625 175.082031 177.535156 C 173.925781 181.308594 173.078125 185.191406 172.429688 189.09375 Z M 172.429688 189.09375 " fill-opacity="1" fill-rule="evenodd"/><path fill="#008037" d="M 179.609375 191.316406 C 181.191406 183.359375 182.78125 175.105469 190.222656 163 C 184.675781 171.023438 177.128906 182.703125 179.609375 191.316406 Z M 112.023438 184.859375 C 110.84375 178.925781 109.660156 172.777344 104.109375 163.753906 C 108.246094 169.730469 113.871094 178.441406 112.023438 184.859375 Z M 120.085938 191.316406 C 122.5625 182.703125 115.015625 171.023438 109.472656 163 C 116.914062 175.105469 118.5 183.359375 120.085938 191.316406 Z M 187.667969 184.859375 C 185.824219 178.441406 191.445312 169.730469 195.582031 163.753906 C 190.03125 172.777344 188.851562 178.925781 187.667969 184.859375 Z M 187.667969 184.859375 " fill-opacity="1" fill-rule="evenodd"/><path fill="#008037" d="M 180.019531 191.113281 L 179.671875 192.863281 L 179.253906 191.414062 C 177.988281 187.011719 179.269531 181.855469 181.570312 176.785156 C 183.847656 171.769531 187.125 166.835938 189.90625 162.816406 L 189.921875 162.796875 L 190.53125 163.195312 C 183.210938 175.101562 181.582031 183.273438 180.019531 191.113281 Z M 179.601562 189.476562 C 180.707031 184.003906 182.011719 178.269531 185.363281 171.152344 C 184.226562 173.082031 183.152344 175.078125 182.238281 177.085938 C 180.304688 181.351562 179.105469 185.664062 179.601562 189.476562 Z M 111.664062 184.929688 L 111.625 184.730469 C 110.464844 178.890625 109.25 172.8125 103.800781 163.945312 L 104.414062 163.546875 L 104.425781 163.570312 C 106.5 166.566406 108.945312 170.246094 110.644531 173.992188 C 112.371094 177.789062 113.328125 181.652344 112.378906 184.957031 L 111.960938 186.40625 Z M 108.628906 171.597656 C 110.4375 175.84375 111.292969 179.433594 111.996094 182.859375 C 112.171875 180.191406 111.3125 177.230469 109.976562 174.289062 C 109.566406 173.386719 109.113281 172.488281 108.628906 171.597656 Z M 120.089844 189.476562 C 120.589844 185.664062 119.390625 181.351562 117.453125 177.085938 C 116.542969 175.082031 115.472656 173.089844 114.332031 171.160156 C 117.683594 178.273438 118.988281 184.003906 120.089844 189.476562 Z M 118.121094 176.785156 C 120.421875 181.855469 121.703125 187.011719 120.4375 191.414062 L 120.019531 192.863281 L 119.671875 191.125 C 118.113281 183.28125 116.484375 175.109375 109.15625 163.191406 L 109.769531 162.792969 L 109.785156 162.816406 C 112.5625 166.835938 115.839844 171.769531 118.117188 176.785156 Z M 187.316406 184.960938 C 186.367188 181.652344 187.324219 177.789062 189.046875 173.992188 C 190.746094 170.25 193.191406 166.570312 195.265625 163.570312 L 195.277344 163.546875 L 195.890625 163.945312 C 190.441406 172.8125 189.230469 178.890625 188.066406 184.730469 L 187.734375 186.40625 Z M 189.714844 174.292969 C 188.378906 177.230469 187.519531 180.195312 187.695312 182.859375 C 188.398438 179.433594 189.253906 175.84375 191.0625 171.601562 C 190.578125 172.488281 190.125 173.386719 189.714844 174.289062 Z M 189.714844 174.292969 " fill-opacity="1" fill-rule="evenodd"/><g clip-path="url(#0e52594921)"><path fill="#008037" d="M 246.292969 214.160156 C 180.988281 199.898438 116.378906 199.902344 51.695312 214.160156 C 115.632812 188.59375 180.40625 186.082031 246.292969 214.160156 Z M 246.292969 214.160156 " fill-opacity="1" fill-rule="evenodd"/></g><path fill="#008037" d="M 199.722656 110.167969 L 240.554688 118.863281 C 240.785156 118.074219 241.210938 117.320312 241.839844 116.695312 C 242.503906 116.035156 243.300781 115.59375 244.140625 115.375 C 240.699219 103.238281 240.058594 90.445312 242.074219 77.984375 C 240.710938 78.074219 239.328125 77.605469 238.292969 76.574219 C 237.695312 75.972656 237.285156 75.257812 237.0625 74.492188 L 237.539062 74.324219 C 222.160156 79.742188 204.84375 83.46875 190.296875 85.324219 L 190.296875 87.226562 C 191.359375 87.132812 192.292969 87.148438 193.699219 87.65625 L 198.054688 89.242188 C 202.039062 90.691406 200.960938 101.75 200.273438 106.273438 C 200.082031 107.546875 199.910156 108.855469 199.722656 110.164062 Z M 221.976562 102.101562 C 218.429688 102.441406 215.277344 99.839844 214.9375 96.289062 C 214.601562 92.742188 217.207031 89.585938 220.753906 89.25 C 225.070312 88.839844 228.503906 92.722656 227.703125 96.898438 C 227.175781 99.640625 224.894531 101.824219 221.972656 102.101562 Z M 221.976562 102.101562 " fill-opacity="1" fill-rule="evenodd"/><path fill="#008037" d="M 221.210938 95.929688 L 221.398438 99.261719 C 219.730469 99.339844 219.699219 97.683594 219.648438 97.5625 C 219.628906 97.511719 219.449219 97.382812 219.441406 97.796875 C 219.433594 98.117188 219.382812 99.386719 219.554688 99.527344 C 219.886719 99.796875 220.945312 99.816406 221.425781 99.785156 L 221.5 101.128906 L 222.222656 101.089844 L 222.144531 99.664062 C 224.164062 99.09375 224.617188 96.792969 222.875 95.257812 L 221.859375 94.503906 L 221.707031 91.671875 C 223.144531 91.617188 223.222656 92.945312 223.253906 92.996094 C 223.273438 93.03125 223.46875 93.175781 223.4375 92.703125 L 223.367188 91.304688 L 221.675781 91.167969 L 221.605469 89.820312 L 220.882812 89.863281 L 220.960938 91.296875 C 219.132812 91.859375 218.828125 93.789062 220.292969 95.195312 C 220.519531 95.414062 220.800781 95.640625 221.132812 95.871094 Z M 220.988281 91.851562 L 221.105469 93.960938 C 220.246094 93.253906 220.164062 92.34375 220.988281 91.851562 Z M 221.964844 96.46875 C 223.066406 97.355469 223.121094 98.585938 222.109375 99.09375 Z M 221.964844 96.46875 " fill-opacity="1" fill-rule="evenodd"/><path fill="#008037" d="M 77.085938 110.113281 L 77.308594 114.128906 C 75.296875 114.222656 75.261719 112.226562 75.199219 112.082031 C 75.175781 112.023438 74.960938 111.863281 74.949219 112.363281 C 74.941406 112.75 74.878906 114.277344 75.085938 114.445312 C 75.488281 114.769531 76.761719 114.800781 77.339844 114.757812 L 77.429688 116.378906 L 78.300781 116.332031 L 78.203125 114.613281 C 80.636719 113.929688 81.183594 111.15625 79.085938 109.304688 L 77.863281 108.398438 L 77.679688 104.984375 C 79.410156 104.917969 79.503906 106.519531 79.539062 106.578125 C 79.566406 106.621094 79.800781 106.792969 79.765625 106.230469 L 79.679688 104.542969 L 77.640625 104.378906 L 77.558594 102.753906 L 76.683594 102.804688 L 76.78125 104.535156 C 74.574219 105.210938 74.210938 107.535156 75.976562 109.230469 C 76.253906 109.492188 76.589844 109.765625 76.988281 110.042969 Z M 76.8125 105.199219 L 76.953125 107.742188 C 75.921875 106.890625 75.824219 105.796875 76.8125 105.199219 Z M 77.992188 110.765625 C 79.320312 111.832031 79.386719 113.316406 78.167969 113.925781 Z M 77.992188 110.765625 " fill-opacity="1" fill-rule="evenodd"/><g fill="#00893b" fill-opacity="1"><g transform="translate(22.316108, 256.906721)"><g><path d="M 9.328125 0.25 C 7.742188 0.25 6.351562 -0.0546875 5.15625 -0.671875 C 3.96875 -1.296875 3.046875 -2.164062 2.390625 -3.28125 C 1.742188 -4.394531 1.421875 -5.679688 1.421875 -7.140625 L 1.421875 -14.15625 C 1.421875 -15.613281 1.742188 -16.898438 2.390625 -18.015625 C 3.046875 -19.128906 3.96875 -19.988281 5.15625 -20.59375 C 6.351562 -21.195312 7.742188 -21.5 9.328125 -21.5 C 10.878906 -21.5 12.25 -21.210938 13.4375 -20.640625 C 14.625 -20.066406 15.546875 -19.242188 16.203125 -18.171875 C 16.859375 -17.109375 17.1875 -15.878906 17.1875 -14.484375 C 17.1875 -14.304688 17.023438 -14.195312 16.703125 -14.15625 L 13.453125 -13.9375 L 13.328125 -13.9375 C 13.046875 -13.9375 12.90625 -13.988281 12.90625 -14.09375 L 12.90625 -14.28125 C 12.90625 -15.351562 12.578125 -16.210938 11.921875 -16.859375 C 11.265625 -17.503906 10.398438 -17.828125 9.328125 -17.828125 C 8.234375 -17.828125 7.351562 -17.503906 6.6875 -16.859375 C 6.03125 -16.210938 5.703125 -15.351562 5.703125 -14.28125 L 5.703125 -6.953125 C 5.703125 -5.898438 6.03125 -5.050781 6.6875 -4.40625 C 7.351562 -3.757812 8.234375 -3.4375 9.328125 -3.4375 C 10.398438 -3.4375 11.265625 -3.757812 11.921875 -4.40625 C 12.578125 -5.050781 12.90625 -5.898438 12.90625 -6.953125 C 12.90625 -7.054688 12.953125 -7.144531 13.046875 -7.21875 C 13.140625 -7.289062 13.265625 -7.316406 13.421875 -7.296875 L 16.671875 -7.140625 C 17.015625 -7.097656 17.1875 -7.046875 17.1875 -6.984375 L 17.1875 -6.828125 C 17.1875 -5.429688 16.859375 -4.195312 16.203125 -3.125 C 15.546875 -2.050781 14.625 -1.21875 13.4375 -0.625 C 12.25 -0.0390625 10.878906 0.25 9.328125 0.25 Z M 9.328125 0.25 "/></g></g></g><g fill="#00893b" fill-opacity="1"><g transform="translate(40.777005, 256.906721)"><g><path d="M 8.5 0.25 C 6.78125 0.25 5.3125 -0.195312 4.09375 -1.09375 C 2.882812 -1.988281 2.054688 -3.203125 1.609375 -4.734375 C 1.328125 -5.691406 1.1875 -6.726562 1.1875 -7.84375 C 1.1875 -9.070312 1.335938 -10.144531 1.640625 -11.0625 C 2.109375 -12.550781 2.941406 -13.722656 4.140625 -14.578125 C 5.347656 -15.429688 6.8125 -15.859375 8.53125 -15.859375 C 10.195312 -15.859375 11.617188 -15.429688 12.796875 -14.578125 C 13.984375 -13.722656 14.8125 -12.5625 15.28125 -11.09375 C 15.582031 -10.15625 15.734375 -9.085938 15.734375 -7.890625 C 15.734375 -6.835938 15.601562 -5.816406 15.34375 -4.828125 C 14.875 -3.242188 14.035156 -2 12.828125 -1.09375 C 11.628906 -0.195312 10.1875 0.25 8.5 0.25 Z M 8.5 -3.4375 C 9.15625 -3.4375 9.710938 -3.632812 10.171875 -4.03125 C 10.640625 -4.4375 10.972656 -4.992188 11.171875 -5.703125 C 11.335938 -6.253906 11.421875 -6.96875 11.421875 -7.84375 C 11.421875 -8.6875 11.335938 -9.40625 11.171875 -10 C 10.972656 -10.6875 10.640625 -11.222656 10.171875 -11.609375 C 9.710938 -11.992188 9.132812 -12.1875 8.4375 -12.1875 C 7.769531 -12.1875 7.203125 -11.992188 6.734375 -11.609375 C 6.273438 -11.222656 5.941406 -10.6875 5.734375 -10 C 5.578125 -9.40625 5.5 -8.6875 5.5 -7.84375 C 5.5 -7.007812 5.578125 -6.296875 5.734375 -5.703125 C 5.941406 -4.992188 6.28125 -4.4375 6.75 -4.03125 C 7.226562 -3.632812 7.8125 -3.4375 8.5 -3.4375 Z M 8.5 -3.4375 "/></g></g></g><g fill="#00893b" fill-opacity="1"><g transform="translate(57.689369, 256.906721)"><g><path d="M 9.71875 -15.859375 C 11.34375 -15.859375 12.648438 -15.359375 13.640625 -14.359375 C 14.628906 -13.367188 15.125 -12.023438 15.125 -10.328125 L 15.125 -0.515625 C 15.125 -0.171875 14.953125 0 14.609375 0 L 11.359375 0 C 11.015625 0 10.84375 -0.171875 10.84375 -0.515625 L 10.84375 -9.453125 C 10.84375 -10.253906 10.617188 -10.910156 10.171875 -11.421875 C 9.722656 -11.929688 9.128906 -12.1875 8.390625 -12.1875 C 7.640625 -12.1875 7.03125 -11.929688 6.5625 -11.421875 C 6.09375 -10.910156 5.859375 -10.253906 5.859375 -9.453125 L 5.859375 -0.515625 C 5.859375 -0.171875 5.6875 0 5.34375 0 L 2.09375 0 C 1.75 0 1.578125 -0.171875 1.578125 -0.515625 L 1.578125 -15.09375 C 1.578125 -15.4375 1.75 -15.609375 2.09375 -15.609375 L 5.34375 -15.609375 C 5.6875 -15.609375 5.859375 -15.4375 5.859375 -15.09375 L 5.859375 -14.25 C 5.859375 -14.164062 5.878906 -14.113281 5.921875 -14.09375 C 5.960938 -14.070312 6.003906 -14.09375 6.046875 -14.15625 C 6.878906 -15.289062 8.101562 -15.859375 9.71875 -15.859375 Z M 9.71875 -15.859375 "/></g></g></g><g fill="#00893b" fill-opacity="1"><g transform="translate(74.298109, 256.906721)"><g><path d="M 10.546875 -12.703125 C 10.546875 -12.359375 10.375 -12.1875 10.03125 -12.1875 L 7.296875 -12.1875 C 7.171875 -12.1875 7.109375 -12.125 7.109375 -12 L 7.109375 -5.703125 C 7.109375 -5.035156 7.242188 -4.546875 7.515625 -4.234375 C 7.785156 -3.921875 8.226562 -3.765625 8.84375 -3.765625 L 9.6875 -3.765625 C 10.03125 -3.765625 10.203125 -3.59375 10.203125 -3.25 L 10.203125 -0.640625 C 10.203125 -0.316406 10.03125 -0.132812 9.6875 -0.09375 C 8.914062 -0.0507812 8.359375 -0.03125 8.015625 -0.03125 C 6.335938 -0.03125 5.082031 -0.3125 4.25 -0.875 C 3.414062 -1.445312 2.992188 -2.503906 2.984375 -4.046875 L 2.984375 -12 C 2.984375 -12.125 2.921875 -12.1875 2.796875 -12.1875 L 1.25 -12.1875 C 0.90625 -12.1875 0.734375 -12.359375 0.734375 -12.703125 L 0.734375 -15.09375 C 0.734375 -15.4375 0.90625 -15.609375 1.25 -15.609375 L 2.796875 -15.609375 C 2.921875 -15.609375 2.984375 -15.671875 2.984375 -15.796875 L 2.984375 -19.234375 C 2.984375 -19.578125 3.15625 -19.75 3.5 -19.75 L 6.59375 -19.75 C 6.9375 -19.75 7.109375 -19.578125 7.109375 -19.234375 L 7.109375 -15.796875 C 7.109375 -15.671875 7.171875 -15.609375 7.296875 -15.609375 L 10.03125 -15.609375 C 10.375 -15.609375 10.546875 -15.4375 10.546875 -15.09375 Z M 10.546875 -12.703125 "/></g></g></g><g fill="#00893b" fill-opacity="1"><g transform="translate(85.836168, 256.906721)"><g><path d="M 9.359375 -15.828125 C 10.003906 -15.828125 10.539062 -15.703125 10.96875 -15.453125 C 11.207031 -15.335938 11.296875 -15.128906 11.234375 -14.828125 L 10.65625 -11.640625 C 10.632812 -11.453125 10.578125 -11.335938 10.484375 -11.296875 C 10.398438 -11.253906 10.253906 -11.253906 10.046875 -11.296875 C 9.722656 -11.378906 9.429688 -11.421875 9.171875 -11.421875 C 9.023438 -11.421875 8.789062 -11.398438 8.46875 -11.359375 C 7.738281 -11.296875 7.117188 -11.023438 6.609375 -10.546875 C 6.109375 -10.078125 5.859375 -9.445312 5.859375 -8.65625 L 5.859375 -0.515625 C 5.859375 -0.171875 5.6875 0 5.34375 0 L 2.09375 0 C 1.75 0 1.578125 -0.171875 1.578125 -0.515625 L 1.578125 -15.09375 C 1.578125 -15.4375 1.75 -15.609375 2.09375 -15.609375 L 5.34375 -15.609375 C 5.6875 -15.609375 5.859375 -15.4375 5.859375 -15.09375 L 5.859375 -14.15625 C 5.859375 -14.070312 5.878906 -14.019531 5.921875 -14 C 5.960938 -13.976562 6.015625 -14 6.078125 -14.0625 C 6.890625 -15.238281 7.984375 -15.828125 9.359375 -15.828125 Z M 9.359375 -15.828125 "/></g></g></g><g fill="#00893b" fill-opacity="1"><g transform="translate(97.465321, 256.906721)"><g><path d="M 8.5 0.25 C 6.78125 0.25 5.3125 -0.195312 4.09375 -1.09375 C 2.882812 -1.988281 2.054688 -3.203125 1.609375 -4.734375 C 1.328125 -5.691406 1.1875 -6.726562 1.1875 -7.84375 C 1.1875 -9.070312 1.335938 -10.144531 1.640625 -11.0625 C 2.109375 -12.550781 2.941406 -13.722656 4.140625 -14.578125 C 5.347656 -15.429688 6.8125 -15.859375 8.53125 -15.859375 C 10.195312 -15.859375 11.617188 -15.429688 12.796875 -14.578125 C 13.984375 -13.722656 14.8125 -12.5625 15.28125 -11.09375 C 15.582031 -10.15625 15.734375 -9.085938 15.734375 -7.890625 C 15.734375 -6.835938 15.601562 -5.816406 15.34375 -4.828125 C 14.875 -3.242188 14.035156 -2 12.828125 -1.09375 C 11.628906 -0.195312 10.1875 0.25 8.5 0.25 Z M 8.5 -3.4375 C 9.15625 -3.4375 9.710938 -3.632812 10.171875 -4.03125 C 10.640625 -4.4375 10.972656 -4.992188 11.171875 -5.703125 C 11.335938 -6.253906 11.421875 -6.96875 11.421875 -7.84375 C 11.421875 -8.6875 11.335938 -9.40625 11.171875 -10 C 10.972656 -10.6875 10.640625 -11.222656 10.171875 -11.609375 C 9.710938 -11.992188 9.132812 -12.1875 8.4375 -12.1875 C 7.769531 -12.1875 7.203125 -11.992188 6.734375 -11.609375 C 6.273438 -11.222656 5.941406 -10.6875 5.734375 -10 C 5.578125 -9.40625 5.5 -8.6875 5.5 -7.84375 C 5.5 -7.007812 5.578125 -6.296875 5.734375 -5.703125 C 5.941406 -4.992188 6.28125 -4.4375 6.75 -4.03125 C 7.226562 -3.632812 7.8125 -3.4375 8.5 -3.4375 Z M 8.5 -3.4375 "/></g></g></g><g fill="#00893b" fill-opacity="1"><g transform="translate(114.377684, 256.906721)"><g><path d="M 2.15625 0 C 1.8125 0 1.640625 -0.171875 1.640625 -0.515625 L 1.640625 -20.75 C 1.640625 -21.09375 1.8125 -21.265625 2.15625 -21.265625 L 5.40625 -21.265625 C 5.75 -21.265625 5.921875 -21.09375 5.921875 -20.75 L 5.921875 -0.515625 C 5.921875 -0.171875 5.75 0 5.40625 0 Z M 2.15625 0 "/></g></g></g><g fill="#00893b" fill-opacity="1"><g transform="translate(121.938154, 256.906721)"><g><path d="M 9.109375 -3.375 C 10.453125 -3.4375 11.476562 -3.898438 12.1875 -4.765625 C 12.300781 -4.910156 12.429688 -4.984375 12.578125 -4.984375 C 12.691406 -4.984375 12.800781 -4.929688 12.90625 -4.828125 L 14.640625 -3.15625 C 14.765625 -3.039062 14.828125 -2.921875 14.828125 -2.796875 C 14.828125 -2.648438 14.785156 -2.53125 14.703125 -2.4375 C 14.035156 -1.601562 13.179688 -0.945312 12.140625 -0.46875 C 11.097656 0.0078125 9.957031 0.25 8.71875 0.25 C 6.851562 0.25 5.304688 -0.222656 4.078125 -1.171875 C 2.859375 -2.128906 2.035156 -3.441406 1.609375 -5.109375 C 1.367188 -5.992188 1.25 -6.929688 1.25 -7.921875 C 1.25 -9.097656 1.359375 -10.09375 1.578125 -10.90625 C 1.984375 -12.40625 2.796875 -13.609375 4.015625 -14.515625 C 5.242188 -15.429688 6.703125 -15.890625 8.390625 -15.890625 C 10.367188 -15.890625 11.941406 -15.300781 13.109375 -14.125 C 14.273438 -12.945312 15.03125 -11.296875 15.375 -9.171875 C 15.445312 -8.503906 15.503906 -7.765625 15.546875 -6.953125 C 15.546875 -6.609375 15.375 -6.4375 15.03125 -6.4375 L 5.703125 -6.4375 C 5.585938 -6.4375 5.53125 -6.375 5.53125 -6.25 C 5.59375 -5.832031 5.660156 -5.519531 5.734375 -5.3125 C 5.941406 -4.6875 6.34375 -4.207031 6.9375 -3.875 C 7.539062 -3.539062 8.265625 -3.375 9.109375 -3.375 Z M 8.328125 -12.1875 C 7.671875 -12.1875 7.125 -12.023438 6.6875 -11.703125 C 6.257812 -11.390625 5.960938 -10.953125 5.796875 -10.390625 C 5.703125 -10.003906 5.644531 -9.75 5.625 -9.625 C 5.601562 -9.507812 5.648438 -9.453125 5.765625 -9.453125 L 10.9375 -9.453125 C 11.039062 -9.453125 11.09375 -9.488281 11.09375 -9.5625 C 11.09375 -9.789062 11.050781 -10.023438 10.96875 -10.265625 C 10.78125 -10.847656 10.460938 -11.3125 10.015625 -11.65625 C 9.578125 -12.007812 9.015625 -12.1875 8.328125 -12.1875 Z M 8.328125 -12.1875 "/></g></g></g><g fill="#00893b" fill-opacity="1"><g transform="translate(138.546895, 256.906721)"><g/></g></g><g fill="#00893b" fill-opacity="1"><g transform="translate(144.619564, 256.906721)"><g><path d="M 11 -20.75 C 11 -21.09375 11.171875 -21.265625 11.515625 -21.265625 L 14.765625 -21.265625 C 15.109375 -21.265625 15.28125 -21.09375 15.28125 -20.75 L 15.28125 -0.515625 C 15.28125 -0.171875 15.109375 0 14.765625 0 L 11.515625 0 C 11.171875 0 11 -0.171875 11 -0.515625 L 11 -1.34375 C 11 -1.414062 10.972656 -1.457031 10.921875 -1.46875 C 10.867188 -1.476562 10.820312 -1.453125 10.78125 -1.390625 C 9.945312 -0.296875 8.796875 0.25 7.328125 0.25 C 5.941406 0.25 4.71875 -0.160156 3.65625 -0.984375 C 2.59375 -1.804688 1.859375 -2.882812 1.453125 -4.21875 C 1.109375 -5.195312 0.9375 -6.410156 0.9375 -7.859375 C 0.9375 -9.359375 1.128906 -10.617188 1.515625 -11.640625 C 1.960938 -12.929688 2.695312 -13.960938 3.71875 -14.734375 C 4.738281 -15.503906 5.941406 -15.890625 7.328125 -15.890625 C 8.816406 -15.890625 9.96875 -15.390625 10.78125 -14.390625 C 10.820312 -14.335938 10.867188 -14.320312 10.921875 -14.34375 C 10.972656 -14.363281 11 -14.410156 11 -14.484375 Z M 10.359375 -4.796875 C 10.765625 -5.546875 10.96875 -6.550781 10.96875 -7.8125 C 10.96875 -9.144531 10.753906 -10.1875 10.328125 -10.9375 C 9.816406 -11.726562 9.140625 -12.125 8.296875 -12.125 C 7.359375 -12.125 6.648438 -11.738281 6.171875 -10.96875 C 5.679688 -10.15625 5.4375 -9.09375 5.4375 -7.78125 C 5.4375 -6.582031 5.648438 -5.585938 6.078125 -4.796875 C 6.554688 -3.929688 7.296875 -3.5 8.296875 -3.5 C 9.179688 -3.5 9.867188 -3.929688 10.359375 -4.796875 Z M 10.359375 -4.796875 "/></g></g></g><g fill="#00893b" fill-opacity="1"><g transform="translate(161.531928, 256.906721)"><g><path d="M 9.109375 -3.375 C 10.453125 -3.4375 11.476562 -3.898438 12.1875 -4.765625 C 12.300781 -4.910156 12.429688 -4.984375 12.578125 -4.984375 C 12.691406 -4.984375 12.800781 -4.929688 12.90625 -4.828125 L 14.640625 -3.15625 C 14.765625 -3.039062 14.828125 -2.921875 14.828125 -2.796875 C 14.828125 -2.648438 14.785156 -2.53125 14.703125 -2.4375 C 14.035156 -1.601562 13.179688 -0.945312 12.140625 -0.46875 C 11.097656 0.0078125 9.957031 0.25 8.71875 0.25 C 6.851562 0.25 5.304688 -0.222656 4.078125 -1.171875 C 2.859375 -2.128906 2.035156 -3.441406 1.609375 -5.109375 C 1.367188 -5.992188 1.25 -6.929688 1.25 -7.921875 C 1.25 -9.097656 1.359375 -10.09375 1.578125 -10.90625 C 1.984375 -12.40625 2.796875 -13.609375 4.015625 -14.515625 C 5.242188 -15.429688 6.703125 -15.890625 8.390625 -15.890625 C 10.367188 -15.890625 11.941406 -15.300781 13.109375 -14.125 C 14.273438 -12.945312 15.03125 -11.296875 15.375 -9.171875 C 15.445312 -8.503906 15.503906 -7.765625 15.546875 -6.953125 C 15.546875 -6.609375 15.375 -6.4375 15.03125 -6.4375 L 5.703125 -6.4375 C 5.585938 -6.4375 5.53125 -6.375 5.53125 -6.25 C 5.59375 -5.832031 5.660156 -5.519531 5.734375 -5.3125 C 5.941406 -4.6875 6.34375 -4.207031 6.9375 -3.875 C 7.539062 -3.539062 8.265625 -3.375 9.109375 -3.375 Z M 8.328125 -12.1875 C 7.671875 -12.1875 7.125 -12.023438 6.6875 -11.703125 C 6.257812 -11.390625 5.960938 -10.953125 5.796875 -10.390625 C 5.703125 -10.003906 5.644531 -9.75 5.625 -9.625 C 5.601562 -9.507812 5.648438 -9.453125 5.765625 -9.453125 L 10.9375 -9.453125 C 11.039062 -9.453125 11.09375 -9.488281 11.09375 -9.5625 C 11.09375 -9.789062 11.050781 -10.023438 10.96875 -10.265625 C 10.78125 -10.847656 10.460938 -11.3125 10.015625 -11.65625 C 9.578125 -12.007812 9.015625 -12.1875 8.328125 -12.1875 Z M 8.328125 -12.1875 "/></g></g></g><g fill="#00893b" fill-opacity="1"><g transform="translate(178.140668, 256.906721)"><g/></g></g><g fill="#00893b" fill-opacity="1"><g transform="translate(184.213338, 256.906721)"><g><path d="M 9.328125 0.25 C 7.765625 0.25 6.382812 -0.0625 5.1875 -0.6875 C 4 -1.320312 3.070312 -2.203125 2.40625 -3.328125 C 1.75 -4.453125 1.421875 -5.753906 1.421875 -7.234375 L 1.421875 -14.03125 C 1.421875 -15.507812 1.75 -16.816406 2.40625 -17.953125 C 3.070312 -19.085938 4 -19.960938 5.1875 -20.578125 C 6.382812 -21.191406 7.765625 -21.5 9.328125 -21.5 C 10.867188 -21.5 12.226562 -21.195312 13.40625 -20.59375 C 14.59375 -19.988281 15.515625 -19.160156 16.171875 -18.109375 C 16.828125 -17.066406 17.15625 -15.910156 17.15625 -14.640625 L 17.15625 -14.578125 C 17.15625 -14.234375 16.984375 -14.0625 16.640625 -14.0625 L 13.390625 -14.0625 C 13.234375 -14.0625 13.109375 -14.085938 13.015625 -14.140625 C 12.921875 -14.191406 12.875 -14.25 12.875 -14.3125 L 12.875 -14.515625 C 12.875 -15.453125 12.550781 -16.238281 11.90625 -16.875 C 11.257812 -17.507812 10.398438 -17.828125 9.328125 -17.828125 C 8.234375 -17.828125 7.351562 -17.488281 6.6875 -16.8125 C 6.03125 -16.132812 5.703125 -15.25 5.703125 -14.15625 L 5.703125 -7.109375 C 5.703125 -6.015625 6.054688 -5.128906 6.765625 -4.453125 C 7.484375 -3.773438 8.390625 -3.4375 9.484375 -3.4375 C 10.535156 -3.4375 11.375 -3.710938 12 -4.265625 C 12.625 -4.828125 12.9375 -5.601562 12.9375 -6.59375 L 12.9375 -7.921875 C 12.9375 -8.046875 12.875 -8.109375 12.75 -8.109375 L 9.53125 -8.109375 C 9.1875 -8.109375 9.015625 -8.28125 9.015625 -8.625 L 9.015625 -11.125 C 9.015625 -11.46875 9.1875 -11.640625 9.53125 -11.640625 L 16.640625 -11.640625 C 16.984375 -11.640625 17.15625 -11.46875 17.15625 -11.125 L 17.15625 -7.265625 C 17.15625 -5.722656 16.832031 -4.382812 16.1875 -3.25 C 15.539062 -2.113281 14.625 -1.242188 13.4375 -0.640625 C 12.25 -0.046875 10.878906 0.25 9.328125 0.25 Z M 9.328125 0.25 "/></g></g></g><g fill="#00893b" fill-opacity="1"><g transform="translate(202.643874, 256.906721)"><g><path d="M 7.84375 -15.859375 C 9.15625 -15.859375 10.328125 -15.628906 11.359375 -15.171875 C 12.390625 -14.710938 13.191406 -14.085938 13.765625 -13.296875 C 14.347656 -12.515625 14.640625 -11.632812 14.640625 -10.65625 L 14.640625 -0.515625 C 14.640625 -0.171875 14.46875 0 14.125 0 L 10.875 0 C 10.53125 0 10.359375 -0.171875 10.359375 -0.515625 L 10.359375 -1.25 C 10.359375 -1.320312 10.335938 -1.363281 10.296875 -1.375 C 10.253906 -1.382812 10.203125 -1.363281 10.140625 -1.3125 C 9.210938 -0.269531 7.828125 0.25 5.984375 0.25 C 4.421875 0.25 3.164062 -0.132812 2.21875 -0.90625 C 1.269531 -1.675781 0.796875 -2.8125 0.796875 -4.3125 C 0.796875 -5.875 1.335938 -7.082031 2.421875 -7.9375 C 3.515625 -8.800781 5.078125 -9.234375 7.109375 -9.234375 L 10.171875 -9.234375 C 10.296875 -9.234375 10.359375 -9.296875 10.359375 -9.421875 L 10.359375 -10.046875 C 10.359375 -10.722656 10.148438 -11.25 9.734375 -11.625 C 9.316406 -12 8.710938 -12.1875 7.921875 -12.1875 C 7.316406 -12.1875 6.816406 -12.082031 6.421875 -11.875 C 6.023438 -11.675781 5.757812 -11.394531 5.625 -11.03125 C 5.5 -10.738281 5.296875 -10.601562 5.015625 -10.625 L 1.640625 -11.0625 C 1.472656 -11.082031 1.34375 -11.125 1.25 -11.1875 C 1.164062 -11.257812 1.132812 -11.359375 1.15625 -11.484375 C 1.257812 -12.316406 1.609375 -13.066406 2.203125 -13.734375 C 2.796875 -14.398438 3.582031 -14.921875 4.5625 -15.296875 C 5.550781 -15.671875 6.644531 -15.859375 7.84375 -15.859375 Z M 7.234375 -2.953125 C 8.097656 -2.953125 8.832031 -3.179688 9.4375 -3.640625 C 10.050781 -4.109375 10.359375 -4.707031 10.359375 -5.4375 L 10.359375 -6.5 C 10.359375 -6.625 10.296875 -6.6875 10.171875 -6.6875 L 8.015625 -6.6875 C 7.109375 -6.6875 6.390625 -6.515625 5.859375 -6.171875 C 5.335938 -5.828125 5.078125 -5.335938 5.078125 -4.703125 C 5.078125 -4.160156 5.269531 -3.734375 5.65625 -3.421875 C 6.050781 -3.109375 6.578125 -2.953125 7.234375 -2.953125 Z M 7.234375 -2.953125 "/></g></g></g><g fill="#00893b" fill-opacity="1"><g transform="translate(218.675695, 256.906721)"><g><path d="M 7.8125 0.21875 C 6.445312 0.21875 5.257812 0.0234375 4.25 -0.359375 C 3.238281 -0.742188 2.457031 -1.28125 1.90625 -1.96875 C 1.363281 -2.65625 1.09375 -3.4375 1.09375 -4.3125 L 1.09375 -4.46875 C 1.09375 -4.8125 1.265625 -4.984375 1.609375 -4.984375 L 4.671875 -4.984375 C 5.015625 -4.984375 5.1875 -4.921875 5.1875 -4.796875 L 5.1875 -4.59375 C 5.1875 -4.144531 5.429688 -3.765625 5.921875 -3.453125 C 6.410156 -3.140625 7.03125 -2.984375 7.78125 -2.984375 C 8.46875 -2.984375 9.019531 -3.113281 9.4375 -3.375 C 9.863281 -3.632812 10.078125 -3.976562 10.078125 -4.40625 C 10.078125 -4.769531 9.894531 -5.039062 9.53125 -5.21875 C 9.164062 -5.40625 8.570312 -5.597656 7.75 -5.796875 C 6.75 -6.066406 6.007812 -6.300781 5.53125 -6.5 C 4.207031 -6.945312 3.160156 -7.492188 2.390625 -8.140625 C 1.628906 -8.785156 1.25 -9.71875 1.25 -10.9375 C 1.25 -12.4375 1.832031 -13.625 3 -14.5 C 4.175781 -15.382812 5.71875 -15.828125 7.625 -15.828125 C 8.914062 -15.828125 10.050781 -15.617188 11.03125 -15.203125 C 12.019531 -14.785156 12.78125 -14.203125 13.3125 -13.453125 C 13.851562 -12.703125 14.125 -11.851562 14.125 -10.90625 C 14.125 -10.800781 14.078125 -10.710938 13.984375 -10.640625 C 13.890625 -10.578125 13.765625 -10.546875 13.609375 -10.546875 L 10.625 -10.546875 C 10.28125 -10.546875 10.109375 -10.601562 10.109375 -10.71875 L 10.109375 -10.90625 C 10.109375 -11.351562 9.882812 -11.726562 9.4375 -12.03125 C 9 -12.332031 8.40625 -12.484375 7.65625 -12.484375 C 6.988281 -12.484375 6.4375 -12.359375 6 -12.109375 C 5.5625 -11.867188 5.34375 -11.539062 5.34375 -11.125 C 5.34375 -10.71875 5.550781 -10.410156 5.96875 -10.203125 C 6.382812 -10.003906 7.066406 -9.789062 8.015625 -9.5625 C 8.609375 -9.445312 9.175781 -9.296875 9.71875 -9.109375 C 11.175781 -8.679688 12.316406 -8.132812 13.140625 -7.46875 C 13.972656 -6.800781 14.390625 -5.832031 14.390625 -4.5625 C 14.390625 -3.0625 13.789062 -1.890625 12.59375 -1.046875 C 11.40625 -0.203125 9.8125 0.21875 7.8125 0.21875 Z M 7.8125 0.21875 "/></g></g></g><g fill="#00893b" fill-opacity="1"><g transform="translate(233.948429, 256.906721)"><g><path d="M 10.546875 -12.703125 C 10.546875 -12.359375 10.375 -12.1875 10.03125 -12.1875 L 7.296875 -12.1875 C 7.171875 -12.1875 7.109375 -12.125 7.109375 -12 L 7.109375 -5.703125 C 7.109375 -5.035156 7.242188 -4.546875 7.515625 -4.234375 C 7.785156 -3.921875 8.226562 -3.765625 8.84375 -3.765625 L 9.6875 -3.765625 C 10.03125 -3.765625 10.203125 -3.59375 10.203125 -3.25 L 10.203125 -0.640625 C 10.203125 -0.316406 10.03125 -0.132812 9.6875 -0.09375 C 8.914062 -0.0507812 8.359375 -0.03125 8.015625 -0.03125 C 6.335938 -0.03125 5.082031 -0.3125 4.25 -0.875 C 3.414062 -1.445312 2.992188 -2.503906 2.984375 -4.046875 L 2.984375 -12 C 2.984375 -12.125 2.921875 -12.1875 2.796875 -12.1875 L 1.25 -12.1875 C 0.90625 -12.1875 0.734375 -12.359375 0.734375 -12.703125 L 0.734375 -15.09375 C 0.734375 -15.4375 0.90625 -15.609375 1.25 -15.609375 L 2.796875 -15.609375 C 2.921875 -15.609375 2.984375 -15.671875 2.984375 -15.796875 L 2.984375 -19.234375 C 2.984375 -19.578125 3.15625 -19.75 3.5 -19.75 L 6.59375 -19.75 C 6.9375 -19.75 7.109375 -19.578125 7.109375 -19.234375 L 7.109375 -15.796875 C 7.109375 -15.671875 7.171875 -15.609375 7.296875 -15.609375 L 10.03125 -15.609375 C 10.375 -15.609375 10.546875 -15.4375 10.546875 -15.09375 Z M 10.546875 -12.703125 "/></g></g></g><g fill="#00893b" fill-opacity="1"><g transform="translate(245.486499, 256.906721)"><g><path d="M 8.5 0.25 C 6.78125 0.25 5.3125 -0.195312 4.09375 -1.09375 C 2.882812 -1.988281 2.054688 -3.203125 1.609375 -4.734375 C 1.328125 -5.691406 1.1875 -6.726562 1.1875 -7.84375 C 1.1875 -9.070312 1.335938 -10.144531 1.640625 -11.0625 C 2.109375 -12.550781 2.941406 -13.722656 4.140625 -14.578125 C 5.347656 -15.429688 6.8125 -15.859375 8.53125 -15.859375 C 10.195312 -15.859375 11.617188 -15.429688 12.796875 -14.578125 C 13.984375 -13.722656 14.8125 -12.5625 15.28125 -11.09375 C 15.582031 -10.15625 15.734375 -9.085938 15.734375 -7.890625 C 15.734375 -6.835938 15.601562 -5.816406 15.34375 -4.828125 C 14.875 -3.242188 14.035156 -2 12.828125 -1.09375 C 11.628906 -0.195312 10.1875 0.25 8.5 0.25 Z M 8.5 -3.4375 C 9.15625 -3.4375 9.710938 -3.632812 10.171875 -4.03125 C 10.640625 -4.4375 10.972656 -4.992188 11.171875 -5.703125 C 11.335938 -6.253906 11.421875 -6.96875 11.421875 -7.84375 C 11.421875 -8.6875 11.335938 -9.40625 11.171875 -10 C 10.972656 -10.6875 10.640625 -11.222656 10.171875 -11.609375 C 9.710938 -11.992188 9.132812 -12.1875 8.4375 -12.1875 C 7.769531 -12.1875 7.203125 -11.992188 6.734375 -11.609375 C 6.273438 -11.222656 5.941406 -10.6875 5.734375 -10 C 5.578125 -9.40625 5.5 -8.6875 5.5 -7.84375 C 5.5 -7.007812 5.578125 -6.296875 5.734375 -5.703125 C 5.941406 -4.992188 6.28125 -4.4375 6.75 -4.03125 C 7.226562 -3.632812 7.8125 -3.4375 8.5 -3.4375 Z M 8.5 -3.4375 "/></g></g></g><g fill="#00893b" fill-opacity="1"><g transform="translate(262.398851, 256.906721)"><g><path d="M 7.8125 0.21875 C 6.445312 0.21875 5.257812 0.0234375 4.25 -0.359375 C 3.238281 -0.742188 2.457031 -1.28125 1.90625 -1.96875 C 1.363281 -2.65625 1.09375 -3.4375 1.09375 -4.3125 L 1.09375 -4.46875 C 1.09375 -4.8125 1.265625 -4.984375 1.609375 -4.984375 L 4.671875 -4.984375 C 5.015625 -4.984375 5.1875 -4.921875 5.1875 -4.796875 L 5.1875 -4.59375 C 5.1875 -4.144531 5.429688 -3.765625 5.921875 -3.453125 C 6.410156 -3.140625 7.03125 -2.984375 7.78125 -2.984375 C 8.46875 -2.984375 9.019531 -3.113281 9.4375 -3.375 C 9.863281 -3.632812 10.078125 -3.976562 10.078125 -4.40625 C 10.078125 -4.769531 9.894531 -5.039062 9.53125 -5.21875 C 9.164062 -5.40625 8.570312 -5.597656 7.75 -5.796875 C 6.75 -6.066406 6.007812 -6.300781 5.53125 -6.5 C 4.207031 -6.945312 3.160156 -7.492188 2.390625 -8.140625 C 1.628906 -8.785156 1.25 -9.71875 1.25 -10.9375 C 1.25 -12.4375 1.832031 -13.625 3 -14.5 C 4.175781 -15.382812 5.71875 -15.828125 7.625 -15.828125 C 8.914062 -15.828125 10.050781 -15.617188 11.03125 -15.203125 C 12.019531 -14.785156 12.78125 -14.203125 13.3125 -13.453125 C 13.851562 -12.703125 14.125 -11.851562 14.125 -10.90625 C 14.125 -10.800781 14.078125 -10.710938 13.984375 -10.640625 C 13.890625 -10.578125 13.765625 -10.546875 13.609375 -10.546875 L 10.625 -10.546875 C 10.28125 -10.546875 10.109375 -10.601562 10.109375 -10.71875 L 10.109375 -10.90625 C 10.109375 -11.351562 9.882812 -11.726562 9.4375 -12.03125 C 9 -12.332031 8.40625 -12.484375 7.65625 -12.484375 C 6.988281 -12.484375 6.4375 -12.359375 6 -12.109375 C 5.5625 -11.867188 5.34375 -11.539062 5.34375 -11.125 C 5.34375 -10.71875 5.550781 -10.410156 5.96875 -10.203125 C 6.382812 -10.003906 7.066406 -9.789062 8.015625 -9.5625 C 8.609375 -9.445312 9.175781 -9.296875 9.71875 -9.109375 C 11.175781 -8.679688 12.316406 -8.132812 13.140625 -7.46875 C 13.972656 -6.800781 14.390625 -5.832031 14.390625 -4.5625 C 14.390625 -3.0625 13.789062 -1.890625 12.59375 -1.046875 C 11.40625 -0.203125 9.8125 0.21875 7.8125 0.21875 Z M 7.8125 0.21875 "/></g></g></g></svg>