<svg xmlns="http://www.w3.org/2000/svg" xmlns:xlink="http://www.w3.org/1999/xlink" width="500" zoomAndPan="magnify" viewBox="0 0 375 374.999991" height="500" preserveAspectRatio="xMidYMid meet" version="1.0"><defs><clipPath id="38639242f8"><path d="M 225 104.640625 L 281 104.640625 L 281 142 L 225 142 Z M 225 104.640625 " clip-rule="nonzero"/></clipPath><clipPath id="294f960e22"><path d="M 286 142 L 299.914062 142 L 299.914062 166 L 286 166 Z M 286 142 " clip-rule="nonzero"/></clipPath><clipPath id="5618e58050"><path d="M 74.914062 169 L 88 169 L 88 193 L 74.914062 193 Z M 74.914062 169 " clip-rule="nonzero"/></clipPath><clipPath id="ee2cca9243"><path d="M 95 251 L 278 251 L 278 270.390625 L 95 270.390625 Z M 95 251 " clip-rule="nonzero"/></clipPath></defs><rect x="-37.5" width="450" fill="#ffffff" y="-37.499999" height="449.999989" fill-opacity="1"/><rect x="-37.5" width="450" fill="#ffffff" y="-37.499999" height="449.999989" fill-opacity="1"/><rect x="-37.5" width="450" fill="#ffffff" y="-37.499999" height="449.999989" fill-opacity="1"/><g clip-path="url(#38639242f8)"><path fill="#008037" d="M 275.160156 114.019531 C 274.578125 118.097656 274.351562 122.136719 274.453125 126.101562 C 276.285156 125.253906 278.109375 124.394531 279.921875 123.515625 C 279.441406 117.550781 279.628906 111.28125 280.582031 104.65625 C 263.3125 119.628906 245.347656 132.597656 225.453125 140.03125 C 225.738281 140.445312 225.980469 140.890625 226.199219 141.355469 C 241.226562 135.742188 262.113281 125.335938 275.160156 114.019531 Z M 275.160156 114.019531 " fill-opacity="1" fill-rule="evenodd"/></g><g clip-path="url(#294f960e22)"><path fill="#008037" d="M 289.84375 148.539062 C 288.496094 150.371094 287.242188 152.234375 286.082031 154.132812 C 286.191406 158.078125 286.59375 162 287.265625 165.90625 C 290.058594 157.957031 294.1875 150.089844 299.914062 142.3125 C 295.375 143.335938 290.847656 144.277344 286.332031 145.117188 C 286.214844 146.515625 286.136719 147.910156 286.089844 149.300781 C 287.371094 149.066406 288.621094 148.816406 289.84375 148.542969 Z M 289.84375 148.539062 " fill-opacity="1" fill-rule="evenodd"/></g><path fill="#008037" d="M 223.855469 144.886719 C 223.742188 144.335938 223.59375 143.800781 223.394531 143.289062 C 246.460938 140.382812 268.867188 131.085938 291.039062 119.484375 C 279.875 147.894531 284.339844 173.09375 296.542969 196.707031 L 231.503906 182.328125 C 231.988281 181.195312 232.363281 180.003906 232.667969 178.777344 L 285.492188 190.039062 C 276.273438 172.203125 274.476562 149.5625 282.90625 128.097656 C 266.160156 136.863281 241.28125 142.691406 223.855469 144.890625 Z M 223.855469 144.886719 " fill-opacity="1" fill-rule="evenodd"/><path fill="#008037" d="M 276.359375 182.519531 C 276.292969 182.324219 276.226562 182.125 276.15625 181.925781 C 276.226562 182.125 276.292969 182.320312 276.359375 182.519531 Z M 276.359375 182.519531 " fill-opacity="1" fill-rule="evenodd"/><path fill="#008037" d="M 273.1875 142.886719 L 273.300781 142.222656 C 273.261719 142.441406 273.226562 142.664062 273.1875 142.886719 Z M 273.1875 142.886719 " fill-opacity="1" fill-rule="evenodd"/><path fill="#008037" d="M 273.570312 140.777344 C 273.613281 140.554688 273.65625 140.335938 273.699219 140.121094 C 273.65625 140.339844 273.613281 140.554688 273.570312 140.777344 Z M 273.570312 140.777344 " fill-opacity="1" fill-rule="evenodd"/><path fill="#008037" d="M 273.703125 140.105469 C 273.746094 139.886719 273.792969 139.667969 273.839844 139.449219 Z M 273.703125 140.105469 " fill-opacity="1" fill-rule="evenodd"/><path fill="#008037" d="M 273.855469 139.367188 C 273.898438 139.171875 273.941406 138.972656 273.984375 138.78125 C 273.941406 138.976562 273.898438 139.171875 273.855469 139.367188 Z M 273.855469 139.367188 " fill-opacity="1" fill-rule="evenodd"/><path fill="#008037" d="M 274.003906 138.695312 C 274.054688 138.472656 274.101562 138.25 274.152344 138.027344 C 274.101562 138.25 274.054688 138.472656 274.003906 138.695312 Z M 274.003906 138.695312 " fill-opacity="1" fill-rule="evenodd"/><path fill="#008037" d="M 270.753906 124.679688 C 270.761719 125.699219 270.789062 126.714844 270.835938 127.730469 C 269.472656 128.335938 268.101562 128.929688 266.726562 129.507812 C 266.566406 129.433594 266.402344 129.351562 266.253906 129.257812 C 265.640625 128.878906 265.160156 128.363281 264.824219 127.773438 C 260.875 130.296875 256.707031 132.703125 252.472656 134.953125 C 249.988281 135.792969 247.488281 136.582031 244.976562 137.3125 C 247.769531 135.957031 250.527344 134.542969 253.238281 133.074219 C 258.554688 130.203125 263.769531 127.074219 268.730469 123.625 L 270.742188 122.226562 L 270.757812 124.675781 Z M 270.753906 124.679688 " fill-opacity="1" fill-rule="evenodd"/><path fill="#008037" d="M 100.027344 136.582031 C 100.292969 138.765625 100.457031 140.960938 100.523438 143.148438 L 101.878906 143.382812 C 101.855469 142.476562 101.8125 141.566406 101.757812 140.660156 C 102.53125 140.628906 103.308594 140.398438 104.007812 139.945312 C 104.671875 139.515625 105.1875 138.945312 105.53125 138.296875 L 126.039062 147.542969 L 131.351562 148.457031 L 99.738281 134.203125 Z M 100.027344 136.582031 " fill-opacity="1" fill-rule="evenodd"/><path fill="#008037" d="M 89.105469 141.183594 C 88.6875 133.828125 87.378906 126.457031 85.386719 119.085938 L 142.550781 145.375 L 143.226562 145.6875 C 142.546875 146.644531 141.957031 147.683594 141.421875 148.769531 L 139.921875 148.09375 L 94.359375 127.550781 C 95.660156 132.363281 96.429688 137.375 96.636719 142.480469 L 89.105469 141.1875 Z M 89.105469 141.183594 " fill-opacity="1" fill-rule="evenodd"/><g clip-path="url(#5618e58050)"><path fill="#008037" d="M 84.25 185.925781 C 85.453125 184.121094 86.566406 182.285156 87.589844 180.421875 C 87.308594 176.660156 86.75 172.929688 85.929688 169.234375 C 83.625 176.945312 80.03125 184.644531 74.914062 192.328125 C 79.203125 191.148438 83.484375 190.042969 87.753906 189.039062 C 87.800781 187.699219 87.820312 186.363281 87.796875 185.035156 C 86.585938 185.3125 85.402344 185.613281 84.25 185.929688 Z M 84.25 185.925781 " fill-opacity="1" fill-rule="evenodd"/></g><path fill="#008037" d="M 138.085938 188.316406 L 138.136719 190.058594 C 119.75 194.773438 101.964844 203.453125 84.417969 213.722656 C 93.792969 186.09375 88.402344 162.238281 75.691406 140.246094 L 138.425781 151.046875 C 138.015625 152.148438 137.710938 153.304688 137.476562 154.492188 L 86.539062 146.117188 C 96.140625 162.734375 98.875 184.265625 91.792969 205.132812 C 104.632812 197.617188 122.828125 191.761719 138.085938 188.320312 Z M 138.085938 188.316406 " fill-opacity="1" fill-rule="evenodd"/><path fill="#008037" d="M 98.375 195.015625 C 100.894531 181.058594 99.617188 166.566406 94.339844 153.382812 L 93.453125 151.160156 L 138.246094 158.523438 L 138.128906 159.777344 C 138.015625 160.945312 137.917969 162.113281 137.800781 163.277344 C 137.574219 165.453125 137.464844 167.699219 137.535156 169.886719 C 137.542969 170.175781 137.5625 170.628906 137.601562 171.167969 L 137.773438 177.140625 C 135.6875 174.210938 136.097656 166.578125 136.457031 163.136719 C 136.574219 161.996094 136.675781 160.824219 136.785156 159.652344 L 95.59375 152.878906 L 100.097656 153.621094 C 99.929688 154.335938 99.582031 155.023438 99.050781 155.605469 C 98.488281 156.222656 97.796875 156.648438 97.058594 156.875 C 100.679688 167.691406 101.761719 179.226562 100.40625 190.5625 L 100.464844 190.074219 C 101.671875 189.9375 102.925781 190.300781 103.886719 191.171875 C 104.445312 191.683594 104.839844 192.300781 105.070312 192.976562 L 104.640625 193.148438 C 115.308594 188.8125 127.097656 185.371094 137.9375 183.003906 L 137.976562 184.375 C 131.234375 185.847656 124.535156 187.65625 118.007812 189.75 C 111.988281 191.6875 106.023438 193.898438 100.253906 196.488281 L 97.917969 197.539062 L 98.375 195.019531 Z M 98.375 195.015625 " fill-opacity="1" fill-rule="evenodd"/><path fill="#008037" d="M 95.59375 152.878906 C 95.667969 153.066406 95.742188 153.25 95.8125 153.4375 C 95.742188 153.253906 95.667969 153.066406 95.59375 152.878906 Z M 95.59375 152.878906 " fill-opacity="1" fill-rule="evenodd"/><path fill="#008037" d="M 100.40625 190.574219 L 100.328125 191.210938 C 100.355469 191 100.382812 190.785156 100.40625 190.574219 Z M 100.40625 190.574219 " fill-opacity="1" fill-rule="evenodd"/><path fill="#008037" d="M 100.132812 192.609375 C 100.105469 192.816406 100.074219 193.027344 100.039062 193.234375 C 100.070312 193.027344 100.105469 192.816406 100.132812 192.609375 Z M 100.132812 192.609375 " fill-opacity="1" fill-rule="evenodd"/><path fill="#008037" d="M 100.035156 193.253906 C 100.003906 193.464844 99.96875 193.675781 99.9375 193.882812 Z M 100.035156 193.253906 " fill-opacity="1" fill-rule="evenodd"/><path fill="#008037" d="M 99.925781 193.964844 C 99.894531 194.152344 99.859375 194.339844 99.828125 194.53125 C 99.859375 194.339844 99.894531 194.152344 99.925781 193.964844 Z M 99.925781 193.964844 " fill-opacity="1" fill-rule="evenodd"/><path fill="#008037" d="M 99.816406 194.613281 C 99.777344 194.828125 99.742188 195.042969 99.703125 195.257812 C 99.742188 195.042969 99.777344 194.828125 99.816406 194.613281 Z M 99.816406 194.613281 " fill-opacity="1" fill-rule="evenodd"/><path fill="#008037" d="M 183.355469 136.410156 L 183.355469 136.03125 C 183.355469 134.71875 183.804688 133.503906 184.5625 132.539062 C 185.605469 131.203125 187.226562 130.339844 189.046875 130.339844 L 196.984375 130.339844 C 200.109375 130.339844 202.667969 132.898438 202.667969 136.03125 L 202.667969 188.792969 C 202.667969 189.269531 202.613281 189.730469 202.5 190.171875 L 183.523438 190.171875 C 183.414062 189.730469 183.355469 189.269531 183.355469 188.792969 L 183.355469 188.414062 C 183.355469 175.714844 183.355469 149.152344 183.355469 136.410156 Z M 224.863281 154.734375 L 223.0625 182.058594 C 222.816406 182.429688 222.175781 183.042969 221.945312 183.261719 C 220.832031 184.328125 219.699219 185.335938 218.625 186.449219 C 216.648438 188.496094 214.53125 190.171875 211.5625 190.171875 L 207.046875 190.171875 C 206.941406 190.0625 206.84375 189.945312 206.75 189.824219 C 205.996094 188.859375 205.546875 187.644531 205.546875 186.332031 L 205.546875 139.445312 C 205.546875 138.132812 205.996094 136.917969 206.75 135.953125 C 207.792969 134.617188 209.417969 133.753906 211.234375 133.753906 L 219.171875 133.753906 C 222.300781 133.753906 224.863281 136.316406 224.863281 139.449219 L 224.863281 154.738281 Z M 180.398438 187.484375 L 180.398438 187.535156 C 180.398438 188.488281 180.164062 189.378906 179.75 190.171875 L 177.117188 190.171875 C 175.152344 190.171875 173.257812 190.855469 171.898438 192.308594 C 171.628906 192.601562 171.386719 192.90625 171.183594 193.226562 L 166.773438 193.226562 C 164.957031 193.226562 163.332031 192.367188 162.289062 191.03125 C 161.535156 190.066406 161.085938 188.851562 161.085938 187.535156 L 161.085938 140.652344 C 161.085938 139.335938 161.535156 138.121094 162.289062 137.15625 C 163.332031 135.820312 164.957031 134.957031 166.773438 134.957031 L 174.710938 134.957031 C 177.839844 134.957031 180.398438 137.519531 180.398438 140.652344 Z M 226.394531 178.492188 L 227.8125 179.210938 C 227.90625 178.921875 227.992188 178.628906 228.074219 178.332031 L 226.949219 178.089844 L 227.734375 172.566406 C 227.910156 171.339844 228.070312 170.113281 228.257812 168.890625 C 228.574219 166.816406 228.777344 164.703125 228.8125 162.605469 C 228.824219 161.839844 228.789062 160.136719 228.597656 158.984375 L 227.550781 158.605469 L 226.222656 178.808594 L 226.398438 178.492188 Z M 206.214844 212.441406 C 225.957031 212.441406 228.726562 209.433594 237.921875 198.890625 L 224.128906 191.738281 L 219.746094 189.46875 C 218.40625 190.71875 216.976562 191.761719 215.335938 192.40625 L 215.308594 192.414062 L 215.027344 192.519531 L 214.894531 192.566406 L 214.875 192.570312 L 214.746094 192.617188 L 214.722656 192.621094 L 214.589844 192.664062 L 214.570312 192.667969 L 214.433594 192.710938 L 214.414062 192.714844 L 214.277344 192.753906 L 214.257812 192.757812 L 214.203125 192.773438 L 214.097656 192.800781 L 213.941406 192.839844 L 213.792969 192.871094 L 213.777344 192.875 L 213.707031 192.886719 L 213.453125 192.9375 L 213.300781 192.964844 L 213.285156 192.96875 L 213.136719 192.992188 L 213.121094 192.992188 L 212.964844 193.011719 L 212.957031 193.015625 L 212.792969 193.035156 L 212.785156 193.035156 L 212.625 193.054688 L 212.617188 193.054688 L 212.453125 193.070312 L 212.445312 193.070312 L 212.269531 193.085938 L 212.097656 193.09375 L 211.921875 193.101562 L 211.746094 193.101562 L 211.566406 193.105469 C 211.566406 193.113281 200.496094 193.105469 199.542969 193.105469 L 185.558594 193.105469 C 181.152344 193.105469 172.199219 191.164062 173.226562 198.265625 C 173.660156 201.265625 175.480469 204.808594 176.144531 206.742188 C 177.226562 209.875 180.667969 212.4375 183.800781 212.4375 L 206.21875 212.4375 Z M 211.742188 193.109375 Z M 211.921875 193.105469 Z M 212.273438 193.085938 Z M 215.027344 192.519531 Z M 139.695312 182.136719 L 139.695312 152.324219 L 139.722656 152.261719 L 139.695312 152.257812 L 139.695312 147.730469 C 139.695312 146.414062 140.148438 145.203125 140.902344 144.234375 C 141.941406 142.898438 143.566406 142.035156 145.382812 142.035156 L 153.324219 142.035156 C 156.449219 142.035156 159.007812 144.597656 159.007812 147.730469 L 159.007812 186.730469 C 159.007812 189.863281 156.449219 192.421875 153.324219 192.421875 L 145.382812 192.421875 C 143.566406 192.421875 141.941406 191.5625 140.902344 190.226562 C 140.148438 189.257812 139.695312 188.042969 139.695312 186.730469 L 139.695312 182.207031 L 139.722656 182.199219 Z M 139.695312 182.136719 " fill-opacity="1" fill-rule="evenodd"/><path fill="#008037" d="M 230.445312 209.140625 C 229.503906 209.949219 228.511719 210.695312 227.449219 211.359375 C 221.101562 215.320312 212.535156 215.460938 205.289062 215.460938 L 183.914062 215.460938 C 181.652344 215.460938 179.390625 214.539062 177.558594 213.078125 C 175.921875 211.773438 174.625 210.035156 173.972656 208.144531 C 173.386719 206.441406 172.566406 204.796875 171.964844 203.0625 C 171.574219 201.925781 171.238281 200.742188 171.066406 199.546875 C 170.949219 198.734375 170.925781 197.925781 171.019531 197.140625 L 167.691406 197.140625 C 165.152344 197.140625 162.769531 195.964844 161.207031 193.96875 L 160.972656 193.648438 C 159.464844 195.320312 157.285156 196.375 154.867188 196.375 L 147.296875 196.375 C 145.796875 196.375 144.355469 195.96875 143.101562 195.21875 C 143.101562 210.660156 147.441406 222.808594 161.507812 226.335938 C 161.199219 226.261719 164.511719 234.390625 164.949219 235.820312 C 166.097656 239.570312 167.085938 243.980469 167.839844 249.222656 L 206.457031 249.222656 C 207.207031 243.980469 208.195312 239.570312 209.34375 235.820312 C 210.589844 231.753906 212.023438 228.464844 213.539062 225.734375 C 213.046875 225.863281 230.445312 220.800781 230.445312 209.136719 Z M 223.105469 251.183594 L 218.058594 241.574219 C 217.40625 243.984375 216.839844 246.539062 216.277344 249.355469 L 216.117188 250.164062 C 218.445312 250.464844 220.777344 250.808594 223.105469 251.183594 Z M 208.214844 247.007812 C 208.089844 247.757812 207.976562 248.503906 207.867188 249.253906 L 208.984375 249.355469 C 210.542969 249.507812 212.105469 249.679688 213.667969 249.863281 L 213.550781 249.464844 C 212.386719 245.40625 213.375 240.761719 215.261719 236.242188 L 214.402344 234.609375 L 212.535156 231.050781 C 211.832031 232.746094 211.21875 234.480469 210.6875 236.230469 C 209.609375 239.75 208.816406 243.367188 208.214844 247.007812 Z M 208.214844 247.007812 " fill-opacity="1" fill-rule="evenodd"/><path fill="#008037" d="M 214.902344 249.078125 C 216.378906 241.660156 217.859375 233.964844 224.792969 222.679688 C 219.621094 230.15625 212.59375 241.046875 214.902344 249.078125 Z M 151.9375 243.058594 C 150.835938 237.527344 149.734375 231.792969 144.5625 223.378906 C 148.414062 228.953125 153.65625 237.074219 151.9375 243.058594 Z M 159.445312 249.078125 C 161.753906 241.046875 154.722656 230.15625 149.558594 222.679688 C 156.492188 233.964844 157.972656 241.660156 159.445312 249.078125 Z M 222.414062 243.058594 C 220.691406 237.074219 225.933594 228.953125 229.785156 223.378906 C 224.613281 231.792969 223.511719 237.527344 222.414062 243.058594 Z M 222.414062 243.058594 " fill-opacity="1" fill-rule="evenodd"/><path fill="#008037" d="M 215.289062 248.890625 L 214.960938 250.523438 L 214.574219 249.171875 C 213.394531 245.066406 214.585938 240.257812 216.730469 235.53125 C 218.855469 230.855469 221.90625 226.253906 224.496094 222.507812 L 224.511719 222.484375 L 225.082031 222.855469 C 218.257812 233.960938 216.742188 241.578125 215.285156 248.890625 Z M 214.898438 247.363281 C 215.925781 242.261719 217.140625 236.914062 220.265625 230.277344 C 219.203125 232.078125 218.203125 233.941406 217.355469 235.8125 C 215.550781 239.789062 214.433594 243.8125 214.898438 247.363281 Z M 151.601562 243.125 L 151.566406 242.9375 C 150.480469 237.492188 149.351562 231.824219 144.273438 223.558594 L 144.84375 223.1875 L 144.859375 223.207031 C 146.789062 226.003906 149.066406 229.433594 150.652344 232.925781 C 152.257812 236.464844 153.152344 240.070312 152.265625 243.152344 L 151.875 244.503906 Z M 148.773438 230.695312 C 150.457031 234.652344 151.253906 238 151.910156 241.195312 C 152.074219 238.707031 151.273438 235.945312 150.027344 233.203125 C 149.644531 232.363281 149.222656 231.523438 148.773438 230.695312 Z M 159.453125 247.363281 C 159.914062 243.808594 158.800781 239.789062 156.996094 235.8125 C 156.144531 233.941406 155.148438 232.082031 154.085938 230.289062 C 157.210938 236.917969 158.425781 242.261719 159.453125 247.363281 Z M 157.617188 235.53125 C 159.761719 240.257812 160.953125 245.066406 159.773438 249.171875 L 159.386719 250.523438 L 159.0625 248.902344 C 157.609375 241.589844 156.09375 233.96875 149.265625 222.855469 L 149.835938 222.484375 L 149.851562 222.503906 C 152.4375 226.253906 155.492188 230.851562 157.613281 235.53125 Z M 222.085938 243.152344 C 221.199219 240.070312 222.09375 236.464844 223.699219 232.925781 C 225.28125 229.4375 227.558594 226.003906 229.488281 223.207031 L 229.503906 223.1875 L 230.074219 223.558594 C 224.996094 231.828125 223.867188 237.496094 222.78125 242.9375 L 222.472656 244.503906 L 222.082031 243.152344 Z M 224.320312 233.207031 C 223.074219 235.945312 222.273438 238.710938 222.4375 241.195312 C 223.09375 238 223.890625 234.652344 225.574219 230.695312 C 225.125 231.527344 224.699219 232.363281 224.320312 233.203125 Z M 224.320312 233.207031 " fill-opacity="1" fill-rule="evenodd"/><g clip-path="url(#ee2cca9243)"><path fill="#008037" d="M 277.03125 270.382812 C 216.1875 257.082031 155.996094 257.085938 95.726562 270.382812 C 155.296875 246.542969 215.644531 244.199219 277.03125 270.382812 Z M 277.03125 270.382812 " fill-opacity="1" fill-rule="evenodd"/></g><path fill="#008037" d="M 233.640625 173.414062 L 271.6875 181.523438 C 271.898438 180.785156 272.296875 180.085938 272.882812 179.5 C 273.5 178.882812 274.242188 178.472656 275.023438 178.269531 C 271.820312 166.953125 271.222656 155.023438 273.101562 143.40625 C 271.828125 143.488281 270.539062 143.050781 269.578125 142.089844 C 269.019531 141.53125 268.640625 140.859375 268.429688 140.148438 L 268.875 139.988281 C 254.546875 145.042969 238.414062 148.515625 224.859375 150.25 L 224.859375 152.019531 C 225.851562 151.9375 226.722656 151.949219 228.03125 152.421875 L 232.089844 153.902344 C 235.800781 155.253906 234.796875 165.5625 234.15625 169.785156 C 233.976562 170.972656 233.816406 172.1875 233.640625 173.410156 Z M 254.375 165.894531 C 251.070312 166.210938 248.136719 163.78125 247.816406 160.472656 C 247.503906 157.164062 249.929688 154.222656 253.234375 153.910156 C 257.257812 153.527344 260.457031 157.144531 259.710938 161.042969 C 259.21875 163.597656 257.097656 165.632812 254.375 165.894531 Z M 254.375 165.894531 " fill-opacity="1" fill-rule="evenodd"/><path fill="#008037" d="M 253.664062 160.136719 L 253.835938 163.246094 C 252.28125 163.316406 252.253906 161.773438 252.207031 161.660156 C 252.191406 161.613281 252.023438 161.492188 252.011719 161.878906 C 252.007812 162.175781 251.960938 163.359375 252.121094 163.492188 C 252.429688 163.742188 253.417969 163.761719 253.863281 163.730469 L 253.933594 164.984375 L 254.605469 164.949219 L 254.53125 163.617188 C 256.414062 163.089844 256.835938 160.941406 255.210938 159.511719 L 254.265625 158.808594 L 254.125 156.164062 C 255.464844 156.117188 255.535156 157.355469 255.566406 157.402344 C 255.585938 157.433594 255.765625 157.566406 255.738281 157.128906 L 255.671875 155.824219 L 254.09375 155.699219 L 254.03125 154.441406 L 253.355469 154.480469 L 253.429688 155.820312 C 251.726562 156.339844 251.441406 158.140625 252.804688 159.453125 C 253.019531 159.65625 253.28125 159.867188 253.589844 160.082031 Z M 253.453125 156.332031 L 253.5625 158.300781 C 252.765625 157.640625 252.6875 156.792969 253.453125 156.332031 Z M 254.367188 160.640625 C 255.390625 161.464844 255.445312 162.613281 254.5 163.085938 Z M 254.367188 160.640625 " fill-opacity="1" fill-rule="evenodd"/><path fill="#008037" d="M 119.382812 173.363281 L 119.589844 177.105469 C 117.71875 177.195312 117.683594 175.332031 117.625 175.195312 C 117.605469 175.144531 117.402344 174.996094 117.394531 175.460938 C 117.386719 175.820312 117.328125 177.246094 117.523438 177.402344 C 117.894531 177.707031 119.082031 177.730469 119.621094 177.691406 L 119.707031 179.203125 L 120.515625 179.160156 L 120.425781 177.558594 C 122.695312 176.921875 123.203125 174.335938 121.25 172.609375 L 120.109375 171.761719 L 119.9375 168.578125 C 121.550781 168.519531 121.636719 170.011719 121.671875 170.066406 C 121.695312 170.109375 121.914062 170.269531 121.882812 169.742188 L 121.800781 168.167969 L 119.902344 168.015625 L 119.824219 166.503906 L 119.011719 166.546875 L 119.101562 168.164062 C 117.046875 168.792969 116.707031 170.960938 118.351562 172.539062 C 118.609375 172.785156 118.921875 173.039062 119.296875 173.296875 L 119.386719 173.363281 Z M 119.132812 168.78125 L 119.261719 171.152344 C 118.300781 170.359375 118.207031 169.335938 119.132812 168.78125 Z M 120.230469 173.96875 C 121.464844 174.964844 121.527344 176.347656 120.394531 176.917969 Z M 120.230469 173.96875 " fill-opacity="1" fill-rule="evenodd"/></svg>