<svg xmlns="http://www.w3.org/2000/svg" xmlns:xlink="http://www.w3.org/1999/xlink" width="500" zoomAndPan="magnify" viewBox="0 0 375 374.999991" height="500" preserveAspectRatio="xMidYMid meet" version="1.0"><defs><clipPath id="cb4ca5a707"><path d="M 206 145.28125 L 236 145.28125 L 236 165 L 206 165 Z M 206 145.28125 " clip-rule="nonzero"/></clipPath><clipPath id="65e44e7c5a"><path d="M 237 164 L 244.882812 164 L 244.882812 177 L 237 177 Z M 237 164 " clip-rule="nonzero"/></clipPath><clipPath id="0e0a106930"><path d="M 130.132812 178 L 137 178 L 137 191 L 130.132812 191 Z M 130.132812 178 " clip-rule="nonzero"/></clipPath><clipPath id="90b31d4471"><path d="M 130.132812 163 L 163 163 L 163 202 L 130.132812 202 Z M 130.132812 163 " clip-rule="nonzero"/></clipPath><clipPath id="215774caf4"><path d="M 140 220 L 234 220 L 234 230.03125 L 140 230.03125 Z M 140 220 " clip-rule="nonzero"/></clipPath></defs><rect x="-37.5" width="450" fill="#ffffff" y="-37.499999" height="449.999989" fill-opacity="1"/><rect x="-37.5" width="450" fill="#ffffff" y="-37.499999" height="449.999989" fill-opacity="1"/><g clip-path="url(#cb4ca5a707)"><path fill="#008037" d="M 232.257812 150.074219 C 231.960938 152.160156 231.84375 154.226562 231.898438 156.25 C 232.832031 155.820312 233.761719 155.378906 234.6875 154.929688 C 234.441406 151.878906 234.535156 148.671875 235.023438 145.285156 C 226.214844 152.941406 217.054688 159.574219 206.910156 163.375 C 207.050781 163.585938 207.175781 163.8125 207.289062 164.050781 C 214.953125 161.179688 225.605469 155.859375 232.257812 150.074219 Z M 232.257812 150.074219 " fill-opacity="1" fill-rule="evenodd"/></g><g clip-path="url(#65e44e7c5a)"><path fill="#008037" d="M 239.746094 167.726562 C 239.058594 168.660156 238.421875 169.613281 237.828125 170.585938 C 237.882812 172.601562 238.089844 174.609375 238.433594 176.605469 C 239.855469 172.542969 241.960938 168.519531 244.882812 164.542969 C 242.566406 165.0625 240.257812 165.546875 237.957031 165.976562 C 237.894531 166.691406 237.855469 167.402344 237.832031 168.113281 C 238.484375 167.996094 239.125 167.867188 239.746094 167.726562 Z M 239.746094 167.726562 " fill-opacity="1" fill-rule="evenodd"/></g><path fill="#008037" d="M 206.09375 165.859375 C 206.035156 165.574219 205.957031 165.300781 205.859375 165.039062 C 217.621094 163.554688 229.046875 158.800781 240.355469 152.867188 C 234.664062 167.394531 236.9375 180.28125 243.164062 192.355469 L 209.992188 185 C 210.242188 184.421875 210.433594 183.8125 210.585938 183.1875 L 237.527344 188.945312 C 232.828125 179.824219 231.910156 168.25 236.207031 157.273438 C 227.667969 161.753906 214.980469 164.734375 206.09375 165.859375 Z M 206.09375 165.859375 " fill-opacity="1" fill-rule="evenodd"/><path fill="#008037" d="M 232.871094 185.101562 C 232.835938 185 232.800781 184.898438 232.765625 184.796875 C 232.800781 184.898438 232.835938 185 232.871094 185.101562 Z M 232.871094 185.101562 " fill-opacity="1" fill-rule="evenodd"/><path fill="#008037" d="M 231.253906 164.835938 L 231.308594 164.496094 C 231.289062 164.609375 231.273438 164.722656 231.253906 164.835938 Z M 231.253906 164.835938 " fill-opacity="1" fill-rule="evenodd"/><path fill="#008037" d="M 231.449219 163.753906 C 231.46875 163.644531 231.492188 163.53125 231.511719 163.421875 C 231.492188 163.53125 231.46875 163.644531 231.449219 163.753906 Z M 231.449219 163.753906 " fill-opacity="1" fill-rule="evenodd"/><path fill="#008037" d="M 231.515625 163.410156 C 231.539062 163.300781 231.5625 163.1875 231.582031 163.078125 Z M 231.515625 163.410156 " fill-opacity="1" fill-rule="evenodd"/><path fill="#008037" d="M 231.59375 163.035156 C 231.613281 162.933594 231.636719 162.835938 231.660156 162.734375 C 231.636719 162.835938 231.613281 162.933594 231.59375 163.035156 Z M 231.59375 163.035156 " fill-opacity="1" fill-rule="evenodd"/><path fill="#008037" d="M 231.667969 162.691406 C 231.695312 162.578125 231.71875 162.464844 231.742188 162.351562 C 231.71875 162.464844 231.691406 162.578125 231.667969 162.691406 Z M 231.667969 162.691406 " fill-opacity="1" fill-rule="evenodd"/><path fill="#008037" d="M 230.011719 155.523438 C 230.015625 156.046875 230.027344 156.566406 230.050781 157.085938 C 229.355469 157.394531 228.660156 157.699219 227.957031 157.996094 C 227.875 157.957031 227.792969 157.914062 227.714844 157.863281 C 227.402344 157.671875 227.160156 157.410156 226.988281 157.105469 C 224.972656 158.398438 222.847656 159.628906 220.6875 160.777344 C 219.421875 161.207031 218.144531 161.609375 216.863281 161.984375 C 218.289062 161.292969 219.695312 160.570312 221.078125 159.816406 C 223.789062 158.347656 226.449219 156.75 228.980469 154.984375 L 230.003906 154.269531 Z M 230.011719 155.523438 " fill-opacity="1" fill-rule="evenodd"/><path fill="#008037" d="M 142.941406 161.609375 C 143.074219 162.726562 143.160156 163.847656 143.191406 164.96875 L 143.882812 165.089844 C 143.871094 164.625 143.851562 164.160156 143.824219 163.695312 C 144.214844 163.679688 144.613281 163.5625 144.96875 163.332031 C 145.308594 163.113281 145.570312 162.820312 145.746094 162.488281 L 156.207031 167.214844 L 158.917969 167.683594 L 142.792969 160.394531 Z M 142.941406 161.609375 " fill-opacity="1" fill-rule="evenodd"/><path fill="#008037" d="M 137.371094 163.964844 C 137.15625 160.203125 136.492188 156.433594 135.472656 152.664062 L 164.625 166.109375 L 164.972656 166.265625 C 164.625 166.757812 164.324219 167.289062 164.050781 167.84375 L 163.285156 167.496094 L 140.050781 156.992188 C 140.710938 159.453125 141.105469 162.015625 141.210938 164.628906 Z M 137.371094 163.964844 " fill-opacity="1" fill-rule="evenodd"/><g clip-path="url(#0e0a106930)"><path fill="#008037" d="M 134.894531 186.84375 C 135.507812 185.917969 136.074219 184.980469 136.597656 184.027344 C 136.453125 182.101562 136.167969 180.195312 135.75 178.304688 C 134.574219 182.25 132.742188 186.1875 130.132812 190.113281 C 132.320312 189.511719 134.503906 188.945312 136.679688 188.433594 C 136.707031 187.746094 136.714844 187.066406 136.703125 186.386719 C 136.085938 186.527344 135.484375 186.679688 134.894531 186.84375 Z M 134.894531 186.84375 " fill-opacity="1" fill-rule="evenodd"/></g><g clip-path="url(#90b31d4471)"><path fill="#008037" d="M 162.351562 188.0625 L 162.375 188.957031 C 153 191.367188 143.929688 195.804688 134.980469 201.054688 C 139.761719 186.929688 137.011719 174.730469 130.527344 163.484375 L 162.523438 169.007812 C 162.3125 169.570312 162.160156 170.160156 162.039062 170.769531 L 136.0625 166.488281 C 140.957031 174.984375 142.355469 185.992188 138.742188 196.664062 C 145.289062 192.820312 154.570312 189.824219 162.351562 188.066406 Z M 162.351562 188.0625 " fill-opacity="1" fill-rule="evenodd"/></g><path fill="#008037" d="M 142.097656 191.488281 C 143.382812 184.355469 142.730469 176.941406 140.039062 170.203125 L 139.585938 169.066406 L 162.433594 172.832031 L 162.371094 173.472656 C 162.316406 174.066406 162.265625 174.664062 162.203125 175.261719 C 162.089844 176.371094 162.035156 177.523438 162.070312 178.640625 C 162.074219 178.789062 162.082031 179.019531 162.105469 179.296875 L 162.191406 182.347656 C 161.128906 180.851562 161.335938 176.949219 161.519531 175.1875 C 161.582031 174.605469 161.628906 174.007812 161.6875 173.40625 L 140.679688 169.945312 L 142.976562 170.324219 C 142.890625 170.6875 142.714844 171.039062 142.441406 171.339844 C 142.15625 171.652344 141.804688 171.871094 141.425781 171.988281 C 143.273438 177.519531 143.824219 183.417969 143.132812 189.210938 L 143.164062 188.964844 C 143.777344 188.894531 144.417969 189.078125 144.910156 189.523438 C 145.191406 189.785156 145.394531 190.101562 145.511719 190.445312 L 145.292969 190.535156 C 150.734375 188.316406 156.746094 186.558594 162.273438 185.347656 L 162.292969 186.046875 C 158.855469 186.800781 155.441406 187.726562 152.109375 188.796875 C 149.039062 189.785156 145.996094 190.917969 143.054688 192.242188 L 141.867188 192.78125 L 142.097656 191.492188 Z M 142.097656 191.488281 " fill-opacity="1" fill-rule="evenodd"/><path fill="#008037" d="M 140.679688 169.945312 C 140.71875 170.039062 140.753906 170.132812 140.792969 170.230469 C 140.753906 170.136719 140.714844 170.039062 140.679688 169.945312 Z M 140.679688 169.945312 " fill-opacity="1" fill-rule="evenodd"/><path fill="#008037" d="M 143.132812 189.21875 L 143.09375 189.542969 C 143.105469 189.4375 143.121094 189.328125 143.132812 189.21875 Z M 143.132812 189.21875 " fill-opacity="1" fill-rule="evenodd"/><path fill="#008037" d="M 142.996094 190.257812 C 142.980469 190.363281 142.964844 190.472656 142.945312 190.578125 C 142.960938 190.472656 142.980469 190.363281 142.996094 190.257812 Z M 142.996094 190.257812 " fill-opacity="1" fill-rule="evenodd"/><path fill="#008037" d="M 142.945312 190.589844 C 142.929688 190.695312 142.910156 190.804688 142.894531 190.910156 Z M 142.945312 190.589844 " fill-opacity="1" fill-rule="evenodd"/><path fill="#008037" d="M 142.886719 190.953125 C 142.871094 191.046875 142.855469 191.144531 142.839844 191.242188 C 142.855469 191.144531 142.871094 191.046875 142.886719 190.953125 Z M 142.886719 190.953125 " fill-opacity="1" fill-rule="evenodd"/><path fill="#008037" d="M 142.832031 191.28125 C 142.8125 191.394531 142.792969 191.503906 142.773438 191.613281 C 142.792969 191.503906 142.8125 191.394531 142.832031 191.28125 Z M 142.832031 191.28125 " fill-opacity="1" fill-rule="evenodd"/><path fill="#008037" d="M 185.4375 161.523438 L 185.4375 161.328125 C 185.4375 160.660156 185.667969 160.039062 186.050781 159.542969 C 186.585938 158.859375 187.414062 158.417969 188.339844 158.417969 L 192.386719 158.417969 C 193.984375 158.417969 195.289062 159.726562 195.289062 161.328125 L 195.289062 188.308594 C 195.289062 188.550781 195.257812 188.785156 195.203125 189.011719 L 185.523438 189.011719 C 185.46875 188.785156 185.4375 188.550781 185.4375 188.308594 L 185.4375 188.113281 C 185.4375 181.621094 185.4375 168.039062 185.4375 161.523438 Z M 206.605469 170.894531 L 205.6875 184.863281 C 205.5625 185.054688 205.234375 185.367188 205.121094 185.480469 C 204.550781 186.023438 203.972656 186.539062 203.425781 187.109375 C 202.417969 188.15625 201.335938 189.011719 199.824219 189.011719 L 197.519531 189.011719 C 197.464844 188.957031 197.414062 188.898438 197.371094 188.835938 C 196.984375 188.34375 196.753906 187.722656 196.753906 187.050781 L 196.753906 163.074219 C 196.753906 162.402344 196.984375 161.78125 197.371094 161.289062 C 197.902344 160.605469 198.730469 160.164062 199.65625 160.164062 L 203.703125 160.164062 C 205.300781 160.164062 206.605469 161.476562 206.605469 163.074219 Z M 183.929688 187.640625 L 183.929688 187.664062 C 183.929688 188.152344 183.808594 188.609375 183.597656 189.011719 L 182.257812 189.011719 C 181.253906 189.011719 180.289062 189.363281 179.59375 190.105469 C 179.457031 190.253906 179.335938 190.410156 179.230469 190.574219 L 176.980469 190.574219 C 176.054688 190.574219 175.226562 190.136719 174.695312 189.453125 C 174.308594 188.957031 174.078125 188.335938 174.078125 187.664062 L 174.078125 163.691406 C 174.078125 163.019531 174.308594 162.398438 174.695312 161.90625 C 175.226562 161.222656 176.054688 160.78125 176.980469 160.78125 L 181.027344 160.78125 C 182.625 160.78125 183.929688 162.089844 183.929688 163.691406 Z M 207.386719 183.039062 L 208.109375 183.410156 C 208.15625 183.261719 208.203125 183.109375 208.246094 182.957031 L 207.667969 182.835938 L 208.070312 180.011719 C 208.160156 179.382812 208.242188 178.757812 208.339844 178.132812 C 208.5 177.070312 208.601562 175.992188 208.621094 174.917969 C 208.628906 174.527344 208.609375 173.652344 208.511719 173.066406 L 207.976562 172.871094 L 207.300781 183.203125 Z M 197.09375 200.402344 C 207.164062 200.402344 208.578125 198.863281 213.265625 193.46875 L 206.230469 189.8125 L 203.996094 188.652344 C 203.316406 189.292969 202.582031 189.824219 201.746094 190.15625 L 201.734375 190.160156 L 201.589844 190.210938 L 201.523438 190.238281 L 201.511719 190.238281 L 201.445312 190.261719 L 201.433594 190.265625 L 201.367188 190.285156 L 201.355469 190.289062 L 201.289062 190.308594 L 201.277344 190.3125 L 201.207031 190.332031 L 201.199219 190.335938 L 201.167969 190.34375 L 201.117188 190.355469 L 201.042969 190.375 L 201.035156 190.375 L 200.960938 190.394531 L 200.953125 190.394531 L 200.917969 190.402344 L 200.785156 190.425781 L 200.710938 190.441406 L 200.703125 190.441406 L 200.625 190.453125 L 200.617188 190.453125 L 200.539062 190.464844 L 200.535156 190.464844 L 200.453125 190.476562 L 200.449219 190.476562 L 200.363281 190.488281 L 200.359375 190.488281 L 200.277344 190.496094 L 200.273438 190.496094 L 200.183594 190.5 L 200.097656 190.507812 L 200.007812 190.511719 L 199.824219 190.511719 C 199.824219 190.515625 194.179688 190.511719 193.691406 190.511719 L 186.5625 190.511719 C 184.3125 190.511719 179.75 189.519531 180.273438 193.152344 C 180.492188 194.683594 181.421875 196.496094 181.761719 197.484375 C 182.3125 199.085938 184.066406 200.398438 185.664062 200.398438 L 197.097656 200.398438 Z M 199.914062 190.515625 Z M 200.003906 190.511719 Z M 200.1875 190.503906 Z M 201.589844 190.210938 Z M 163.171875 184.90625 L 163.171875 169.660156 L 163.183594 169.628906 L 163.171875 169.625 L 163.171875 167.3125 C 163.171875 166.640625 163.402344 166.019531 163.785156 165.523438 C 164.316406 164.839844 165.144531 164.398438 166.070312 164.398438 L 170.121094 164.398438 C 171.714844 164.398438 173.019531 165.710938 173.019531 167.3125 L 173.019531 187.253906 C 173.019531 188.855469 171.714844 190.164062 170.121094 190.164062 L 166.070312 190.164062 C 165.144531 190.164062 164.316406 189.722656 163.785156 189.039062 C 163.402344 188.546875 163.171875 187.925781 163.171875 187.253906 L 163.171875 184.941406 L 163.183594 184.9375 Z M 163.171875 184.90625 " fill-opacity="1" fill-rule="evenodd"/><path fill="#008037" d="M 209.453125 198.710938 C 208.972656 199.125 208.46875 199.507812 207.925781 199.847656 C 204.6875 201.871094 200.320312 201.941406 196.625 201.941406 L 185.722656 201.941406 C 184.566406 201.941406 183.414062 201.472656 182.480469 200.726562 C 181.644531 200.058594 180.984375 199.167969 180.652344 198.203125 C 180.351562 197.332031 179.933594 196.488281 179.628906 195.605469 C 179.429688 195.023438 179.257812 194.417969 179.167969 193.808594 C 179.109375 193.390625 179.097656 192.976562 179.148438 192.578125 L 177.449219 192.578125 C 176.152344 192.578125 174.9375 191.976562 174.144531 190.953125 L 174.023438 190.789062 C 173.253906 191.644531 172.140625 192.183594 170.90625 192.183594 L 167.046875 192.183594 C 166.285156 192.183594 165.546875 191.976562 164.90625 191.59375 C 164.90625 199.488281 167.121094 205.703125 174.296875 207.503906 C 174.136719 207.464844 175.828125 211.625 176.050781 212.355469 C 176.636719 214.269531 177.140625 216.527344 177.523438 219.207031 L 197.21875 219.207031 C 197.601562 216.527344 198.105469 214.269531 198.691406 212.355469 C 199.328125 210.273438 200.058594 208.59375 200.832031 207.195312 C 200.578125 207.261719 209.453125 204.675781 209.453125 198.710938 Z M 205.710938 220.207031 L 203.136719 215.296875 C 202.804688 216.53125 202.515625 217.835938 202.226562 219.273438 L 202.144531 219.6875 C 203.332031 219.84375 204.523438 220.015625 205.710938 220.207031 Z M 198.117188 218.074219 C 198.050781 218.457031 197.996094 218.839844 197.9375 219.222656 L 198.507812 219.277344 C 199.304688 219.351562 200.101562 219.441406 200.894531 219.535156 L 200.839844 219.332031 C 200.242188 217.253906 200.746094 214.882812 201.710938 212.570312 L 201.273438 211.734375 L 200.320312 209.917969 C 199.960938 210.78125 199.648438 211.667969 199.375 212.5625 C 198.828125 214.363281 198.421875 216.214844 198.117188 218.074219 Z M 198.117188 218.074219 " fill-opacity="1" fill-rule="evenodd"/><path fill="#008037" d="M 201.527344 219.132812 C 202.28125 215.339844 203.035156 211.40625 206.570312 205.632812 C 203.933594 209.457031 200.347656 215.027344 201.527344 219.132812 Z M 169.414062 216.054688 C 168.851562 213.226562 168.289062 210.296875 165.652344 205.992188 C 167.617188 208.84375 170.289062 212.996094 169.414062 216.054688 Z M 173.246094 219.132812 C 174.421875 215.027344 170.835938 209.457031 168.199219 205.632812 C 171.738281 211.40625 172.492188 215.339844 173.246094 219.132812 Z M 205.355469 216.054688 C 204.480469 212.996094 207.152344 208.84375 209.117188 205.992188 C 206.480469 210.296875 205.917969 213.226562 205.355469 216.054688 Z M 205.355469 216.054688 " fill-opacity="1" fill-rule="evenodd"/><path fill="#008037" d="M 201.722656 219.035156 L 201.558594 219.871094 L 201.359375 219.179688 C 200.757812 217.082031 201.367188 214.625 202.460938 212.207031 C 203.542969 209.816406 205.097656 207.460938 206.417969 205.546875 L 206.425781 205.535156 L 206.71875 205.726562 C 203.238281 211.402344 202.464844 215.296875 201.722656 219.039062 Z M 201.523438 218.257812 C 202.046875 215.648438 202.667969 212.914062 204.261719 209.519531 C 203.71875 210.441406 203.210938 211.394531 202.777344 212.347656 C 201.855469 214.382812 201.285156 216.441406 201.523438 218.257812 Z M 169.242188 216.089844 L 169.226562 215.992188 C 168.671875 213.210938 168.097656 210.3125 165.507812 206.082031 L 165.796875 205.894531 L 165.804688 205.90625 C 166.789062 207.335938 167.949219 209.089844 168.757812 210.875 C 169.578125 212.683594 170.035156 214.527344 169.582031 216.101562 L 169.382812 216.792969 Z M 167.800781 209.734375 C 168.660156 211.757812 169.066406 213.46875 169.402344 215.101562 C 169.484375 213.832031 169.074219 212.417969 168.441406 211.015625 C 168.246094 210.585938 168.03125 210.15625 167.800781 209.734375 Z M 173.246094 218.257812 C 173.484375 216.4375 172.914062 214.382812 171.992188 212.347656 C 171.5625 211.394531 171.050781 210.445312 170.511719 209.523438 C 172.101562 212.914062 172.722656 215.648438 173.246094 218.257812 Z M 172.308594 212.207031 C 173.40625 214.625 174.011719 217.082031 173.410156 219.179688 L 173.210938 219.871094 L 173.046875 219.042969 C 172.304688 215.304688 171.535156 211.40625 168.050781 205.726562 L 168.34375 205.535156 L 168.351562 205.546875 C 169.671875 207.460938 171.226562 209.8125 172.308594 212.207031 Z M 205.191406 216.101562 C 204.738281 214.527344 205.195312 212.683594 206.011719 210.875 C 206.820312 209.089844 207.980469 207.335938 208.964844 205.90625 L 208.972656 205.894531 L 209.265625 206.085938 C 206.675781 210.3125 206.097656 213.210938 205.546875 215.992188 L 205.386719 216.792969 L 205.1875 216.101562 Z M 206.328125 211.015625 C 205.695312 212.417969 205.285156 213.832031 205.371094 215.101562 C 205.703125 213.46875 206.109375 211.757812 206.96875 209.734375 C 206.738281 210.15625 206.523438 210.585938 206.328125 211.015625 Z M 206.328125 211.015625 " fill-opacity="1" fill-rule="evenodd"/><g clip-path="url(#215774caf4)"><path fill="#008037" d="M 233.214844 230.027344 C 202.183594 223.226562 171.484375 223.226562 140.746094 230.027344 C 171.128906 217.835938 201.90625 216.636719 233.214844 230.027344 Z M 233.214844 230.027344 " fill-opacity="1" fill-rule="evenodd"/></g><path fill="#008037" d="M 211.085938 180.445312 L 230.484375 184.589844 C 230.59375 184.214844 230.796875 183.855469 231.097656 183.554688 C 231.410156 183.242188 231.789062 183.03125 232.1875 182.925781 C 230.554688 177.140625 230.25 171.042969 231.207031 165.101562 C 230.558594 165.144531 229.902344 164.917969 229.410156 164.425781 C 229.125 164.140625 228.933594 163.800781 228.828125 163.433594 L 229.054688 163.351562 C 221.746094 165.9375 213.519531 167.714844 206.605469 168.597656 L 206.605469 169.503906 C 207.109375 169.460938 207.554688 169.46875 208.222656 169.710938 L 210.292969 170.464844 C 212.183594 171.15625 211.671875 176.429688 211.347656 178.585938 C 211.253906 179.195312 211.171875 179.816406 211.082031 180.441406 Z M 221.65625 176.597656 C 219.972656 176.761719 218.476562 175.519531 218.3125 173.828125 C 218.152344 172.132812 219.390625 170.632812 221.078125 170.46875 C 223.128906 170.273438 224.761719 172.125 224.378906 174.117188 C 224.128906 175.425781 223.046875 176.464844 221.65625 176.597656 Z M 221.65625 176.597656 " fill-opacity="1" fill-rule="evenodd"/><path fill="#008037" d="M 221.296875 173.65625 L 221.382812 175.242188 C 220.589844 175.28125 220.578125 174.492188 220.550781 174.433594 C 220.542969 174.410156 220.457031 174.347656 220.453125 174.546875 C 220.449219 174.699219 220.425781 175.304688 220.507812 175.371094 C 220.664062 175.5 221.167969 175.507812 221.398438 175.492188 L 221.433594 176.132812 L 221.777344 176.117188 L 221.738281 175.4375 C 222.699219 175.164062 222.914062 174.066406 222.085938 173.335938 L 221.601562 172.976562 L 221.53125 171.625 C 222.214844 171.597656 222.25 172.234375 222.265625 172.257812 C 222.273438 172.273438 222.367188 172.339844 222.351562 172.117188 L 222.320312 171.449219 L 221.515625 171.386719 L 221.480469 170.742188 L 221.136719 170.761719 L 221.175781 171.449219 C 220.304688 171.714844 220.164062 172.632812 220.859375 173.304688 C 220.964844 173.410156 221.097656 173.515625 221.257812 173.628906 Z M 221.1875 171.710938 L 221.242188 172.71875 C 220.835938 172.378906 220.796875 171.945312 221.1875 171.710938 Z M 221.652344 173.914062 C 222.175781 174.335938 222.203125 174.921875 221.722656 175.164062 Z M 221.652344 173.914062 " fill-opacity="1" fill-rule="evenodd"/><path fill="#008037" d="M 152.8125 180.417969 L 152.917969 182.332031 C 151.964844 182.378906 151.945312 181.425781 151.914062 181.355469 C 151.90625 181.328125 151.800781 181.253906 151.796875 181.492188 C 151.792969 181.675781 151.765625 182.402344 151.863281 182.484375 C 152.054688 182.636719 152.660156 182.652344 152.933594 182.632812 L 152.976562 183.40625 L 153.390625 183.382812 L 153.34375 182.5625 C 154.5 182.238281 154.761719 180.914062 153.761719 180.03125 L 153.179688 179.597656 L 153.09375 177.972656 C 153.917969 177.941406 153.960938 178.703125 153.980469 178.734375 C 153.992188 178.753906 154.101562 178.835938 154.085938 178.566406 L 154.046875 177.761719 L 153.074219 177.683594 L 153.035156 176.910156 L 152.621094 176.933594 L 152.667969 177.757812 C 151.621094 178.082031 151.445312 179.191406 152.285156 179.996094 C 152.417969 180.121094 152.578125 180.253906 152.765625 180.382812 Z M 152.683594 178.074219 L 152.75 179.289062 C 152.257812 178.882812 152.210938 178.359375 152.683594 178.074219 Z M 153.242188 180.726562 C 153.875 181.238281 153.90625 181.945312 153.328125 182.234375 Z M 153.242188 180.726562 " fill-opacity="1" fill-rule="evenodd"/></svg>