<svg xmlns="http://www.w3.org/2000/svg" xmlns:xlink="http://www.w3.org/1999/xlink" width="400" zoomAndPan="magnify" viewBox="0 0 300 299.999988" height="400" preserveAspectRatio="xMidYMid meet" version="1.0"><defs><clipPath id="f905779c59"><path d="M 188 66.167969 L 245 66.167969 L 245 104 L 188 104 Z M 188 66.167969 " clip-rule="nonzero"/></clipPath><clipPath id="4030be6613"><path d="M 250 104 L 264.089844 104 L 264.089844 129 L 250 129 Z M 250 104 " clip-rule="nonzero"/></clipPath><clipPath id="8ff3d6ff2f"><path d="M 36.089844 131 L 50 131 L 50 156 L 36.089844 156 Z M 36.089844 131 " clip-rule="nonzero"/></clipPath><clipPath id="e8388af506"><path d="M 36.089844 102 L 101 102 L 101 177 L 36.089844 177 Z M 36.089844 102 " clip-rule="nonzero"/></clipPath><clipPath id="37ed073639"><path d="M 57 215 L 241 215 L 241 234.167969 L 57 234.167969 Z M 57 215 " clip-rule="nonzero"/></clipPath></defs><g clip-path="url(#f905779c59)"><path fill="#008037" d="M 239.007812 75.671875 C 238.414062 79.804688 238.183594 83.898438 238.289062 87.917969 C 240.148438 87.058594 241.996094 86.1875 243.832031 85.292969 C 243.34375 79.25 243.535156 72.894531 244.5 66.179688 C 227 81.355469 208.796875 94.503906 188.636719 102.039062 C 188.925781 102.457031 189.171875 102.90625 189.390625 103.378906 C 204.621094 97.6875 225.785156 87.140625 239.007812 75.671875 Z M 239.007812 75.671875 " fill-opacity="1" fill-rule="evenodd"/></g><g clip-path="url(#4030be6613)"><path fill="#008037" d="M 253.886719 110.660156 C 252.519531 112.515625 251.25 114.40625 250.074219 116.328125 C 250.183594 120.328125 250.589844 124.304688 251.273438 128.265625 C 254.101562 120.207031 258.289062 112.230469 264.089844 104.347656 C 259.492188 105.386719 254.902344 106.34375 250.328125 107.191406 C 250.210938 108.609375 250.128906 110.023438 250.082031 111.433594 C 251.378906 111.195312 252.648438 110.9375 253.886719 110.660156 Z M 253.886719 110.660156 " fill-opacity="1" fill-rule="evenodd"/></g><path fill="#008037" d="M 187.015625 106.957031 C 186.902344 106.398438 186.75 105.859375 186.550781 105.339844 C 209.925781 102.390625 232.628906 92.972656 255.097656 81.210938 C 243.785156 110.003906 248.308594 135.546875 260.671875 159.484375 L 194.765625 144.90625 C 195.257812 143.761719 195.640625 142.550781 195.949219 141.308594 L 249.476562 152.726562 C 240.136719 134.644531 238.3125 111.699219 246.855469 89.941406 C 229.886719 98.828125 204.675781 104.734375 187.015625 106.960938 Z M 187.015625 106.957031 " fill-opacity="1" fill-rule="evenodd"/><path fill="#008037" d="M 240.222656 145.101562 C 240.152344 144.902344 240.085938 144.703125 240.015625 144.5 C 240.085938 144.703125 240.152344 144.902344 240.222656 145.101562 Z M 240.222656 145.101562 " fill-opacity="1" fill-rule="evenodd"/><path fill="#008037" d="M 237.007812 104.929688 L 237.121094 104.257812 C 237.082031 104.480469 237.046875 104.707031 237.007812 104.929688 Z M 237.007812 104.929688 " fill-opacity="1" fill-rule="evenodd"/><path fill="#008037" d="M 237.394531 102.792969 C 237.4375 102.566406 237.484375 102.347656 237.527344 102.128906 C 237.484375 102.347656 237.4375 102.566406 237.394531 102.792969 Z M 237.394531 102.792969 " fill-opacity="1" fill-rule="evenodd"/><path fill="#008037" d="M 237.53125 102.109375 C 237.574219 101.890625 237.621094 101.667969 237.667969 101.449219 Z M 237.53125 102.109375 " fill-opacity="1" fill-rule="evenodd"/><path fill="#008037" d="M 237.6875 101.363281 C 237.730469 101.164062 237.769531 100.964844 237.816406 100.769531 C 237.769531 100.96875 237.726562 101.164062 237.6875 101.363281 Z M 237.6875 101.363281 " fill-opacity="1" fill-rule="evenodd"/><path fill="#008037" d="M 237.835938 100.683594 C 237.882812 100.457031 237.933594 100.230469 237.984375 100.007812 C 237.933594 100.230469 237.882812 100.457031 237.835938 100.683594 Z M 237.835938 100.683594 " fill-opacity="1" fill-rule="evenodd"/><path fill="#008037" d="M 234.542969 86.472656 C 234.546875 87.507812 234.578125 88.539062 234.621094 89.570312 C 233.242188 90.183594 231.855469 90.78125 230.460938 91.371094 C 230.296875 91.296875 230.132812 91.210938 229.980469 91.113281 C 229.363281 90.730469 228.875 90.210938 228.535156 89.613281 C 224.53125 92.167969 220.308594 94.609375 216.015625 96.886719 C 213.5 97.742188 210.96875 98.539062 208.417969 99.277344 C 211.25 97.90625 214.046875 96.472656 216.792969 94.984375 C 222.179688 92.074219 227.464844 88.902344 232.492188 85.40625 L 234.527344 83.992188 Z M 234.542969 86.472656 " fill-opacity="1" fill-rule="evenodd"/><path fill="#008037" d="M 61.539062 98.539062 C 61.808594 100.753906 61.972656 102.976562 62.039062 105.199219 L 63.414062 105.433594 C 63.390625 104.515625 63.347656 103.59375 63.292969 102.675781 C 64.074219 102.640625 64.863281 102.40625 65.570312 101.949219 C 66.242188 101.515625 66.765625 100.933594 67.117188 100.277344 L 87.894531 109.652344 L 93.28125 110.578125 L 61.246094 96.128906 Z M 61.539062 98.539062 " fill-opacity="1" fill-rule="evenodd"/><path fill="#008037" d="M 50.472656 103.207031 C 50.050781 95.746094 48.722656 88.277344 46.703125 80.804688 L 104.628906 107.453125 L 105.316406 107.769531 C 104.625 108.742188 104.027344 109.792969 103.488281 110.894531 L 101.964844 110.207031 L 55.796875 89.386719 C 57.113281 94.261719 57.890625 99.34375 58.101562 104.519531 Z M 50.472656 103.207031 " fill-opacity="1" fill-rule="evenodd"/><g clip-path="url(#8ff3d6ff2f)"><path fill="#008037" d="M 45.550781 148.558594 C 46.773438 146.726562 47.898438 144.863281 48.9375 142.976562 C 48.648438 139.160156 48.085938 135.382812 47.253906 131.636719 C 44.914062 139.453125 41.277344 147.253906 36.089844 155.042969 C 40.4375 153.847656 44.773438 152.726562 49.101562 151.710938 C 49.152344 150.351562 49.167969 148.996094 49.144531 147.652344 C 47.917969 147.933594 46.71875 148.238281 45.550781 148.558594 Z M 45.550781 148.558594 " fill-opacity="1" fill-rule="evenodd"/></g><g clip-path="url(#e8388af506)"><path fill="#008037" d="M 100.105469 150.976562 L 100.15625 152.746094 C 81.523438 157.523438 63.5 166.320312 45.71875 176.726562 C 55.222656 148.726562 49.757812 124.546875 36.878906 102.253906 L 100.449219 113.203125 C 100.03125 114.320312 99.722656 115.488281 99.488281 116.691406 L 47.871094 108.207031 C 57.601562 125.050781 60.371094 146.871094 53.195312 168.023438 C 66.207031 160.40625 84.644531 154.46875 100.105469 150.980469 Z M 100.105469 150.976562 " fill-opacity="1" fill-rule="evenodd"/></g><path fill="#008037" d="M 59.863281 157.769531 C 62.417969 143.621094 61.125 128.933594 55.777344 115.570312 L 54.875 113.316406 L 100.269531 120.78125 L 100.148438 122.054688 C 100.035156 123.234375 99.933594 124.417969 99.8125 125.597656 C 99.585938 127.804688 99.476562 130.082031 99.542969 132.296875 C 99.554688 132.589844 99.574219 133.050781 99.613281 133.597656 L 99.785156 139.648438 C 97.675781 136.683594 98.089844 128.945312 98.453125 125.457031 C 98.574219 124.300781 98.671875 123.113281 98.785156 121.921875 L 57.046875 115.0625 L 61.609375 115.8125 C 61.441406 116.535156 61.085938 117.230469 60.546875 117.824219 C 59.980469 118.449219 59.277344 118.878906 58.53125 119.109375 C 62.199219 130.074219 63.296875 141.765625 61.925781 153.253906 L 61.980469 152.761719 C 63.207031 152.621094 64.476562 152.988281 65.449219 153.875 C 66.015625 154.390625 66.414062 155.019531 66.648438 155.699219 L 66.214844 155.875 C 77.023438 151.480469 88.972656 147.992188 99.953125 145.59375 L 99.992188 146.980469 C 93.160156 148.476562 86.375 150.308594 79.757812 152.433594 C 73.660156 154.394531 67.613281 156.636719 61.769531 159.261719 L 59.402344 160.328125 Z M 59.863281 157.769531 " fill-opacity="1" fill-rule="evenodd"/><path fill="#008037" d="M 57.046875 115.0625 C 57.121094 115.25 57.195312 115.4375 57.269531 115.625 C 57.195312 115.4375 57.121094 115.25 57.046875 115.0625 Z M 57.046875 115.0625 " fill-opacity="1" fill-rule="evenodd"/><path fill="#008037" d="M 61.921875 153.265625 L 61.84375 153.914062 C 61.871094 153.699219 61.898438 153.480469 61.921875 153.265625 Z M 61.921875 153.265625 " fill-opacity="1" fill-rule="evenodd"/><path fill="#008037" d="M 61.648438 155.328125 C 61.617188 155.539062 61.585938 155.753906 61.550781 155.964844 C 61.582031 155.753906 61.617188 155.539062 61.648438 155.328125 Z M 61.648438 155.328125 " fill-opacity="1" fill-rule="evenodd"/><path fill="#008037" d="M 61.546875 155.980469 C 61.515625 156.195312 61.480469 156.410156 61.445312 156.621094 Z M 61.546875 155.980469 " fill-opacity="1" fill-rule="evenodd"/><path fill="#008037" d="M 61.433594 156.703125 C 61.402344 156.890625 61.371094 157.085938 61.339844 157.277344 C 61.371094 157.085938 61.402344 156.890625 61.433594 156.703125 Z M 61.433594 156.703125 " fill-opacity="1" fill-rule="evenodd"/><path fill="#008037" d="M 61.324219 157.359375 C 61.285156 157.578125 61.25 157.796875 61.207031 158.011719 C 61.25 157.796875 61.285156 157.578125 61.324219 157.359375 Z M 61.324219 157.359375 " fill-opacity="1" fill-rule="evenodd"/><path fill="#deef75" d="M 145.976562 98.367188 L 145.976562 97.980469 C 145.976562 96.652344 146.433594 95.421875 147.199219 94.441406 C 148.257812 93.085938 149.902344 92.210938 151.742188 92.210938 L 159.785156 92.210938 C 162.957031 92.210938 165.550781 94.808594 165.550781 97.980469 L 165.550781 151.460938 C 165.550781 151.941406 165.492188 152.410156 165.378906 152.859375 L 146.148438 152.859375 C 146.035156 152.410156 145.976562 151.941406 145.976562 151.460938 L 145.976562 151.078125 C 145.976562 138.203125 145.976562 111.28125 145.976562 98.367188 Z M 188.039062 116.941406 L 186.214844 144.636719 C 185.964844 145.007812 185.316406 145.632812 185.085938 145.855469 C 183.953125 146.933594 182.804688 147.957031 181.71875 149.085938 C 179.714844 151.160156 177.570312 152.859375 174.558594 152.859375 L 169.984375 152.859375 C 169.878906 152.746094 169.777344 152.628906 169.683594 152.507812 C 168.921875 151.527344 168.464844 150.296875 168.464844 148.964844 L 168.464844 101.441406 C 168.464844 100.109375 168.917969 98.882812 169.683594 97.902344 C 170.742188 96.550781 172.386719 95.675781 174.230469 95.675781 L 182.273438 95.675781 C 185.441406 95.675781 188.039062 98.269531 188.039062 101.445312 L 188.039062 116.945312 Z M 142.980469 150.136719 L 142.980469 150.1875 C 142.980469 151.152344 142.742188 152.054688 142.324219 152.859375 L 139.65625 152.859375 C 137.664062 152.859375 135.746094 153.550781 134.367188 155.023438 C 134.09375 155.320312 133.851562 155.632812 133.644531 155.957031 L 129.175781 155.957031 C 127.332031 155.957031 125.6875 155.085938 124.628906 153.726562 C 123.867188 152.75 123.410156 151.519531 123.410156 150.1875 L 123.410156 102.664062 C 123.410156 101.332031 123.867188 100.101562 124.628906 99.125 C 125.6875 97.765625 127.332031 96.894531 129.175781 96.894531 L 137.21875 96.894531 C 140.386719 96.894531 142.980469 99.492188 142.980469 102.664062 Z M 189.589844 141.019531 L 191.027344 141.75 C 191.121094 141.457031 191.210938 141.15625 191.292969 140.859375 L 190.152344 140.613281 L 190.949219 135.015625 C 191.125 133.773438 191.289062 132.527344 191.480469 131.289062 C 191.800781 129.1875 192.003906 127.042969 192.039062 124.917969 C 192.054688 124.140625 192.015625 122.414062 191.824219 121.25 L 190.761719 120.863281 L 189.417969 141.34375 L 189.59375 141.019531 Z M 169.140625 175.433594 C 189.148438 175.433594 191.953125 172.382812 201.269531 161.695312 L 187.296875 154.445312 L 182.855469 152.144531 C 181.496094 153.414062 180.046875 154.46875 178.382812 155.121094 L 178.355469 155.132812 L 178.074219 155.238281 L 177.9375 155.285156 L 177.917969 155.292969 L 177.785156 155.335938 L 177.765625 155.34375 L 177.628906 155.382812 L 177.609375 155.390625 L 177.472656 155.429688 L 177.449219 155.433594 L 177.3125 155.476562 L 177.292969 155.480469 L 177.234375 155.496094 L 177.132812 155.523438 L 176.988281 155.558594 L 176.96875 155.5625 L 176.820312 155.59375 L 176.804688 155.597656 L 176.734375 155.613281 L 176.476562 155.660156 L 176.324219 155.6875 L 176.308594 155.691406 L 176.15625 155.714844 L 176.140625 155.71875 L 175.980469 155.738281 L 175.972656 155.738281 L 175.808594 155.761719 L 175.800781 155.761719 L 175.636719 155.78125 L 175.628906 155.78125 L 175.460938 155.796875 L 175.457031 155.796875 L 175.277344 155.8125 L 174.925781 155.828125 L 174.746094 155.828125 L 174.566406 155.832031 C 174.566406 155.839844 163.347656 155.832031 162.378906 155.832031 L 148.210938 155.832031 C 143.746094 155.832031 134.675781 153.867188 135.714844 161.0625 C 136.152344 164.101562 137.996094 167.695312 138.671875 169.65625 C 139.765625 172.828125 143.253906 175.425781 146.425781 175.425781 L 169.144531 175.425781 Z M 174.742188 155.835938 Z M 174.921875 155.832031 Z M 175.28125 155.8125 Z M 178.070312 155.238281 Z M 101.738281 144.714844 L 101.738281 114.496094 L 101.765625 114.433594 L 101.738281 114.425781 L 101.738281 109.839844 C 101.738281 108.507812 102.195312 107.277344 102.957031 106.296875 C 104.011719 104.945312 105.660156 104.070312 107.5 104.070312 L 115.542969 104.070312 C 118.714844 104.070312 121.304688 106.664062 121.304688 109.839844 L 121.304688 149.371094 C 121.304688 152.546875 118.714844 155.140625 115.542969 155.140625 L 107.5 155.140625 C 105.660156 155.140625 104.011719 154.269531 102.957031 152.914062 C 102.191406 151.933594 101.738281 150.703125 101.738281 149.371094 L 101.738281 144.785156 L 101.765625 144.777344 Z M 101.738281 144.714844 " fill-opacity="1" fill-rule="evenodd"/><path fill="#deef75" d="M 193.695312 172.085938 C 192.742188 172.902344 191.734375 173.660156 190.660156 174.335938 C 184.230469 178.351562 175.546875 178.488281 168.207031 178.488281 L 146.542969 178.488281 C 144.25 178.488281 141.957031 177.558594 140.101562 176.074219 C 138.445312 174.753906 137.132812 172.992188 136.46875 171.078125 C 135.875 169.351562 135.042969 167.679688 134.4375 165.925781 C 134.039062 164.769531 133.699219 163.574219 133.523438 162.363281 C 133.40625 161.539062 133.378906 160.71875 133.476562 159.925781 L 130.101562 159.925781 C 127.53125 159.925781 125.117188 158.730469 123.535156 156.707031 L 123.296875 156.382812 C 121.769531 158.078125 119.558594 159.144531 117.109375 159.144531 L 109.4375 159.144531 C 107.921875 159.144531 106.457031 158.734375 105.1875 157.976562 C 105.1875 173.625 109.585938 185.941406 123.839844 189.515625 C 123.523438 189.4375 126.882812 197.679688 127.324219 199.128906 C 128.488281 202.925781 129.492188 207.398438 130.253906 212.710938 L 169.386719 212.710938 C 170.144531 207.398438 171.148438 202.925781 172.3125 199.128906 C 173.574219 195.003906 175.027344 191.671875 176.566406 188.902344 C 176.0625 189.035156 193.695312 183.90625 193.695312 172.082031 Z M 186.257812 214.699219 L 181.140625 204.960938 C 180.484375 207.40625 179.90625 209.992188 179.339844 212.84375 L 179.175781 213.667969 C 181.535156 213.972656 183.898438 214.320312 186.257812 214.699219 Z M 171.167969 210.46875 C 171.042969 211.226562 170.925781 211.984375 170.816406 212.746094 L 171.945312 212.847656 C 173.527344 213.003906 175.113281 213.175781 176.691406 213.363281 L 176.578125 212.960938 C 175.394531 208.84375 176.398438 204.136719 178.308594 199.554688 L 177.4375 197.898438 L 175.546875 194.296875 C 174.832031 196.011719 174.214844 197.769531 173.671875 199.542969 C 172.582031 203.109375 171.777344 206.777344 171.167969 210.464844 Z M 171.167969 210.46875 " fill-opacity="1" fill-rule="evenodd"/><path fill="#008037" d="M 177.945312 212.566406 C 179.441406 205.046875 180.941406 197.246094 187.964844 185.808594 C 182.730469 193.386719 175.605469 204.425781 177.945312 212.566406 Z M 114.140625 206.464844 C 113.023438 200.859375 111.90625 195.046875 106.667969 186.519531 C 110.570312 192.167969 115.882812 200.398438 114.140625 206.464844 Z M 121.75 212.566406 C 124.089844 204.425781 116.964844 193.386719 111.730469 185.808594 C 118.757812 197.25 120.253906 205.046875 121.75 212.566406 Z M 185.554688 206.464844 C 183.8125 200.398438 189.121094 192.167969 193.023438 186.519531 C 187.785156 195.046875 186.671875 200.859375 185.554688 206.464844 Z M 185.554688 206.464844 " fill-opacity="1" fill-rule="evenodd"/><path fill="#008037" d="M 178.335938 212.375 L 178.003906 214.03125 L 177.613281 212.660156 C 176.414062 208.5 177.625 203.625 179.800781 198.835938 C 181.949219 194.09375 185.042969 189.433594 187.667969 185.632812 L 187.679688 185.613281 L 188.257812 185.988281 C 181.347656 197.246094 179.808594 204.964844 178.332031 212.378906 Z M 177.941406 210.828125 C 178.980469 205.65625 180.214844 200.238281 183.378906 193.511719 C 182.304688 195.335938 181.292969 197.222656 180.429688 199.117188 C 178.601562 203.152344 177.46875 207.226562 177.941406 210.828125 Z M 113.800781 206.53125 L 113.765625 206.34375 C 112.664062 200.824219 111.519531 195.078125 106.375 186.699219 L 106.953125 186.320312 L 106.96875 186.34375 C 108.925781 189.175781 111.230469 192.65625 112.835938 196.195312 C 114.464844 199.78125 115.371094 203.433594 114.472656 206.558594 L 114.078125 207.929688 Z M 110.933594 193.933594 C 112.640625 197.945312 113.449219 201.335938 114.113281 204.574219 C 114.28125 202.054688 113.464844 199.253906 112.207031 196.476562 C 111.820312 195.625 111.390625 194.773438 110.933594 193.933594 Z M 121.753906 210.828125 C 122.226562 207.226562 121.09375 203.152344 119.265625 199.117188 C 118.40625 197.222656 117.394531 195.339844 116.320312 193.519531 C 119.484375 200.242188 120.714844 205.65625 121.753906 210.828125 Z M 119.894531 198.835938 C 122.070312 203.625 123.277344 208.5 122.082031 212.660156 L 121.6875 214.03125 L 121.359375 212.386719 C 119.886719 204.976562 118.351562 197.25 111.433594 185.988281 L 112.011719 185.609375 L 112.023438 185.632812 C 114.648438 189.429688 117.742188 194.09375 119.894531 198.832031 Z M 185.222656 206.558594 C 184.324219 203.4375 185.230469 199.78125 186.859375 196.195312 C 188.460938 192.660156 190.769531 189.179688 192.726562 186.34375 L 192.742188 186.324219 L 193.320312 186.699219 C 188.171875 195.082031 187.03125 200.824219 185.929688 206.34375 L 185.617188 207.929688 Z M 187.488281 196.480469 C 186.226562 199.253906 185.414062 202.058594 185.582031 204.578125 C 186.246094 201.335938 187.050781 197.945312 188.761719 193.933594 C 188.304688 194.773438 187.875 195.625 187.488281 196.476562 Z M 187.488281 196.480469 " fill-opacity="1" fill-rule="evenodd"/><g clip-path="url(#37ed073639)"><path fill="#008037" d="M 240.902344 234.160156 C 179.25 220.679688 118.25 220.683594 57.183594 234.160156 C 117.546875 209.996094 178.699219 207.621094 240.902344 234.160156 Z M 240.902344 234.160156 " fill-opacity="1" fill-rule="evenodd"/></g><path fill="#008037" d="M 196.933594 135.871094 L 235.484375 144.09375 C 235.703125 143.34375 236.105469 142.632812 236.699219 142.039062 C 237.324219 141.417969 238.078125 141.003906 238.867188 140.796875 C 235.621094 129.324219 235.015625 117.234375 236.917969 105.457031 C 235.632812 105.542969 234.324219 105.097656 233.347656 104.121094 C 232.785156 103.554688 232.398438 102.878906 232.1875 102.15625 L 232.640625 101.996094 C 218.117188 107.117188 201.773438 110.636719 188.035156 112.394531 L 188.035156 114.1875 C 189.039062 114.105469 189.921875 114.113281 191.25 114.597656 L 195.359375 116.09375 C 199.121094 117.464844 198.105469 127.917969 197.457031 132.195312 C 197.273438 133.398438 197.109375 134.632812 196.933594 135.871094 Z M 217.945312 128.25 C 214.597656 128.570312 211.621094 126.109375 211.300781 122.753906 C 210.984375 119.402344 213.441406 116.421875 216.789062 116.101562 C 220.863281 115.714844 224.109375 119.382812 223.351562 123.332031 C 222.851562 125.925781 220.703125 127.988281 217.941406 128.25 Z M 217.945312 128.25 " fill-opacity="1" fill-rule="evenodd"/><path fill="#008037" d="M 217.222656 122.414062 L 217.398438 125.566406 C 215.824219 125.640625 215.796875 124.074219 215.746094 123.957031 C 215.730469 123.914062 215.558594 123.789062 215.550781 124.183594 C 215.542969 124.484375 215.496094 125.683594 215.660156 125.816406 C 215.972656 126.070312 216.972656 126.089844 217.425781 126.058594 L 217.496094 127.328125 L 218.179688 127.292969 L 218.101562 125.945312 C 220.011719 125.40625 220.4375 123.234375 218.792969 121.78125 L 217.835938 121.070312 L 217.691406 118.390625 C 219.046875 118.339844 219.121094 119.59375 219.148438 119.640625 C 219.171875 119.675781 219.351562 119.8125 219.328125 119.367188 L 219.257812 118.046875 L 217.660156 117.914062 L 217.59375 116.644531 L 216.910156 116.679688 L 216.988281 118.039062 C 215.257812 118.566406 214.972656 120.390625 216.355469 121.722656 C 216.570312 121.929688 216.835938 122.144531 217.148438 122.359375 Z M 217.011719 118.558594 L 217.121094 120.554688 C 216.3125 119.886719 216.234375 119.027344 217.011719 118.558594 Z M 217.933594 122.925781 C 218.972656 123.761719 219.027344 124.925781 218.070312 125.40625 Z M 217.933594 122.925781 " fill-opacity="1" fill-rule="evenodd"/><path fill="#008037" d="M 81.152344 135.820312 L 81.363281 139.617188 C 79.464844 139.707031 79.429688 137.820312 79.371094 137.679688 C 79.351562 137.625 79.148438 137.476562 79.136719 137.949219 C 79.128906 138.3125 79.070312 139.757812 79.265625 139.917969 C 79.644531 140.222656 80.847656 140.25 81.394531 140.210938 L 81.480469 141.742188 L 82.300781 141.699219 L 82.210938 140.074219 C 84.507812 139.429688 85.023438 136.808594 83.042969 135.058594 L 81.886719 134.199219 L 81.714844 130.972656 C 83.351562 130.914062 83.4375 132.425781 83.472656 132.480469 C 83.496094 132.523438 83.714844 132.683594 83.683594 132.148438 L 83.601562 130.558594 L 81.675781 130.398438 L 81.601562 128.867188 L 80.773438 128.914062 L 80.867188 130.550781 C 78.785156 131.1875 78.441406 133.386719 80.105469 134.988281 C 80.367188 135.234375 80.6875 135.492188 81.0625 135.753906 L 81.15625 135.820312 Z M 80.898438 131.175781 L 81.03125 133.582031 C 80.054688 132.777344 79.960938 131.738281 80.898438 131.175781 Z M 82.011719 136.4375 C 83.261719 137.445312 83.324219 138.847656 82.175781 139.425781 Z M 82.011719 136.4375 " fill-opacity="1" fill-rule="evenodd"/></svg>